<svg width="200" height="87" viewBox="0 0 200 87" fill="none" xmlns="http://www.w3.org/2000/svg">
<path d="M73.4594 25.663H6.53345V54.8478H73.4594V25.663Z" fill="#0D9848"/>
<path fill-rule="evenodd" clip-rule="evenodd" d="M40.7329 33.9105L60.8385 60.0741L80.9441 86.2377H40.7329H0.525818L20.6314 60.0741L40.7329 33.9105Z" fill="#EB2627"/>
<path d="M197.147 61.7194H199.474V85.7072H196.902V67.0989C195.881 68.8147 194.851 70.5746 193.811 72.3788C192.771 74.183 191.763 75.9306 190.786 77.6215H189.222L183.036 67.0989V85.7072H180.497V61.7194H182.791L190.056 73.904L197.147 61.7194ZM162.648 61.7194H164.557L173.423 85.7072H170.78L167.27 76.229H159.972C159.599 77.2278 159.226 78.239 158.84 79.2668C158.454 80.2946 158.072 81.339 157.678 82.3751C157.471 82.9098 157.263 83.4693 157.018 84.0578C156.774 84.6463 156.579 85.1975 156.392 85.7155H153.786L162.648 61.7194ZM166.333 73.6968C166.146 73.1621 165.918 72.5695 165.669 71.9105C165.42 71.2516 165.196 70.6672 165.009 70.1574V70.1906C164.872 69.8217 164.744 69.4902 164.628 69.2001C164.511 68.91 164.403 68.6282 164.3 68.3505C164.196 68.0728 164.084 67.7827 163.968 67.4843C163.852 67.1859 163.723 66.8212 163.586 66.4068C163.399 66.8461 163.217 67.3102 163.03 67.7951C162.843 68.28 162.682 68.7442 162.545 69.1835V69.2167C162.218 70.029 161.942 70.7584 161.715 71.4049C161.483 72.0514 161.205 72.8181 160.885 73.6968H166.333ZM146.464 85.7155H143.929V61.7194H146.464V85.7155ZM124.271 64.1646V71.7323H128.856C129.453 71.7385 130.048 71.6389 130.611 71.4381C131.129 71.2587 131.613 70.9893 132.038 70.6423C132.439 70.3123 132.769 69.9049 133.009 69.4446C133.252 68.9836 133.378 68.4696 133.374 67.9485C133.375 67.4409 133.249 66.941 133.009 66.4938C132.764 66.0261 132.428 65.6119 132.021 65.2753C131.588 64.9147 131.093 64.6341 130.561 64.4465C129.992 64.2455 129.393 64.1446 128.789 64.1481L124.271 64.1646ZM124.271 75.2053V85.7238H121.732V61.7194H128.856C129.793 61.7126 130.724 61.877 131.602 62.2043C132.424 62.5047 133.183 62.9528 133.843 63.5264C134.477 64.0752 134.993 64.748 135.357 65.5033C135.725 66.2599 135.915 67.0906 135.913 67.9319C135.919 68.7855 135.728 69.6291 135.357 70.3978C134.987 71.1605 134.473 71.8445 133.843 72.412C133.19 73.0031 132.429 73.4633 131.602 73.7672C130.724 74.0946 129.793 74.2589 128.856 74.2521H126.843C127.536 75.0603 128.262 75.9099 129.013 76.7387C129.764 77.5676 130.524 78.4504 131.291 79.3083C131.731 79.8167 132.194 80.3485 132.681 80.9039C133.168 81.4592 133.66 82.0118 134.158 82.5616L135.618 84.1945C136.091 84.7292 136.539 85.2265 136.954 85.6865H133.635L124.271 75.2053ZM113.82 85.7238H111.302V61.7194H113.837L113.82 85.7238ZM100.282 61.736H102.61V85.7238H100.037V67.1155C99.0167 68.8312 97.985 70.5912 96.9423 72.3954C95.8995 74.1996 94.8927 75.9472 93.9219 77.6381H92.3577L86.1717 67.1155V85.7238H83.6326V61.7194H85.9269L93.1917 73.904L100.282 61.736Z" fill="#24408F"/>
<path fill-rule="evenodd" clip-rule="evenodd" d="M95.2536 24.8508C98.3037 24.8508 101.285 25.7543 103.821 27.447C106.357 29.1397 108.334 31.5456 109.501 34.3604C110.668 37.1753 110.974 40.2727 110.379 43.2609C109.784 46.2491 108.315 48.994 106.158 51.1484C104.002 53.3028 101.254 54.7699 98.2622 55.3643C95.2707 55.9587 92.17 55.6536 89.3521 54.4877C86.5342 53.3217 84.1257 51.3473 82.4311 48.814C80.7366 46.2807 79.8322 43.3023 79.8322 40.2556C79.8322 36.17 81.4569 32.2517 84.349 29.3628C87.2411 26.4738 91.1636 24.8508 95.2536 24.8508Z" fill="#EB2627"/>
<path d="M195.064 55.4075H199.134V56.3275H194.155V47.6243H195.064V55.4075ZM189.832 56.3275H188.907V47.6243H189.832V56.3275ZM181.754 48.5029V56.3275H180.833V48.5029H178.099V47.6077H184.455V48.5029H181.754ZM168.689 47.6077L172.668 54.3341V47.6077H173.589V56.311H172.759L168.781 49.5473V56.311H167.872V47.6077H168.689ZM159.777 47.6077H160.474L163.694 56.311H162.748L161.47 52.867H158.807C158.67 53.2275 158.533 53.5964 158.392 53.9694C158.251 54.3424 158.11 54.7195 157.977 55.1008C157.898 55.2915 157.819 55.5153 157.736 55.71C157.653 55.9048 157.574 56.1245 157.508 56.311H156.562L159.777 47.6077ZM161.118 51.9594C161.051 51.7687 160.968 51.5449 160.877 51.3128C160.786 51.0807 160.703 50.8569 160.636 50.6746C160.586 50.5364 160.541 50.4163 160.499 50.314C160.458 50.2104 160.416 50.1068 160.379 50.0032L160.259 49.6882C160.217 49.5805 160.172 49.452 160.118 49.2986C160.051 49.4603 159.985 49.6261 159.918 49.8043C159.852 49.9825 159.79 50.1483 159.74 50.3099C159.624 50.6041 159.52 50.8694 159.437 51.1015C159.354 51.3335 159.251 51.6154 159.134 51.9303L161.118 51.9594ZM151.741 52.1624H148.078V56.3275H147.165V47.6243H152.376V48.5071H148.078V51.2589H151.741V52.1624ZM137.676 47.6036L141.655 54.33V47.6077H142.576V56.311H141.746L137.767 49.5473V56.311H136.859V47.6077L137.676 47.6036ZM132.478 56.3068H131.557V47.6036H132.461L132.478 56.3068ZM197.769 41.7641C197.423 42.156 196.997 42.4696 196.52 42.684C196.042 42.8983 195.525 43.0086 195.002 43.0074C194.475 43.0076 193.955 42.89 193.479 42.6635C192.994 42.4347 192.561 42.1104 192.205 41.7102C191.828 41.2955 191.532 40.8132 191.334 40.2887C191.115 39.7259 191.006 39.1269 191.01 38.5232C191.005 37.9337 191.112 37.3487 191.326 36.7991C191.524 36.2849 191.814 35.8104 192.18 35.3983C192.529 35.0044 192.952 34.6832 193.425 34.4534C193.912 34.2209 194.445 34.1018 194.985 34.1053C195.533 34.0999 196.075 34.219 196.57 34.4534C197.044 34.6803 197.467 35.0003 197.815 35.3942C198.176 35.8056 198.457 36.2807 198.644 36.795C198.85 37.3478 198.953 37.9335 198.947 38.5232C198.955 39.1385 198.848 39.7497 198.632 40.326C198.439 40.8563 198.146 41.3446 197.769 41.7641ZM197.097 35.962C196.832 35.6695 196.509 35.4361 196.148 35.2768C195.787 35.1176 195.396 35.0361 195.002 35.0378C194.59 35.0357 194.184 35.1294 193.815 35.3113C193.444 35.4908 193.112 35.7431 192.84 36.0531C192.565 36.3818 192.35 36.7564 192.205 37.1597C192.043 37.5959 191.962 38.0579 191.965 38.5232C191.963 38.9924 192.045 39.4582 192.205 39.8991C192.356 40.3081 192.577 40.688 192.857 41.0223C193.124 41.3367 193.453 41.5933 193.823 41.7766C194.195 41.9627 194.606 42.0579 195.022 42.0542C195.445 42.0588 195.863 41.9636 196.242 41.7766C196.603 41.5895 196.923 41.3332 197.184 41.0223C197.467 40.69 197.688 40.3096 197.835 39.8991C197.991 39.4572 198.07 38.9918 198.068 38.5232C198.071 38.0335 197.984 37.5473 197.81 37.0892C197.654 36.668 197.411 36.284 197.097 35.962ZM183.21 33.9395H183.907L187.127 42.6427H186.169L184.891 39.1987H182.248C182.11 39.5607 181.971 39.9295 181.833 40.3053L181.418 41.4326C181.343 41.6274 181.26 41.847 181.177 42.0459C181.094 42.2449 181.016 42.4604 180.949 42.6427H180.003L183.21 33.9395ZM184.551 38.2953C184.484 38.1005 184.401 37.8808 184.31 37.6446L184.069 37.0064C184.019 36.8737 183.974 36.7535 183.932 36.6499L183.812 36.3391L183.692 36.0241C183.65 35.9164 183.605 35.7838 183.551 35.6346C183.484 35.792 183.418 35.962 183.352 36.136C183.285 36.3101 183.223 36.4842 183.173 36.6416C183.057 36.9359 182.953 37.2011 182.87 37.4374C182.787 37.6736 182.684 37.9513 182.567 38.2662L184.551 38.2953ZM184.082 33.5624C183.828 33.5635 183.576 33.5171 183.339 33.4256L183.161 33.38C183.093 33.3728 183.025 33.3728 182.957 33.38C182.791 33.3823 182.627 33.4146 182.472 33.4753C182.314 33.5357 182.163 33.615 182.024 33.7116L181.659 33.0029C181.855 32.875 182.067 32.7733 182.289 32.7003C182.505 32.628 182.73 32.5902 182.957 32.5884C183.078 32.5857 183.199 32.5954 183.318 32.6174L183.592 32.6755L183.829 32.7459C183.903 32.7645 183.98 32.7742 184.057 32.7749C184.233 32.7736 184.408 32.7442 184.575 32.6879C184.743 32.634 184.898 32.5481 185.032 32.4351L185.372 33.1562C185.185 33.2943 184.976 33.4007 184.754 33.4712C184.535 33.5344 184.309 33.5651 184.082 33.5624ZM174.954 36.0987C174.658 35.7553 174.297 35.4737 173.892 35.2698C173.522 35.0922 173.116 35.0042 172.705 35.0129C172.286 35.011 171.872 35.109 171.498 35.2989C171.123 35.4873 170.789 35.7479 170.515 36.0656C170.228 36.4002 170.003 36.7834 169.851 37.197C169.53 38.0777 169.53 39.0433 169.851 39.924C170.002 40.3353 170.223 40.7169 170.506 41.0513C170.78 41.3719 171.116 41.6341 171.494 41.8221C171.87 42.0107 172.285 42.1073 172.705 42.104C173.106 42.1011 173.501 42.0016 173.855 41.8139C174.245 41.6139 174.6 41.3506 174.904 41.0347L175.576 41.6439C175.226 42.0379 174.801 42.3589 174.326 42.5886C173.851 42.8183 173.336 42.9522 172.809 42.9826C172.942 43.0605 173.059 43.1632 173.153 43.2851C173.257 43.4082 173.314 43.5636 173.315 43.7244C173.306 43.8934 173.242 44.0547 173.133 44.1845C172.956 44.3936 172.739 44.5643 172.494 44.6859L171.486 43.9399H171.73C171.842 43.9399 171.959 43.9399 172.071 43.9026C172.174 43.8883 172.275 43.8647 172.373 43.8322C172.465 43.8032 172.506 43.7617 172.506 43.712C172.506 43.6623 172.456 43.6001 172.349 43.5794C172.268 43.561 172.186 43.5499 172.104 43.5462H171.788V42.8914C171.355 42.7748 170.946 42.5811 170.581 42.3195C170.205 42.0518 169.875 41.7258 169.602 41.3538C169.326 40.9581 169.113 40.5219 168.971 40.0608C168.808 39.5775 168.727 39.0705 168.731 38.5605C168.725 37.9589 168.832 37.3614 169.046 36.7991C169.243 36.2794 169.534 35.8004 169.905 35.3859C170.261 34.9909 170.693 34.671 171.174 34.4451C171.663 34.2171 172.196 34.1009 172.734 34.1053C173.268 34.1053 173.793 34.2302 174.27 34.47C174.776 34.725 175.231 35.0722 175.61 35.4936L174.954 36.0987ZM160.562 34.155H161.254L164.478 42.8582H163.516L162.242 39.4143H159.587L159.172 40.5167C159.031 40.8938 158.89 41.2668 158.757 41.6481C158.678 41.8429 158.599 42.0625 158.516 42.2615C158.433 42.4604 158.354 42.6759 158.288 42.8582H157.354L160.562 34.155ZM161.902 38.5108C161.831 38.316 161.752 38.0963 161.661 37.8601C161.57 37.6239 161.487 37.4084 161.42 37.2219C161.371 37.0892 161.325 36.9691 161.279 36.8613C161.234 36.7535 161.2 36.6541 161.163 36.5546C161.126 36.4551 161.084 36.3474 161.043 36.2396C161.001 36.1319 160.952 35.9993 160.902 35.8459L160.674 36.364C160.607 36.5422 160.549 36.708 160.499 36.8696C160.379 37.1638 160.279 37.4291 160.196 37.6653L159.894 38.4942L161.902 38.5108ZM152.637 36.0987C152.337 35.7764 151.981 35.5098 151.587 35.3113C151.224 35.1245 150.822 35.0265 150.413 35.0253C150.002 35.0228 149.596 35.1165 149.227 35.2989C148.846 35.4744 148.505 35.727 148.227 36.0407C147.944 36.3693 147.722 36.7453 147.571 37.1514C147.408 37.5902 147.326 38.0551 147.331 38.5232C147.329 38.9877 147.408 39.4489 147.563 39.8867C147.717 40.2968 147.942 40.6768 148.227 41.0098C148.495 41.3262 148.823 41.5856 149.194 41.7724C149.572 41.9609 149.99 42.0575 150.413 42.0542C150.817 42.0535 151.216 41.9569 151.575 41.7724C151.964 41.5698 152.318 41.3068 152.625 40.9933L153.247 41.6439C152.863 42.0488 152.413 42.3852 151.915 42.6386C151.448 42.8792 150.931 43.0057 150.405 43.0074C149.879 43.0081 149.361 42.8861 148.891 42.651C148.408 42.4153 147.977 42.0872 147.621 41.6854C147.245 41.2661 146.948 40.7833 146.742 40.2597C146.521 39.7131 146.41 39.1289 146.414 38.5398C146.412 37.9635 146.516 37.3918 146.721 36.853C146.916 36.3295 147.206 35.8462 147.575 35.4273C147.932 35.0264 148.363 34.6985 148.845 34.4617C149.33 34.2213 149.864 34.0978 150.405 34.1011C150.94 34.1011 151.467 34.226 151.944 34.4658C152.446 34.7121 152.896 35.051 153.272 35.4646L152.637 36.0987ZM136.469 40.5788C136.506 40.7812 136.591 40.9717 136.718 41.1342C136.863 41.3195 137.038 41.4792 137.236 41.6066C137.46 41.7527 137.705 41.8631 137.962 41.934C138.244 42.0165 138.536 42.057 138.83 42.0542C139.111 42.0569 139.391 42.0164 139.659 41.934C139.911 41.8623 140.151 41.7518 140.369 41.6066C140.565 41.4802 140.738 41.3202 140.879 41.1342C141.008 40.9742 141.091 40.7823 141.12 40.5788V34.155H142.041V40.5913C142.024 40.919 141.927 41.2376 141.759 41.5196C141.578 41.8163 141.341 42.0753 141.062 42.2822C140.756 42.5084 140.415 42.6833 140.054 42.8002C139.659 42.9272 139.248 42.9916 138.834 42.9909C138.405 42.9922 137.978 42.9279 137.568 42.8002C137.198 42.6851 136.849 42.5101 136.535 42.2822C136.252 42.0761 136.01 41.8189 135.822 41.5238C135.642 41.2479 135.535 40.9316 135.51 40.6037V34.155H136.473L136.469 40.5788ZM124.653 34.155H127.935C128.364 34.1643 128.783 34.2858 129.15 34.5073C129.539 34.7443 129.877 35.0572 130.142 35.4273C130.438 35.8487 130.661 36.3166 130.801 36.8116C131.122 37.9118 131.122 39.0807 130.801 40.181C130.659 40.6734 130.438 41.1395 130.146 41.5611C129.887 41.9383 129.554 42.2585 129.167 42.5018C128.804 42.7305 128.388 42.8592 127.959 42.8748H124.64L124.653 34.155ZM125.574 35.0751V41.9548H126.146H126.723H127.35H127.959C128.259 41.9422 128.547 41.8412 128.789 41.6647C129.064 41.4656 129.298 41.215 129.478 40.927C129.701 40.5869 129.868 40.2133 129.972 39.8204C130.199 38.9522 130.199 38.0403 129.972 37.1721C129.873 36.7906 129.715 36.427 129.503 36.0946C129.325 35.8048 129.089 35.555 128.81 35.361C128.558 35.1857 128.262 35.0864 127.955 35.0751H125.574ZM119.67 38.7097H116.006V41.9548H120.301V42.8873H115.098V34.184H120.301V35.0792H116.006V37.7896H119.67V38.7097ZM198.337 25.2611H194.695V28.502H198.968V29.4221H193.765V20.7189H198.968V21.614H194.695V24.3494H198.358L198.337 25.2611ZM182.895 20.7023H186.181C186.609 20.7098 187.027 20.8314 187.393 21.0546C187.784 21.2924 188.121 21.6084 188.384 21.9829C188.679 22.401 188.903 22.8644 189.048 23.3547C189.369 24.455 189.369 25.6238 189.048 26.7241C188.903 27.2169 188.682 27.684 188.392 28.1083C188.133 28.4846 187.8 28.8045 187.413 29.0491C187.049 29.2736 186.633 29.4007 186.206 29.418H182.887L182.895 20.7023ZM183.816 21.6223V28.502H184.393C184.584 28.502 184.775 28.502 184.965 28.502H185.592H186.206C186.506 28.4915 186.795 28.3903 187.036 28.2119C187.31 28.0118 187.544 27.7614 187.724 27.4742C187.932 27.1403 188.089 26.7771 188.189 26.3967C188.416 25.5271 188.416 24.6139 188.189 23.7443C188.089 23.3639 187.932 23.0007 187.724 22.6667C187.543 22.3786 187.306 22.1292 187.027 21.9332C186.783 21.7628 186.495 21.6651 186.198 21.6513L183.816 21.6223ZM174.099 28.3155C173.751 28.7001 173.328 29.009 172.855 29.2232C172.375 29.4337 171.856 29.541 171.332 29.5381C170.804 29.5427 170.281 29.431 169.801 29.2107C169.329 28.9759 168.906 28.6522 168.556 28.2575C168.179 27.8428 167.883 27.3605 167.685 26.836C167.467 26.2732 167.357 25.6741 167.362 25.0705C167.356 24.481 167.463 23.8959 167.677 23.3464C167.876 22.8321 168.165 22.3577 168.532 21.9456C168.88 21.5517 169.303 21.2305 169.776 21.0007C170.263 20.7681 170.797 20.6491 171.336 20.6525C171.884 20.6468 172.426 20.7658 172.921 21.0007C173.394 21.2289 173.817 21.5487 174.166 21.9415C174.527 22.3529 174.808 22.8279 174.996 23.3423C175.201 23.8952 175.303 24.4808 175.298 25.0705C175.306 25.6857 175.199 26.297 174.983 26.8733C174.784 27.406 174.484 27.8956 174.099 28.3155ZM173.431 22.5134C173.165 22.2228 172.84 21.9909 172.479 21.8325C172.117 21.6741 171.727 21.5927 171.332 21.5933C170.921 21.5899 170.515 21.6821 170.146 21.8627C169.775 22.0451 169.443 22.2986 169.171 22.6087C168.889 22.9353 168.668 23.3083 168.515 23.7111C168.353 24.1475 168.272 24.6094 168.274 25.0746C168.273 25.5439 168.354 26.0097 168.515 26.4506C168.667 26.8528 168.887 27.2257 169.166 27.553C169.435 27.8674 169.764 28.1252 170.133 28.3114C170.506 28.4956 170.916 28.5907 171.332 28.5891C171.755 28.5916 172.172 28.4966 172.552 28.3114C172.927 28.126 173.261 27.8683 173.535 27.553C173.819 27.2214 174.04 26.8407 174.187 26.4298C174.343 25.988 174.421 25.5225 174.419 25.0539C174.422 24.5642 174.335 24.078 174.162 23.6199C173.997 23.2038 173.748 22.8258 173.431 22.5092V22.5134ZM158.91 21.5933V24.3411H160.57C160.787 24.3434 161.003 24.3084 161.209 24.2375C161.397 24.1686 161.572 24.0692 161.727 23.9432C161.873 23.8237 161.994 23.6756 162.08 23.508C162.168 23.3419 162.213 23.157 162.213 22.9693C162.213 22.7843 162.167 22.6021 162.08 22.4388C161.991 22.268 161.868 22.1171 161.719 21.9953C161.561 21.866 161.381 21.7663 161.188 21.7011C160.982 21.6272 160.764 21.5907 160.545 21.5933H158.91ZM158.91 25.6051V29.4262H157.989V20.723H160.578C160.919 20.7211 161.258 20.78 161.578 20.8971C161.881 21.0063 162.162 21.1692 162.408 21.3778C162.638 21.5766 162.824 21.8207 162.955 22.0948C163.091 22.3706 163.161 22.6743 163.159 22.9817C163.161 23.2918 163.092 23.5983 162.955 23.8769C162.824 24.1542 162.637 24.4022 162.408 24.6063C162.166 24.8232 161.884 24.9908 161.578 25.0995C161.258 25.2179 160.919 25.2782 160.578 25.2777H159.844C160.097 25.5719 160.362 25.8745 160.636 26.1853L161.466 27.1178C161.628 27.3043 161.794 27.4991 161.972 27.698L162.507 28.3031L163.038 28.8999L163.524 29.4387H162.333L158.91 25.6051ZM150.845 21.6058V29.4221H149.924V21.6016H147.198V20.7064H153.55V21.6016L150.845 21.6058ZM137.78 20.7106L141.759 27.4328V20.7064H142.684V29.4097H141.854L137.855 22.6584V29.4221H136.946V20.7189L137.78 20.7106ZM131.851 25.2694H128.188V28.5103H132.482V29.4304H127.279V20.7271H132.482V21.6223H128.188V24.3576H131.851V25.2694ZM122.346 22.6543C122.046 22.3336 121.692 22.0671 121.3 21.8669C120.937 21.6818 120.534 21.5852 120.126 21.585C119.714 21.5815 119.306 21.6737 118.936 21.8544C118.566 22.0369 118.236 22.2904 117.965 22.6004C117.679 22.9267 117.457 23.3034 117.309 23.7111C117.146 24.1483 117.064 24.612 117.069 25.0788C117.067 25.5432 117.145 26.0045 117.301 26.4423C117.448 26.8465 117.664 27.2223 117.94 27.553C118.207 27.8703 118.536 28.1298 118.907 28.3155C119.284 28.5072 119.703 28.6052 120.126 28.6015C120.531 28.6008 120.929 28.5027 121.288 28.3155C121.674 28.1166 122.026 27.8594 122.334 27.553L122.968 28.1829C122.583 28.5895 122.131 28.9273 121.632 29.1817C121.166 29.4194 120.65 29.5443 120.126 29.5464C119.6 29.5461 119.081 29.4256 118.608 29.1942C118.126 28.9574 117.695 28.6294 117.338 28.2285C116.965 27.8084 116.668 27.3258 116.463 26.8028C116.028 25.7102 116.02 24.494 116.442 23.3961C116.637 22.8777 116.927 22.4 117.297 21.987C117.654 21.587 118.085 21.2592 118.566 21.0214C119.048 20.7817 119.578 20.6569 120.116 20.6569C120.654 20.6569 121.184 20.7817 121.666 21.0214C122.166 21.2671 122.617 21.6045 122.993 22.0161L122.346 22.6543Z" fill="#010101"/>
<path fill-rule="evenodd" clip-rule="evenodd" d="M76.8948 22.8325V45.0465C73.9486 45.0867 71.0237 44.5418 68.2902 43.4433C65.5566 42.3449 63.0687 40.7149 60.9711 38.648C58.8734 36.581 57.2078 34.1183 56.071 31.403C54.9341 28.6876 54.3487 25.7737 54.3487 22.8304C54.3487 19.8872 54.9341 16.9732 56.071 14.2579C57.2078 11.5425 58.8734 9.07987 60.9711 7.01293C63.0687 4.94599 65.5566 3.31597 68.2902 2.21754C71.0237 1.11912 73.9486 0.57418 76.8948 0.614377V22.8325Z" fill="#FFCD0A"/>
<path fill-rule="evenodd" clip-rule="evenodd" d="M62.0499 13.3128C56.987 13.3136 52.038 14.8141 47.8287 17.6246C43.6195 20.435 40.3391 24.4292 38.4023 29.102C36.4656 33.7748 35.9595 38.9163 36.948 43.8764C37.9366 48.8366 40.3753 53.3925 43.956 56.968C47.5366 60.5436 52.0983 62.9783 57.0641 63.9641C62.0299 64.95 67.1769 64.4428 71.8541 62.5066C76.5314 60.5705 80.5288 57.2923 83.341 53.0867C86.1531 48.8812 87.6536 43.937 87.6528 38.8796C87.6528 35.5217 86.9907 32.1968 85.7042 29.0946C84.4177 25.9924 82.532 23.1738 80.1549 20.7996C77.7778 18.4255 74.9557 16.5423 71.85 15.2577C68.7442 13.9731 65.4156 13.3122 62.0541 13.3128M62.0541 10.1174C56.5102 10.1175 51.0843 11.7162 46.4278 14.7216C41.7714 17.727 38.0826 22.0113 35.8044 27.06C33.5262 32.1086 32.7555 37.7069 33.5849 43.1824C34.4142 48.6579 36.8084 53.7778 40.4798 57.9272L26.8465 73.4066L33.7171 79.4367L47.5495 63.7294C51.3692 65.9559 55.651 67.2737 60.0628 67.5805C64.4746 67.8874 68.8979 67.1751 72.9897 65.499C77.0815 63.8228 80.7318 61.2277 83.6577 57.9151C86.5835 54.6024 88.7063 50.661 89.8613 46.3967C91.0163 42.1323 91.1726 37.6595 90.318 33.3251C89.4635 28.9907 87.621 24.9111 84.9335 21.4027C82.246 17.8943 78.7856 15.0513 74.8208 13.0942C70.856 11.1372 66.4932 10.1186 62.0707 10.1174H62.0541Z" fill="#24408F"/>
</svg>
