<svg width="193" height="98" viewBox="0 0 193 98" fill="none" xmlns="http://www.w3.org/2000/svg">
<path d="M40.7374 46.2745C41.2025 46.1222 41.691 46.0536 42.1801 46.072C42.6884 46.05 43.1965 46.1185 43.6808 46.2745V64.3132H52.3126C52.4695 64.7177 52.5481 65.1482 52.5441 65.5819C52.5454 66.0155 52.4669 66.4455 52.3126 66.8507H40.7374V46.2745Z" fill="black"/>
<path d="M59.9357 51.3824C64.1193 51.3824 65.4504 53.2586 65.4504 56.9821V66.6482C65.0977 66.811 64.7092 66.8807 64.3219 66.8507C63.9277 66.8609 63.5355 66.792 63.1685 66.6482L62.7344 64.8051C61.9861 66.3341 60.3987 67.14 58.187 67.14C55.4709 67.14 53.7098 65.5531 53.7098 62.3214C53.7098 59.1765 55.6446 57.7756 59.2535 57.7756C60.3581 57.7751 61.462 57.8317 62.5608 57.945V56.8953C62.5608 54.9323 61.8125 53.8083 59.5884 53.8083C58.2675 53.8346 56.9601 54.0789 55.719 54.5315C55.4322 54.2993 55.2054 54.0016 55.0575 53.6636C54.8994 53.2808 54.8397 52.8646 54.8839 52.4528C56.4751 51.7489 58.1956 51.3844 59.9357 51.3824ZM59.6421 59.7468C57.7074 59.7468 56.6987 60.4989 56.6987 62.3173C56.6987 64.1356 57.6496 64.9125 59.2081 64.9125C61.49 64.9125 62.5566 62.9826 62.5566 60.9328V59.9204C61.8952 59.8625 60.7377 59.7468 59.6421 59.7468Z" fill="black"/>
<path d="M75.3804 51.4113C76.2698 51.4005 77.1426 51.6521 77.8897 52.1345C77.867 52.6067 77.7417 53.0683 77.5225 53.4873C77.3034 53.9062 76.9956 54.2724 76.6206 54.5604C76.1088 54.1633 75.4784 53.9494 74.8305 53.9529C73.7061 53.9529 72.6106 54.8166 71.8582 56.1473V66.6482C71.3931 66.8005 70.9045 66.8691 70.4154 66.8507C69.9258 66.8789 69.4355 66.8101 68.9727 66.6482V51.8949C69.4355 51.733 69.9258 51.6642 70.4154 51.6924C70.9045 51.6739 71.3931 51.7425 71.8582 51.8949V53.8868C72.9537 52.0684 74.227 51.432 75.3804 51.432" fill="black"/>
<path d="M97.7536 46.2746C98.7161 46.0046 99.7344 46.0046 100.697 46.2746V66.6482C100.232 66.8006 99.7434 66.8691 99.2542 66.8507C98.7455 66.8857 98.2349 66.8168 97.7536 66.6482V57.4739H89.0928V66.6482C88.6172 66.7981 88.1196 66.8665 87.6211 66.8507C87.122 66.8801 86.622 66.8113 86.1494 66.6482V46.2746C86.6144 46.1216 87.103 46.053 87.5922 46.0721C88.1002 46.0548 88.6076 46.1232 89.0928 46.2746V54.9323H97.7536V46.2746Z" fill="black"/>
<path d="M107.105 60.16C107.336 63.5942 108.721 64.7058 111.119 64.7058C112.306 64.7244 113.479 64.4399 114.525 63.8793C115.093 64.4196 115.424 65.1623 115.447 65.9456C115.447 65.9456 113.794 67.1565 110.656 67.1565C106.212 67.1565 104.132 64.4166 104.132 59.193C104.132 53.738 106.704 51.3989 110.54 51.3989C114.091 51.3989 116.257 53.3619 116.257 57.1845C116.273 58.1843 116.166 59.1821 115.939 60.1559L107.105 60.16ZM110.54 53.6677C108.663 53.6677 107.336 54.9075 107.105 58.1102H113.285C113.342 57.6801 113.371 57.2466 113.372 56.8126C113.372 55.11 112.677 53.6677 110.54 53.6677Z" fill="black"/>
<path d="M125.468 51.4114C126.357 51.402 127.23 51.6534 127.977 52.1346C127.953 52.6064 127.827 53.0675 127.608 53.4861C127.389 53.9048 127.082 54.2712 126.708 54.5604C126.194 54.168 125.565 53.9572 124.918 53.9612C123.794 53.9612 122.694 54.8249 121.946 56.1556V66.6482C121.479 66.8011 120.989 66.8696 120.499 66.8507C120.009 66.878 119.519 66.8092 119.056 66.6482V51.8949C119.519 51.734 120.009 51.6652 120.499 51.6924C120.989 51.6735 121.479 51.7421 121.946 51.8949V53.8868C123.041 52.0685 124.311 51.432 125.468 51.432" fill="black"/>
<path d="M145.357 51.3824C148.098 51.3824 149.656 53.1429 149.656 55.7423V66.6482C149.191 66.8012 148.703 66.8697 148.213 66.8507C147.724 66.8779 147.234 66.8091 146.771 66.6482V56.2589C146.771 54.6431 146.022 53.7215 144.257 53.7215C143.627 53.7369 143.011 53.9151 142.47 54.2388C141.929 54.5625 141.481 55.0207 141.169 55.5688V66.6482C140.714 66.7996 140.235 66.8681 139.755 66.8507C139.266 66.8779 138.776 66.8091 138.312 66.6482V56.2589C138.312 54.6431 137.56 53.7215 135.799 53.7215C135.175 53.7486 134.566 53.9286 134.028 54.2457C133.49 54.5627 133.037 55.0071 132.711 55.5398V66.6482C132.255 66.7996 131.777 66.8681 131.297 66.8507C130.807 66.8779 130.317 66.8091 129.854 66.6482V51.8949C130.317 51.7339 130.807 51.6652 131.297 51.6924C131.777 51.6749 132.255 51.7435 132.711 51.8949V53.1925C133.234 52.6121 133.877 52.1517 134.594 51.8429C135.312 51.534 136.088 51.384 136.87 51.4031C138.544 51.4031 139.842 52.0106 140.623 53.5107C141.196 52.8179 141.921 52.267 142.742 51.9013C143.564 51.5357 144.459 51.3651 145.357 51.4031" fill="black"/>
<path d="M154.311 49.4153C153.99 49.3846 153.678 49.2898 153.394 49.1365C153.11 48.9831 152.859 48.7744 152.657 48.5227L155.398 44.4521C155.873 44.4098 156.351 44.4854 156.789 44.6721C157.228 44.8588 157.613 45.1509 157.912 45.5224L154.311 49.4153ZM156.159 66.6441C155.692 66.7969 155.203 66.8655 154.712 66.8466C154.222 66.8738 153.732 66.805 153.269 66.6441V51.8949C153.732 51.7339 154.222 51.6652 154.712 51.6924C155.203 51.6735 155.692 51.742 156.159 51.8949V66.6441Z" fill="black"/>
<path d="M171.571 66.6481C171.104 66.801 170.614 66.8696 170.124 66.8506C169.634 66.8734 169.145 66.8047 168.681 66.6481V56.263C168.681 54.643 167.854 53.7214 165.998 53.7214C165.344 53.7354 164.703 53.9114 164.134 54.2339C163.565 54.5563 163.084 55.0149 162.736 55.5687V66.6481C162.27 66.7965 161.782 66.865 161.293 66.8506C160.804 66.8789 160.313 66.81 159.851 66.6481V51.8948C160.313 51.7329 160.804 51.6641 161.293 51.6923C161.782 51.678 162.27 51.7465 162.736 51.8948V53.2214C163.286 52.6188 163.961 52.1438 164.713 51.8297C165.466 51.5156 166.278 51.3699 167.093 51.403C169.987 51.403 171.571 53.1635 171.571 55.7629V66.6481Z" fill="black"/>
<path d="M178.123 48.7583C177.638 48.9096 177.13 48.9781 176.622 48.9608C176.114 48.9871 175.605 48.9184 175.122 48.7583V46.0473C175.605 45.8872 176.114 45.8185 176.622 45.8448C177.13 45.8275 177.638 45.896 178.123 46.0473V48.7583ZM178.065 66.6483C177.6 66.8006 177.111 66.8692 176.622 66.8508C176.131 66.8782 175.64 66.8094 175.175 66.6483V51.8949C175.64 51.7338 176.131 51.665 176.622 51.6924C177.111 51.674 177.6 51.7426 178.065 51.8949V66.6483Z" fill="black"/>
<path d="M187.015 51.3824C191.199 51.3824 192.526 53.2586 192.526 56.9821V66.6482C192.175 66.8115 191.787 66.8813 191.401 66.8507C191.007 66.8616 190.615 66.7927 190.248 66.6482L189.814 64.8051C189.062 66.3341 187.474 67.14 185.267 67.14C182.55 67.14 180.789 65.5531 180.789 62.3214C180.789 59.1765 182.724 57.7756 186.333 57.7756C187.438 57.7752 188.542 57.8318 189.64 57.945V56.8953C189.64 54.9323 188.892 53.8083 186.668 53.8083C185.347 53.8346 184.04 54.0789 182.799 54.5315C182.51 54.3002 182.281 54.0024 182.133 53.6636C181.978 53.2801 181.919 52.8642 181.963 52.4528C183.554 51.7482 185.275 51.3836 187.015 51.3824ZM186.726 59.7509C184.791 59.7509 183.782 60.5031 183.782 62.3214C183.782 64.1397 184.733 64.9167 186.292 64.9167C188.574 64.9167 189.64 62.9867 189.64 60.937V59.9245C188.975 59.8666 187.821 59.7509 186.746 59.7509" fill="black"/>
<path d="M46.802 73.1528C48.7181 73.1167 50.6276 73.3888 52.4573 73.9587C52.4756 74.8042 52.1812 75.6268 51.6305 76.2688C50.1851 75.8484 48.6876 75.6342 47.1823 75.6324C44.1231 75.6324 42.6349 76.8184 42.6349 78.9385C42.6349 81.1618 45.1153 81.6825 47.8024 82.5462C50.4854 83.4719 53.2014 84.7117 53.2014 88.493C53.2014 92.3611 50.6879 94.5224 45.9545 94.5224C43.8141 94.5656 41.6889 94.1528 39.7204 93.3116C39.7195 92.4816 39.9593 91.6691 40.4108 90.9725C42.1604 91.5193 43.9773 91.8211 45.8098 91.8693C48.7822 91.8693 50.2001 90.7452 50.2001 88.5632C50.2001 86.497 48.5465 85.7903 46.5622 85.158C43.594 84.129 39.7576 83.4264 39.7576 79.0666C39.7576 75.5208 42.0933 73.1528 46.7854 73.1528" fill="black"/>
<path d="M58.402 86.6292C58.402 90.4105 59.6132 92.0552 62.383 92.0552C63.3111 92.0621 64.2323 91.8953 65.099 91.5635C65.6266 92.1226 65.9221 92.8612 65.9258 93.6298C65.9258 93.6298 64.6567 94.4935 61.7918 94.4935C57.5751 94.4935 55.4379 91.7536 55.4379 86.6168C55.4379 81.48 57.5751 78.7566 61.7836 78.7566C64.5534 78.7566 65.653 79.4757 65.653 79.4757C65.6586 80.2461 65.3618 80.988 64.8262 81.542C64.0116 81.2482 63.1495 81.1081 62.2838 81.1287C59.514 81.1287 58.4185 82.8892 58.4185 86.6416" fill="black"/>
<path d="M80.1427 94.0183C79.6776 94.1706 79.1891 94.2392 78.6999 94.2208C78.2106 94.2441 77.7212 94.1754 77.2572 94.0183V83.6289C77.2572 82.0131 76.4304 81.0874 74.5701 81.0874C73.916 81.1017 73.2757 81.2779 72.7064 81.6003C72.1372 81.9227 71.6568 82.3812 71.3083 82.9347V94.0183C70.8423 94.1666 70.3545 94.2351 69.8656 94.2208C69.376 94.248 68.8859 94.1792 68.4228 94.0183V72.7768C68.8859 72.6158 69.376 72.5471 69.8656 72.5743C70.3545 72.56 70.8423 72.6284 71.3083 72.7768V80.5708C71.8585 79.9679 72.534 79.4928 73.2875 79.1786C74.0409 78.8645 74.854 78.7191 75.6697 78.7525C78.5635 78.7525 80.1427 80.513 80.1427 83.1082V94.0183Z" fill="black"/>
<path d="M86.0047 87.526C86.2321 90.956 87.6211 92.0718 90.0147 92.0718C91.202 92.0904 92.3745 91.8059 93.4212 91.2453C93.9898 91.7854 94.3225 92.5279 94.3472 93.3116C94.3472 93.3116 92.6936 94.5224 89.5559 94.5224C85.1077 94.5224 83.0283 91.7826 83.0283 86.559C83.0283 81.104 85.5996 78.769 89.4401 78.769C92.9871 78.769 95.1533 80.7279 95.1533 84.5547C95.1685 85.5557 95.0616 86.5549 94.835 87.5301L86.0047 87.526ZM89.4401 81.0296C87.5633 81.0296 86.2321 82.2693 86.0047 85.4762H92.181C92.2381 85.0446 92.2671 84.6098 92.2678 84.1745C92.2678 82.4718 91.5733 81.0296 89.4401 81.0296Z" fill="black"/>
<path d="M100.929 94.0183C100.463 94.1707 99.9749 94.2393 99.4858 94.2208C98.9949 94.2483 98.5034 94.1795 98.0389 94.0183V72.7769C98.5034 72.6157 98.9949 72.5469 99.4858 72.5744C99.9749 72.556 100.463 72.6245 100.929 72.7769V94.0183Z" fill="black"/>
<path d="M106.96 87.526C107.192 90.956 108.576 92.0718 110.974 92.0718C112.162 92.0904 113.334 91.8059 114.381 91.2453C114.948 91.7861 115.279 92.5285 115.303 93.3116C115.303 93.3116 113.649 94.5224 110.511 94.5224C106.067 94.5224 103.988 91.7826 103.988 86.559C103.988 81.104 106.555 78.769 110.395 78.769C113.947 78.769 116.113 80.7279 116.113 84.5547C116.128 85.5557 116.021 86.5549 115.794 87.5301L106.96 87.526ZM110.395 81.0296C108.519 81.0296 107.192 82.2693 106.96 85.4762H113.161C113.218 85.0446 113.247 84.6098 113.248 84.1745C113.248 82.4718 112.553 81.0296 110.416 81.0296" fill="black"/>
<path d="M129.333 72.5578C129.813 72.5359 130.293 72.6046 130.747 72.7603V94.0018C130.359 94.1412 129.949 94.2098 129.536 94.2043C129.095 94.2032 128.658 94.1349 128.238 94.0018L128.035 92.4438C127.208 93.7125 125.869 94.5101 123.703 94.5101C120.396 94.5101 118.279 92.5223 118.279 86.6334C118.279 80.7444 120.412 78.7567 123.719 78.7567C125.741 78.7567 127.027 79.4468 127.878 80.6287V72.7768C128.353 72.623 128.851 72.5544 129.35 72.5743M124.732 81.1164C122.421 81.1164 121.268 82.3272 121.268 86.6292C121.268 90.9313 122.421 92.1421 124.732 92.1421C126.754 92.1421 127.878 90.4395 127.878 88.4476V84.7283C127.849 82.7942 126.725 81.1205 124.732 81.1205" fill="black"/>
<path d="M136.696 87.526C136.927 90.956 138.312 92.0718 140.706 92.0718C141.893 92.0904 143.066 91.8059 144.112 91.2453C144.681 91.7854 145.014 92.5279 145.038 93.3116C145.038 93.3116 143.385 94.5224 140.247 94.5224C135.799 94.5224 133.724 91.7826 133.724 86.559C133.724 81.104 136.291 78.769 140.131 78.769C143.682 78.769 145.845 80.7279 145.845 84.5547C145.86 85.5555 145.754 86.5545 145.53 87.5301L136.696 87.526ZM140.131 81.0296C138.255 81.0296 136.927 82.2693 136.696 85.4762H142.872C142.929 85.0446 142.958 84.6098 142.959 84.1745C142.959 82.4718 142.264 81.0296 140.131 81.0296Z" fill="black"/>
<path d="M155.055 78.7814C155.945 78.77 156.819 79.02 157.569 79.5005C157.544 79.9726 157.417 80.4339 157.197 80.8526C156.978 81.2712 156.67 81.6375 156.295 81.9263C155.783 81.5292 155.153 81.3153 154.505 81.3188C153.381 81.3188 152.285 82.1866 151.533 83.5132V94.0182C151.068 94.1706 150.579 94.2391 150.09 94.2207C149.601 94.2489 149.11 94.1801 148.647 94.0182V79.2401C149.11 79.0782 149.601 79.0094 150.09 79.0376C150.579 79.0192 151.068 79.0877 151.533 79.2401V81.2361C152.628 79.4178 153.902 78.7855 155.055 78.7855" fill="black"/>
<path d="M26.938 95.6507C26.938 96.5268 21.0264 97.2376 13.734 97.2376C6.44159 97.2376 0.525818 96.5268 0.525818 95.6507C0.525818 94.7745 6.43745 94.0679 13.7547 94.0679C21.0719 94.0679 26.9587 94.7787 26.9587 95.6507" fill="black"/>
<path d="M55.5082 13.5899C55.4338 13.2924 53.6106 6.20499 47.7238 2.17573C47.5674 2.06426 47.377 2.01071 47.1854 2.02429C46.9938 2.03786 46.8129 2.11771 46.6738 2.25011L37.4425 10.6764C37.3075 10.7996 37.2157 10.963 37.1807 11.1423C37.1457 11.3217 37.1694 11.5075 37.2482 11.6724C37.2937 11.7633 41.6716 20.8715 42.8002 27.0208C42.8226 27.1557 42.8781 27.283 42.9618 27.3912C43.0455 27.4994 43.1548 27.5851 43.2798 27.6407C43.3904 27.6898 43.5101 27.7152 43.6311 27.7151C43.7767 27.7136 43.9193 27.6737 44.0445 27.5994C44.2926 27.4547 50.1091 23.9462 55.4131 14.2015C55.5172 14.0154 55.5454 13.7963 55.4916 13.5899" fill="black"/>
<path d="M23.9367 61.9205C23.792 58.8004 22.6469 55.5894 25.0984 55.5109C29.3647 55.3787 28.1121 72.3429 25.487 80.2775C22.1467 90.3568 16.6112 97.1012 13.6389 96.0226C11.9853 95.4193 11.5719 93.7704 13.1097 91.9851C16.8014 87.7161 18.4839 84.1621 17.1321 84.1745C15.7803 84.1869 12.8286 90.7618 8.74422 91.7206C7.09062 91.8735 5.85041 90.5593 6.58627 88.7782C7.6115 86.3441 13.767 81.7528 14.4409 76.4755C14.722 74.2976 11.0841 75.0415 9.18243 75.9548C7.69005 76.6904 5.52796 78.3434 4.27536 77.145C2.81192 75.744 4.07279 73.7563 7.58256 71.9751C9.93473 70.7902 12.4244 69.9005 14.9948 69.3261C17.1487 68.6442 14.9948 67.4913 12.4772 66.5408C8.83104 65.1522 7.8182 60.003 11.361 57.0854C13.4033 55.4035 17.7688 55.1514 20.3691 59.2261C22.9694 63.3008 22.8991 64.3588 21.1711 65.7184C19.443 67.078 20.6791 68.0657 20.6791 68.0657C21.5059 68.8674 24.2137 67.3384 23.9574 61.9205" fill="black"/>
<path d="M12.2292 95.5226C11.9081 95.5239 11.5891 95.4694 11.2867 95.3614C10.8286 95.2191 10.4131 94.9652 10.0775 94.6226C9.742 94.2799 9.49691 93.8593 9.36434 93.3984C9.09563 92.357 9.47596 91.171 10.4392 90.0635C12.7584 87.3897 14.0151 85.3151 14.4988 84.1663C14.1474 84.5795 13.7423 85.0961 13.4033 85.5341C11.8075 87.6004 9.61652 90.4313 6.84673 91.0801H6.74338C6.22814 91.1449 5.70491 91.0746 5.22509 90.876C4.74526 90.6775 4.32537 90.3576 4.00666 89.9477C3.71858 89.5275 3.54661 89.0387 3.50813 88.5308C3.46966 88.0228 3.56605 87.5137 3.78756 87.0549C4.20096 86.0879 5.17245 84.9886 6.40852 83.5836C8.54167 81.166 11.1957 78.1616 11.6174 74.963C11.6546 74.682 11.576 74.6283 11.5388 74.5993C10.9973 74.1861 8.98815 74.5291 7.48337 75.2523C7.20639 75.3804 6.90047 75.554 6.56975 75.7358C5.10631 76.5623 3.09718 77.6616 1.67095 76.2896C1.36146 76.0196 1.12389 75.6769 0.979581 75.2925C0.83527 74.908 0.788732 74.4938 0.844146 74.0869C1.06325 72.6363 2.55149 71.1734 5.15592 69.8551C7.56013 68.6587 10.1023 67.762 12.7253 67.1855H12.7873C11.9567 66.6541 11.064 66.2266 10.1291 65.9126C9.1516 65.5334 8.2922 64.9017 7.63857 64.082C6.98495 63.2624 6.5605 62.2841 6.40852 61.247C6.22113 60.0982 6.34335 58.9202 6.7626 57.8343C7.18185 56.7484 7.88299 55.7938 8.79385 55.0687C9.5004 54.5302 10.31 54.1423 11.1725 53.929C12.035 53.7158 12.9322 53.6817 13.8084 53.829C15.2718 54.0604 17.3512 54.8704 18.9635 57.4078C21.477 61.3503 21.9483 63.0818 19.5836 64.9415C19.0338 65.3547 18.9635 65.6564 18.9635 65.768C18.9661 65.826 18.9803 65.8829 19.0051 65.9354C19.03 65.9879 19.065 66.035 19.1082 66.0738C19.1885 66.138 19.2553 66.2175 19.3047 66.3077C19.354 66.3979 19.385 66.497 19.3958 66.5993C19.4065 66.7015 19.3969 66.8049 19.3674 66.9034C19.3379 67.0019 19.2892 67.0936 19.224 67.1731C19.1585 67.2542 19.0778 67.3217 18.9863 67.3716C18.8948 67.4216 18.7943 67.453 18.6907 67.4641C18.587 67.4752 18.4822 67.4659 18.3822 67.4365C18.2822 67.4071 18.1889 67.3583 18.1078 67.2929C17.8852 67.1052 17.7055 66.8719 17.5807 66.6089C17.4559 66.3458 17.3889 66.0591 17.3843 65.768C17.3843 65.0365 17.7977 64.3464 18.6245 63.7017C19.7655 62.8049 20.2781 62.3958 17.6489 58.2508C16.3508 56.2135 14.7179 55.5688 13.5769 55.3869C12.9218 55.2712 12.25 55.291 11.6029 55.4453C10.9558 55.5995 10.3473 55.8849 9.81495 56.2837C9.122 56.8298 8.586 57.5495 8.26143 58.3697C7.93687 59.1899 7.8353 60.0814 7.96705 60.9535C8.07809 61.719 8.3903 62.4414 8.87181 63.0469C9.35332 63.6524 9.9869 64.1193 10.7079 64.4001C13.5397 65.4828 14.6352 66.2887 14.6063 67.2929C14.6063 67.9293 14.1061 68.4046 13.1759 68.698L13.0891 68.7228C10.5975 69.2759 8.18319 70.1323 5.90004 71.2726C2.88221 72.7975 2.48948 73.996 2.43987 74.3266C2.41966 74.4823 2.44072 74.6406 2.50094 74.7857C2.56115 74.9307 2.65842 75.0574 2.783 75.1531C3.32455 75.6738 4.48208 75.1035 5.82563 74.3555C6.17702 74.1613 6.50361 73.9794 6.82193 73.8265C7.8885 73.3182 10.9807 72.2314 12.4814 73.3224C12.7626 73.5318 12.9792 73.8161 13.1064 74.1427C13.2336 74.4694 13.2663 74.8253 13.2007 75.1696C12.717 78.8435 9.8935 82.0504 7.61152 84.625C6.56148 85.8152 5.56932 86.9392 5.2634 87.6666C5.15004 87.8766 5.09382 88.1127 5.10035 88.3513C5.10688 88.5899 5.17593 88.8226 5.30061 89.0262C5.45284 89.2084 5.64852 89.3493 5.86961 89.436C6.0907 89.5227 6.33006 89.5523 6.56562 89.5221C8.76491 88.9766 10.7368 86.4268 12.1755 84.563C13.4157 82.9595 14.1639 81.9884 15.0693 81.9801C15.301 81.9727 15.5298 82.0334 15.7275 82.1546C15.9251 82.2757 16.0829 82.4522 16.1813 82.662C17.0949 84.6374 12.5475 90.0263 11.6339 91.0883C11.0303 91.7826 10.7616 92.4769 10.8939 92.9935C10.9677 93.2045 11.0916 93.3946 11.2551 93.5472C11.4185 93.6998 11.6166 93.8104 11.8323 93.8696C12.0708 93.9309 12.3191 93.9438 12.5627 93.9076C12.8062 93.8714 13.04 93.7868 13.2503 93.6588C16.7187 91.9851 20.6171 84.8316 22.68 78.6327C25.0364 71.5412 26.0327 58.3004 23.8334 55.3498C23.5316 54.9365 23.2753 54.8952 23.0934 54.9034C22.8593 54.8815 22.625 54.9429 22.4319 55.077C22.2004 55.3498 22.3369 56.3664 22.4609 57.2673C22.5518 57.9409 22.6552 58.7095 22.6883 59.5443C22.6933 59.648 22.6778 59.7517 22.6426 59.8493C22.6075 59.947 22.5535 60.0368 22.4836 60.1136C22.4137 60.1904 22.3293 60.2526 22.2353 60.2968C22.1414 60.3409 22.0396 60.3661 21.9359 60.3708C21.7266 60.3776 21.5229 60.3023 21.3684 60.161C21.2139 60.0197 21.1208 59.8236 21.1091 59.6146C21.0801 58.8542 20.9809 58.1227 20.8941 57.4822C20.6957 56.0192 20.5427 54.8662 21.2248 54.0604C21.4574 53.8149 21.7405 53.6228 22.0545 53.4973C22.3685 53.3717 22.706 53.3157 23.0438 53.333C23.4515 53.323 23.8552 53.4166 24.2167 53.6053C24.5783 53.794 24.886 54.0715 25.1108 54.4117C27.8475 58.0855 26.4915 72.2107 24.1889 79.1328C21.5803 86.9847 17.467 93.386 13.949 95.0845C13.4195 95.3485 12.8373 95.4898 12.2457 95.4978" fill="#231F20"/>
<path d="M12.2292 95.5226C11.9081 95.5239 11.5891 95.4694 11.2867 95.3614C10.8286 95.2191 10.4131 94.9652 10.0775 94.6226C9.742 94.2799 9.49691 93.8593 9.36434 93.3984C9.09563 92.357 9.47596 91.171 10.4392 90.0635C12.7584 87.3897 14.0151 85.3151 14.4988 84.1663C14.1474 84.5795 13.7423 85.0961 13.4033 85.5341C11.8075 87.6004 9.61652 90.4313 6.84673 91.0801H6.74338C6.22814 91.1449 5.70491 91.0746 5.22509 90.876C4.74526 90.6775 4.32537 90.3576 4.00666 89.9477C3.71858 89.5275 3.54661 89.0387 3.50813 88.5308C3.46966 88.0228 3.56605 87.5137 3.78756 87.0549C4.20096 86.0879 5.17246 84.9886 6.40852 83.5836C8.54167 81.166 11.1957 78.1616 11.6174 74.963C11.6546 74.682 11.576 74.6283 11.5388 74.5993C10.9973 74.1861 8.98815 74.5291 7.48337 75.2523C7.20639 75.3804 6.90047 75.554 6.56975 75.7358C5.10631 76.5623 3.09718 77.6616 1.67095 76.2896C1.36146 76.0196 1.12389 75.6769 0.979581 75.2925C0.83527 74.908 0.788732 74.4938 0.844146 74.0869C1.06325 72.6363 2.55149 71.1734 5.15592 69.8551C7.56013 68.6587 10.1023 67.762 12.7253 67.1855H12.7873C11.9567 66.6541 11.064 66.2266 10.1291 65.9126C9.1516 65.5334 8.2922 64.9017 7.63857 64.082C6.98495 63.2624 6.5605 62.2841 6.40852 61.247C6.22113 60.0982 6.34335 58.9202 6.7626 57.8343C7.18185 56.7484 7.88299 55.7938 8.79385 55.0687C9.5004 54.5302 10.31 54.1423 11.1725 53.929C12.035 53.7158 12.9322 53.6817 13.8084 53.829C15.2718 54.0604 17.3513 54.8704 18.9635 57.4078C21.477 61.3503 21.9483 63.0818 19.5836 64.9415C19.0338 65.3547 18.9635 65.6564 18.9635 65.768C18.9661 65.826 18.9803 65.8829 19.0051 65.9354C19.03 65.9879 19.065 66.035 19.1082 66.0738C19.1885 66.138 19.2553 66.2175 19.3047 66.3077C19.354 66.3979 19.385 66.497 19.3958 66.5993C19.4065 66.7015 19.3969 66.8049 19.3674 66.9034C19.3379 67.0019 19.2892 67.0936 19.224 67.1731C19.1585 67.2542 19.0778 67.3217 18.9863 67.3716C18.8948 67.4216 18.7943 67.453 18.6907 67.4641C18.587 67.4752 18.4822 67.4659 18.3822 67.4365C18.2822 67.4071 18.1889 67.3583 18.1078 67.2929C17.8852 67.1052 17.7055 66.8719 17.5807 66.6089C17.4559 66.3458 17.3889 66.0591 17.3843 65.768C17.3843 65.0365 17.7977 64.3464 18.6245 63.7017C19.7655 62.8049 20.2781 62.3958 17.6489 58.2508C16.3508 56.2135 14.7179 55.5688 13.5769 55.3869C12.9218 55.2712 12.25 55.291 11.6029 55.4453C10.9558 55.5995 10.3473 55.8849 9.81495 56.2837C9.122 56.8298 8.586 57.5495 8.26143 58.3697C7.93687 59.1899 7.8353 60.0814 7.96705 60.9535C8.07809 61.719 8.3903 62.4414 8.87181 63.0469C9.35332 63.6524 9.9869 64.1193 10.7079 64.4001C13.5397 65.4828 14.6352 66.2887 14.6063 67.2929C14.6063 67.9293 14.1061 68.4046 13.1759 68.698L13.0891 68.7228C10.5975 69.2759 8.18319 70.1323 5.90004 71.2726C2.88221 72.7975 2.48948 73.996 2.43987 74.3266C2.41966 74.4823 2.44072 74.6406 2.50094 74.7857C2.56115 74.9307 2.65842 75.0574 2.783 75.1531C3.32455 75.6738 4.48208 75.1035 5.82563 74.3555C6.17702 74.1613 6.50361 73.9794 6.82193 73.8265C7.8885 73.3182 10.9807 72.2314 12.4814 73.3224C12.7626 73.5318 12.9792 73.8161 13.1064 74.1427C13.2336 74.4694 13.2663 74.8253 13.2007 75.1696C12.717 78.8435 9.8935 82.0504 7.61152 84.625C6.56148 85.8152 5.56932 86.9392 5.2634 87.6666C5.15004 87.8766 5.09382 88.1127 5.10035 88.3513C5.10688 88.5899 5.17593 88.8226 5.30061 89.0262C5.45284 89.2084 5.64852 89.3493 5.86961 89.436C6.0907 89.5227 6.33006 89.5523 6.56562 89.5221C8.76491 88.9766 10.7368 86.4268 12.1755 84.563C13.4157 82.9595 14.1639 81.9884 15.0693 81.9801C15.301 81.9727 15.5298 82.0334 15.7275 82.1546C15.9251 82.2757 16.0829 82.4522 16.1813 82.662C17.0949 84.6374 12.5475 90.0263 11.6339 91.0883C11.0303 91.7826 10.7616 92.4769 10.8939 92.9935C10.9677 93.2045 11.0916 93.3946 11.2551 93.5472C11.4185 93.6998 11.6166 93.8104 11.8323 93.8696C12.0708 93.9309 12.3191 93.9438 12.5627 93.9076C12.8062 93.8714 13.04 93.7868 13.2503 93.6588C16.7187 91.9851 20.6171 84.8316 22.68 78.6327C25.0364 71.5412 26.0327 58.3004 23.8334 55.3498C23.5316 54.9365 23.2753 54.8952 23.0934 54.9034C22.8593 54.8815 22.625 54.9429 22.432 55.077C22.2004 55.3498 22.3369 56.3664 22.4609 57.2673C22.5518 57.9409 22.6552 58.7095 22.6883 59.5443C22.6933 59.648 22.6778 59.7517 22.6426 59.8493C22.6075 59.947 22.5535 60.0368 22.4836 60.1136C22.4137 60.1904 22.3293 60.2526 22.2353 60.2968C22.1414 60.3409 22.0396 60.3661 21.9359 60.3708C21.7266 60.3776 21.5229 60.3023 21.3684 60.161C21.2139 60.0197 21.1208 59.8236 21.1091 59.6146C21.0801 58.8542 20.9809 58.1227 20.8941 57.4822C20.6957 56.0192 20.5427 54.8662 21.2248 54.0604C21.4574 53.8149 21.7405 53.6228 22.0545 53.4973C22.3685 53.3717 22.706 53.3157 23.0438 53.333C23.4515 53.323 23.8551 53.4166 24.2167 53.6053C24.5783 53.794 24.886 54.0715 25.1108 54.4117C27.8475 58.0855 26.4915 72.2107 24.1889 79.1328C21.5803 86.9847 17.467 93.386 13.949 95.0845C13.4195 95.3485 12.8373 95.4898 12.2457 95.4978" stroke="white" stroke-miterlimit="10"/>
<path d="M40.4811 28.7979C40.3667 28.7979 40.2537 28.7724 40.1503 28.7235C40.0355 28.6703 39.935 28.5904 39.8574 28.4904C39.7797 28.3905 39.7271 28.2735 39.7039 28.1491C38.4637 21.2683 33.5483 11.0815 33.5028 10.9782C33.4293 10.8259 33.4068 10.654 33.4388 10.4879C33.4709 10.3219 33.5557 10.1706 33.6806 10.0566L43.9784 0.650861C44.1091 0.530581 44.2768 0.458149 44.454 0.445389C44.6312 0.43263 44.8075 0.480296 44.9541 0.580607C51.4734 5.0438 53.4949 12.8957 53.5776 13.2304C53.6273 13.4212 53.6021 13.6238 53.5073 13.7966C47.6081 24.6198 41.1508 28.5251 40.8779 28.6863C40.7537 28.7623 40.6102 28.801 40.4645 28.7979M35.1689 10.8253C36.1486 12.9122 39.6377 20.5782 41.0143 26.6861C42.043 25.9037 43.0181 25.0532 43.933 24.1405C47.1135 20.9395 49.816 17.2971 51.9571 13.3255C51.5437 11.9452 49.5345 5.9447 44.5572 2.24604L35.1689 10.8253Z" fill="#231F20"/>
<path d="M40.4811 28.7979C40.3667 28.7979 40.2537 28.7724 40.1503 28.7235C40.0355 28.6703 39.935 28.5904 39.8574 28.4904C39.7797 28.3905 39.7271 28.2735 39.7039 28.1491C38.4637 21.2683 33.5483 11.0815 33.5028 10.9782C33.4293 10.8259 33.4068 10.654 33.4388 10.4879C33.4709 10.3219 33.5557 10.1706 33.6806 10.0566L43.9784 0.650861C44.1091 0.530581 44.2768 0.458149 44.454 0.445389C44.6312 0.43263 44.8075 0.480296 44.9541 0.580607C51.4734 5.0438 53.4949 12.8957 53.5776 13.2304C53.6273 13.4212 53.6021 13.6238 53.5073 13.7966C47.6081 24.6198 41.1508 28.5251 40.8779 28.6863C40.7537 28.7623 40.6102 28.801 40.4645 28.7979M35.1689 10.8253C36.1486 12.9122 39.6377 20.5782 41.0143 26.6861C42.043 25.9037 43.018 25.0532 43.933 24.1405C47.1135 20.9395 49.816 17.2971 51.9571 13.3255C51.5437 11.9452 49.5345 5.9447 44.5572 2.24604L35.1689 10.8253Z" stroke="white" stroke-miterlimit="10"/>
<path d="M40.4769 28.7979C40.344 28.7961 40.2137 28.7609 40.0979 28.6957C39.9822 28.6305 39.8846 28.5373 39.8143 28.4246C39.7439 28.3119 39.703 28.1833 39.6953 28.0507C39.6875 27.9181 39.7132 27.7856 39.77 27.6655C43.2921 20.4087 44.5654 8.3457 43.7262 1.32444C43.7092 1.21936 43.7137 1.11192 43.7393 1.0086C43.7649 0.905277 43.8112 0.808202 43.8753 0.723214C43.9394 0.638227 44.0201 0.567082 44.1124 0.514061C44.2047 0.461039 44.3069 0.427236 44.4126 0.414685C44.5183 0.402134 44.6255 0.411095 44.7277 0.441027C44.8299 0.47096 44.925 0.521246 45.0072 0.588861C45.0895 0.656477 45.1572 0.740024 45.2063 0.834477C45.2554 0.92893 45.2849 1.03234 45.293 1.13848C46.0413 7.38694 45.2641 19.9624 41.1879 28.3515C41.1234 28.4853 41.0224 28.5981 40.8967 28.677C40.7709 28.756 40.6254 28.7978 40.4769 28.7979Z" fill="#231F20" stroke="white" stroke-miterlimit="10"/>
<path d="M22.742 52.5354C22.5583 52.535 22.3804 52.471 22.2387 52.3542C22.097 52.2373 22.0002 52.075 21.9648 51.8948C21.7043 50.3307 21.3551 48.7826 20.9189 47.2581C19.3186 47.8809 17.676 48.3891 16.0035 48.7789C10.1911 50.1385 5.48661 49.1921 3.09302 46.2332C2.32851 45.3053 1.84463 44.1787 1.69818 42.9855C1.55173 41.7924 1.74878 40.5822 2.26622 39.4971C3.47335 36.9845 6.17699 35.4844 9.50074 35.4844C16.6195 35.4844 20.0549 39.8814 21.9028 45.1339C28.7818 42.0634 34.6645 36.7903 38.8522 29.8434C38.9619 29.6642 39.1382 29.5359 39.3425 29.4866C39.5468 29.4374 39.7623 29.4714 39.9415 29.581C40.1208 29.6906 40.2492 29.8669 40.2984 30.0711C40.3476 30.2753 40.3137 30.4907 40.204 30.6699C35.8179 37.9639 29.6334 43.4809 22.3906 46.6713C22.8551 48.3116 23.2263 49.977 23.5026 51.6593C23.5204 51.7614 23.5178 51.8659 23.4949 51.967C23.4721 52.068 23.4295 52.1636 23.3695 52.2481C23.3096 52.3326 23.2335 52.4044 23.1457 52.4594C23.0578 52.5144 22.96 52.5515 22.8577 52.5685C22.8137 52.5725 22.7694 52.5725 22.7254 52.5685M9.49661 37.0754C6.75576 37.0754 4.63501 38.2119 3.68419 40.1955C3.29424 41.0114 3.14545 41.9216 3.2553 42.8192C3.36515 43.7167 3.72908 44.5642 4.30429 45.262C6.30101 47.7416 10.4268 48.4772 15.6232 47.2622C17.2552 46.8796 18.8577 46.3811 20.4187 45.7704C17.7688 38.2491 13.4983 37.0919 9.49661 37.0919" fill="#231F20"/>
<path d="M22.742 52.5354C22.5583 52.535 22.3804 52.471 22.2387 52.3542C22.097 52.2373 22.0002 52.075 21.9648 51.8948C21.7043 50.3307 21.3551 48.7826 20.9189 47.2581C19.3186 47.8809 17.676 48.3891 16.0035 48.7789C10.1911 50.1385 5.48661 49.1921 3.09302 46.2332C2.32851 45.3053 1.84463 44.1787 1.69818 42.9855C1.55173 41.7924 1.74878 40.5822 2.26622 39.4971C3.47335 36.9845 6.17699 35.4844 9.50074 35.4844C16.6195 35.4844 20.0549 39.8814 21.9028 45.1339C28.7818 42.0634 34.6645 36.7903 38.8522 29.8434C38.9619 29.6642 39.1382 29.5359 39.3425 29.4866C39.5468 29.4374 39.7623 29.4714 39.9415 29.581C40.1208 29.6906 40.2492 29.8669 40.2984 30.0711C40.3476 30.2753 40.3137 30.4907 40.204 30.6699C35.8179 37.9639 29.6334 43.4809 22.3906 46.6713C22.8551 48.3116 23.2263 49.977 23.5026 51.6593C23.5204 51.7614 23.5178 51.8659 23.4949 51.967C23.4721 52.068 23.4295 52.1636 23.3695 52.2481C23.3096 52.3326 23.2335 52.4044 23.1457 52.4594C23.0578 52.5144 22.96 52.5515 22.8577 52.5685C22.8137 52.5725 22.7694 52.5725 22.7254 52.5685M9.49661 37.0754C6.75576 37.0754 4.63501 38.2119 3.68419 40.1955C3.29424 41.0114 3.14545 41.9216 3.2553 42.8192C3.36515 43.7167 3.72908 44.5642 4.30429 45.262C6.30101 47.7416 10.4268 48.4772 15.6232 47.2622C17.2552 46.8796 18.8577 46.3811 20.4187 45.7704C17.7688 38.2491 13.4983 37.0919 9.49661 37.0919" stroke="white" stroke-miterlimit="10"/>
<path d="M52.8128 14.2098C52.7091 14.2092 52.6065 14.1881 52.511 14.1479C42.238 9.87477 34.4247 11.3956 34.3668 11.3956C34.1623 11.4378 33.9495 11.397 33.775 11.2823C33.6006 11.1676 33.4789 10.9883 33.4367 10.7839C33.3945 10.5795 33.4352 10.3667 33.5499 10.1923C33.6647 10.018 33.844 9.8963 34.0485 9.8541C34.3875 9.78385 42.3992 8.22173 53.1187 12.6808C53.2866 12.7515 53.4248 12.8781 53.51 13.0391C53.5951 13.2001 53.622 13.3856 53.586 13.5641C53.55 13.7427 53.4533 13.9033 53.3124 14.0187C53.1715 14.1341 52.995 14.1973 52.8128 14.1974" fill="#231F20"/>
<path d="M52.8128 14.2098C52.7091 14.2092 52.6065 14.1881 52.511 14.1479C42.238 9.87477 34.4247 11.3956 34.3668 11.3956C34.1623 11.4378 33.9495 11.397 33.775 11.2823C33.6006 11.1676 33.4789 10.9883 33.4367 10.7839C33.3945 10.5795 33.4352 10.3667 33.5499 10.1923C33.6647 10.018 33.844 9.8963 34.0485 9.8541C34.3875 9.78385 42.3992 8.22173 53.1187 12.6808C53.2866 12.7515 53.4248 12.8781 53.51 13.0391C53.5951 13.2001 53.622 13.3856 53.586 13.5641C53.55 13.7427 53.4533 13.9033 53.3124 14.0187C53.1715 14.1341 52.995 14.1973 52.8128 14.1974" stroke="white" stroke-miterlimit="10"/>
</svg>
