<svg width="122" height="125" viewBox="0 0 122 125" fill="none" xmlns="http://www.w3.org/2000/svg">
<path d="M60.9742 124.227C44.8557 124.227 29.6915 117.77 18.2898 106.034C6.88803 94.2969 0.614525 78.7331 0.614525 62.1561C0.614525 45.579 6.89227 29.9898 18.2898 18.2763C29.6873 6.56279 44.8493 0.0830078 60.9742 0.0830078C77.0991 0.0830078 92.259 6.54163 103.659 18.2763C115.058 30.011 121.334 45.5769 121.334 62.1561C121.334 78.7352 115.058 94.3117 103.659 106.044C92.259 117.777 77.0991 124.238 60.9742 124.238M60.9742 0.692272C28.0245 0.681695 1.21473 28.2594 1.21473 62.1561C1.21473 96.0527 28.0245 123.628 60.9742 123.628C93.9239 123.628 120.734 96.0506 120.734 62.1561C120.734 28.2615 93.9323 0.681695 60.9742 0.681695" fill="#A31916"/>
<path fill-rule="evenodd" clip-rule="evenodd" d="M60.9742 4.42822C91.9726 4.42822 117.101 30.2733 117.101 62.156C117.101 94.0387 91.9726 119.882 60.9742 119.882C29.9757 119.882 4.85622 94.0366 4.85622 62.156C4.85622 30.2754 29.9778 4.42822 60.9742 4.42822Z" fill="#F3963B"/>
<path fill-rule="evenodd" clip-rule="evenodd" d="M60.9742 20.5864C83.2962 20.5864 101.391 39.2028 101.391 62.156C101.391 85.1092 83.2962 103.726 60.9742 103.726C38.6521 103.726 20.5506 85.1135 20.5506 62.156C20.5506 39.1986 38.6521 20.5864 60.9742 20.5864Z" fill="#F3963B"/>
<path fill-rule="evenodd" clip-rule="evenodd" d="M60.9742 4.42822C91.9727 4.42822 117.849 30.2839 117.101 62.156L117.033 64.9908L5.44372 65.012H4.91774L4.85624 62.156C4.09273 30.2839 29.9778 4.42822 60.9742 4.42822Z" fill="#A31916"/>
<path fill-rule="evenodd" clip-rule="evenodd" d="M60.9742 20.5864C83.2962 20.5864 101.391 39.2028 101.391 62.156C101.391 85.1092 83.2962 103.726 60.9742 103.726C38.6521 103.726 20.5506 85.1135 20.5506 62.156C20.5506 39.1986 38.6521 20.5864 60.9742 20.5864Z" fill="white"/>
<path d="M60.9742 103.755C55.5563 103.764 50.1956 102.651 45.231 100.487C40.402 98.3822 36.0339 95.3527 32.3744 91.5701C28.6644 87.7591 25.7219 83.2736 23.7064 78.3567C19.4674 67.976 19.4674 56.3532 23.7064 45.9726C25.7204 41.0518 28.663 36.5625 32.3744 32.7486C36.0334 28.966 40.4016 25.9371 45.231 23.8339C50.1983 21.6771 55.5578 20.5641 60.9752 20.5641C66.3927 20.5641 71.7521 21.6771 76.7194 23.8339C81.5485 25.9376 85.9167 28.9664 89.5761 32.7486C93.2861 36.5636 96.2285 41.0526 98.244 45.9726C102.481 56.3537 102.481 67.9756 98.244 78.3567C96.2279 83.2758 93.2856 87.764 89.5761 91.5786C85.9163 95.3608 81.5483 98.3903 76.7194 100.495C71.7542 102.66 66.3927 103.773 60.9742 103.764M60.9742 20.6246C38.7051 20.6246 20.5888 39.258 20.5888 62.1646C20.5888 85.0713 38.7051 103.696 60.9742 103.696C83.2432 103.696 101.355 85.0607 101.355 62.1562C101.355 39.2516 83.2432 20.6162 60.9742 20.6162" fill="#FAEBA7"/>
<path fill-rule="evenodd" clip-rule="evenodd" d="M60.9742 20.5864C83.2962 20.5864 101.391 39.2028 101.391 62.156C101.391 85.1092 83.2962 103.726 60.9742 103.726C38.6521 103.726 20.5506 85.1135 20.5506 62.156C20.5506 39.1986 38.6521 20.5864 60.9742 20.5864Z" fill="#FAEBA7"/>
<mask id="mask0_2033_204" style="mask-type:luminance" maskUnits="userSpaceOnUse" x="20" y="20" width="82" height="84">
<path d="M20.5506 62.1559C20.5506 85.1134 38.6458 103.726 60.9678 103.726C83.2898 103.726 101.385 85.1091 101.385 62.1559C101.385 39.2028 83.2962 20.5842 60.9742 20.5842C38.6521 20.5842 20.5506 39.1964 20.5506 62.1559Z" fill="white"/>
</mask>
<g mask="url(#mask0_2033_204)">
<path fill-rule="evenodd" clip-rule="evenodd" d="M29.0849 87.8869L39.8504 80.1357C42.3361 75.6297 46.4251 65.3441 52.3974 66.1226C52.9637 66.1967 58.005 63.3725 58.005 63.3725V59.0357C52.1917 59.4334 50.4908 57.2565 50.0475 57.1508L49.7739 57.0852C48.1451 56.7002 47.2183 55.983 46.8938 55.1664C45.0041 55.2214 43.9797 54.6777 43.3138 53.8971L47.4346 51.3754L47.7633 48.1303C39.4284 44.0072 44.1282 33.271 52.2617 36.3131L52.4929 31.2634L57.0803 29.0506C58.9403 28.93 60.6857 30.671 62.3252 33.7216C72.4544 28.4624 78.2104 29.406 77.5275 39.48C80.6727 41.0476 79.6483 43.5269 76.8128 43.8548C75.2582 43.9733 74.0047 43.7512 73.1924 43.0256L73.0164 46.1184L74.1468 47.7008C79.0524 48.528 76.0153 54.4302 72.4501 51.2972L72.2381 57.1021L68.7662 59.7401C68.7026 62.1603 69.4173 63.8823 71.2243 64.6206C77.4639 66.129 81.6165 69.9622 83.1775 76.7022C84.8254 81.4388 89.2389 85.1769 93.6969 86.552L101.008 92.0692C101.008 92.0692 87.0438 98.1894 78.7194 102.095C70.1745 106.114 59.8544 106.89 59.2393 106.653C58.0219 106.188 42.5694 101.703 40.7878 100.863C39.0063 100.024 32.5483 95.82 32.5483 95.82L24.9132 91.6355L29.0849 87.8869Z" fill="white"/>
<path d="M59.7632 106.916C59.5597 106.926 59.3558 106.91 59.1566 106.867C58.7324 106.7 56.3125 105.974 53.5257 105.132C48.319 103.563 41.8398 101.61 40.6945 101.069C38.9215 100.222 32.6904 96.1818 32.4232 96.0104L24.7987 91.8344C24.7675 91.8169 24.7409 91.7923 24.721 91.7625C24.7012 91.7328 24.6887 91.6988 24.6845 91.6633C24.6804 91.6278 24.6847 91.5918 24.6972 91.5583C24.7097 91.5248 24.7299 91.4947 24.7563 91.4706L28.9301 87.7155L28.9492 87.6986L39.6765 79.9749C40.0413 79.3106 40.4485 78.5089 40.8791 77.6627C43.3965 72.7039 47.2013 65.2087 52.4271 65.8941C52.7962 65.8941 55.4133 64.5593 57.7781 63.2413V59.2769C53.0846 59.5455 51.0571 58.1049 50.2851 57.5591C50.1928 57.4878 50.095 57.4241 49.9924 57.3687L49.7188 57.3052C47.8333 56.8567 47.0592 56.0465 46.7496 55.4013C45.0868 55.4161 43.9394 54.9887 43.1441 54.041C43.1235 54.0158 43.1083 53.9867 43.0995 53.9554C43.0908 53.924 43.0886 53.8912 43.0932 53.8591C43.0986 53.8272 43.1108 53.7968 43.1291 53.7702C43.1475 53.7435 43.1714 53.7211 43.1993 53.7046L47.2289 51.2401L47.5301 48.2593C43.1865 46.0338 42.4888 42.0757 43.6934 39.3108C44.8281 36.7002 47.9139 34.5953 52.0581 35.9979L52.2702 31.2507C52.2722 31.2102 52.285 31.1709 52.3074 31.1371C52.3298 31.1032 52.3609 31.076 52.3974 31.0582L56.9849 28.8475C57.0105 28.8342 57.0387 28.8263 57.0676 28.8242C58.8979 28.7036 60.6476 30.2078 62.4185 33.4191C68.5244 30.2712 72.7238 29.5393 75.2179 31.1809C77.1648 32.4502 78.0217 35.2003 77.7629 39.3425C79.15 40.0723 79.8414 41.056 79.6717 42.0588C79.4872 43.1165 78.378 43.8972 76.8488 44.0727C75.3409 44.1912 74.2105 43.9881 73.4045 43.4592L73.2561 46.0465L74.2889 47.4914C75.7735 47.7664 76.7216 48.5491 76.9103 49.6407C76.9841 50.129 76.9071 50.6282 76.6897 51.0718C76.4722 51.5154 76.1246 51.8825 75.693 52.1243C74.7831 52.6299 73.7036 52.484 72.6792 51.7351L72.4671 57.0915C72.4669 57.1246 72.4589 57.1571 72.4438 57.1865C72.4287 57.2158 72.4069 57.2413 72.3802 57.2608L68.9868 59.8628C68.9465 62.2682 69.7015 63.7575 71.2922 64.4175C77.8074 65.9978 81.8774 70.1124 83.3917 76.6493C84.9144 81.0094 89.0798 84.8998 93.7606 86.3468C93.7855 86.3554 93.8091 86.3675 93.8305 86.3828L101.143 91.8958C101.175 91.9193 101.2 91.9506 101.215 91.9866C101.231 92.0226 101.236 92.0621 101.232 92.1011C101.227 92.14 101.213 92.1771 101.189 92.2087C101.166 92.2402 101.135 92.2651 101.099 92.2808C100.959 92.3421 87.0417 98.4454 78.817 102.306C71.1819 105.892 62.2085 106.92 59.7632 106.92M25.2971 91.5996L32.6586 95.6191C32.7371 95.6698 39.1421 99.8331 40.8875 100.658C42.0031 101.185 48.7347 103.216 53.6551 104.699C56.567 105.577 58.8682 106.268 59.3199 106.442C59.8671 106.613 69.9242 105.974 78.6197 101.889C86.117 98.3713 98.3437 92.9916 100.562 92.0142L93.593 86.7636C88.7914 85.27 84.5242 81.2633 82.9633 76.7826V76.7594C81.4787 70.3007 77.6166 66.404 71.1776 64.847L71.1458 64.8364C69.3516 64.1023 68.4778 62.3888 68.5478 59.7423C68.5486 59.7091 68.5569 59.6765 68.5719 59.6468C68.587 59.6172 68.6084 59.5913 68.6347 59.5709L72.0281 56.9667L72.2402 51.2676C72.2421 51.2251 72.256 51.184 72.2803 51.149C72.3045 51.114 72.3382 51.0866 72.3774 51.0698C72.4165 51.053 72.4597 51.0476 72.5018 51.0541C72.5439 51.0607 72.5834 51.0789 72.6156 51.1068C73.5891 51.9678 74.6304 52.1942 75.4703 51.7287C75.8221 51.5333 76.1058 51.2353 76.2831 50.8746C76.4605 50.5139 76.5232 50.1078 76.4628 49.7106C76.3059 48.7924 75.4512 48.1366 74.1193 47.9124C74.0606 47.9018 74.0083 47.8693 73.9729 47.8214L72.8404 46.2369C72.8104 46.196 72.7961 46.1457 72.8001 46.0952L72.9761 43.0023C72.9784 42.96 72.9926 42.9191 73.0172 42.8845C73.0417 42.8499 73.0756 42.823 73.1149 42.8068C73.1542 42.7906 73.1973 42.7859 73.2392 42.7932C73.2811 42.8004 73.32 42.8194 73.3515 42.8479C74.0705 43.4825 75.1988 43.7427 76.8043 43.62C78.1213 43.4677 79.0757 42.8225 79.2263 41.9763C79.3769 41.1301 78.7173 40.3093 77.4342 39.6704C77.3957 39.6504 77.3637 39.6199 77.3419 39.5824C77.3201 39.545 77.3095 39.5021 77.3112 39.4588C77.5848 35.4055 76.8 32.7464 74.9782 31.5574C72.6262 30.0237 68.4036 30.817 62.4397 33.9162C62.3871 33.9439 62.3256 33.9496 62.2688 33.9322C62.2119 33.9147 62.1643 33.8755 62.1364 33.8231C60.4609 30.7218 58.777 29.1881 57.1482 29.2685L52.7156 31.3924L52.4908 36.3089C52.491 36.3452 52.4824 36.381 52.4657 36.4132C52.4489 36.4455 52.4246 36.4732 52.3948 36.494C52.3649 36.5148 52.3305 36.5281 52.2944 36.5327C52.2583 36.5373 52.2216 36.5331 52.1875 36.5204C48.1748 35.0184 45.1886 37.0049 44.1049 39.4821C42.9702 42.0884 43.6637 45.8392 47.8694 47.9187C47.9104 47.9392 47.9441 47.9716 47.9661 48.0117C47.9881 48.0517 47.9972 48.0975 47.9924 48.143L47.6637 51.3903C47.6601 51.4247 47.6487 51.4578 47.6304 51.4872C47.612 51.5165 47.5871 51.5413 47.5576 51.5595L43.668 53.9373C44.3891 54.6629 45.4219 54.9824 46.8917 54.9401C46.9375 54.9396 46.9824 54.9532 47.0203 54.9789C47.0582 55.0046 47.0873 55.0412 47.1038 55.0839C47.424 55.892 48.3911 56.5267 49.8248 56.8673L50.1005 56.9308C50.264 56.9913 50.4155 57.0801 50.548 57.1931C51.3667 57.7727 53.2861 59.133 57.9901 58.8114C58.0209 58.8094 58.0517 58.8137 58.0807 58.8241C58.1098 58.8344 58.1363 58.8506 58.1588 58.8716C58.1813 58.8927 58.1992 58.9181 58.2114 58.9463C58.2236 58.9745 58.2299 59.005 58.2298 59.0357V63.3788C58.2303 63.4189 58.2199 63.4583 58.1997 63.4929C58.1795 63.5275 58.1504 63.5561 58.1153 63.5756C56.917 64.2462 52.9616 66.4294 52.3699 66.3469C47.4558 65.7122 43.7401 73.0276 41.282 77.8721C40.8388 78.7416 40.4231 79.5645 40.0477 80.2436C40.0319 80.2731 40.0094 80.2985 39.9819 80.3176L29.2228 88.0625L25.2971 91.5996Z" fill="#12100B"/>
<path d="M64.9338 69.3297C64.5211 69.3292 64.1091 69.2959 63.7016 69.2303C60.8703 68.7649 57.9286 66.6113 57.7844 63.3894L58.234 63.3704C58.3677 66.3511 61.1227 68.3503 63.7759 68.786C66.3209 69.2091 69.551 68.3079 71.0143 64.555L71.4385 64.7179C70.1066 68.1408 67.3919 69.3361 64.9381 69.3361M50.2745 57.1804L49.8291 57.1191C49.8461 57.0027 50.2533 54.2314 51.8375 52.1899L52.1938 52.465C50.6753 54.4133 50.2851 57.1529 50.2851 57.1804M47.1356 55.1686H46.6838C46.6923 54.9321 46.758 54.7012 46.8755 54.4956C46.9929 54.29 47.1586 54.1159 47.3583 53.9881L47.5916 54.3731C47.457 54.4603 47.3453 54.5784 47.266 54.7176C47.1866 54.8567 47.1419 55.0128 47.1356 55.1728M73.0991 43.216C73.0292 43.1779 71.3813 42.2619 70.9125 40.5081C70.8638 40.3262 70.8192 40.157 70.7789 39.9983C70.4417 38.7015 70.3017 38.1663 69.3495 37.3095C68.306 36.3744 66.1576 35.9873 64.5054 36.9985L64.27 36.6156C66.1236 35.4817 68.4608 35.909 69.6506 36.9753C70.7111 37.9209 70.8744 38.5788 71.2137 39.8862C71.2561 40.0427 71.2985 40.212 71.3473 40.3918C71.7715 41.9573 73.3006 42.814 73.3155 42.8225L73.0991 43.216ZM54.7219 39.1034C54.5501 38.7988 53.0358 37.3264 52.1217 36.4718L52.4314 36.1439C52.6774 36.3744 54.8534 38.418 55.1164 38.8813L54.7219 39.1034ZM57.479 36.9224C57.2534 36.9233 57.0282 36.9021 56.8067 36.8589L56.9 36.4189C57.8045 36.5591 58.7299 36.3899 59.5257 35.9387C60.4928 35.4013 62.1513 33.582 62.1682 33.5651L62.5012 33.8655C62.4312 33.9437 60.777 35.7694 59.7441 36.33C59.0509 36.714 58.2719 36.9177 57.479 36.9224Z" fill="#12100B"/>
<path fill-rule="evenodd" clip-rule="evenodd" d="M74.4777 47.8002C74.9299 47.8002 75.3719 47.9339 75.7479 48.1845C76.1238 48.4351 76.4169 48.7913 76.5899 49.208C76.763 49.6247 76.8082 50.0832 76.72 50.5256C76.6318 50.968 76.4141 51.3743 76.0943 51.6932C75.7746 52.0122 75.3672 52.2294 74.9237 52.3174C74.4802 52.4054 74.0205 52.3602 73.6027 52.1876C73.185 52.015 72.8279 51.7227 72.5767 51.3477C72.3255 50.9726 72.1914 50.5317 72.1914 50.0807C72.1914 49.4759 72.4323 48.8958 72.861 48.4681C73.2898 48.0404 73.8713 47.8002 74.4777 47.8002Z" fill="white"/>
<path d="M74.4777 52.5876C73.9806 52.588 73.4944 52.4413 73.0809 52.1661C72.6673 51.8909 72.3448 51.4996 72.1543 51.0415C71.9638 50.5835 71.9137 50.0794 72.0104 49.593C72.1071 49.1065 72.3463 48.6597 72.6977 48.3088C73.0491 47.958 73.4969 47.7191 73.9845 47.6222C74.4721 47.5253 74.9775 47.5748 75.4369 47.7645C75.8962 47.9542 76.2889 48.2755 76.5651 48.6878C76.8414 49.1001 76.9888 49.5848 76.9888 50.0807C76.9877 50.7449 76.7228 51.3815 76.2522 51.8514C75.7816 52.3212 75.1436 52.5859 74.4777 52.5876ZM74.4777 48.0266C74.0698 48.0262 73.671 48.1464 73.3316 48.3722C72.9923 48.598 72.7277 48.9191 72.5714 49.295C72.4152 49.6708 72.3742 50.0844 72.4536 50.4835C72.5331 50.8826 72.7295 51.2491 73.0179 51.5368C73.3063 51.8245 73.6739 52.0204 74.0739 52.0997C74.474 52.179 74.8887 52.1381 75.2655 51.9822C75.6422 51.8263 75.9642 51.5624 76.1905 51.2239C76.4169 50.8854 76.5375 50.4876 76.5371 50.0807C76.536 49.5363 76.3186 49.0144 75.9327 48.6295C75.5467 48.2445 75.0235 48.0277 74.4777 48.0266Z" fill="#12100B"/>
<path fill-rule="evenodd" clip-rule="evenodd" d="M65.6062 47.6458C66.0584 47.6458 66.5004 47.7795 66.8764 48.0301C67.2523 48.2807 67.5454 48.6368 67.7184 49.0536C67.8915 49.4703 67.9368 49.9288 67.8485 50.3712C67.7603 50.8135 67.5426 51.2199 67.2228 51.5388C66.9031 51.8578 66.4957 52.075 66.0522 52.163C65.6087 52.2509 65.149 52.2058 64.7312 52.0332C64.3135 51.8606 63.9564 51.5683 63.7052 51.1932C63.454 50.8182 63.3199 50.3773 63.3199 49.9263C63.3199 49.3214 63.5608 48.7414 63.9895 48.3137C64.4183 47.886 64.9998 47.6458 65.6062 47.6458Z" fill="white"/>
<path d="M65.6061 52.431C65.1089 52.4314 64.6227 52.2847 64.2091 52.0094C63.7954 51.7341 63.473 51.3426 63.2825 50.8844C63.092 50.4263 63.0421 49.922 63.139 49.4356C63.2359 48.9491 63.4753 48.5022 63.8269 48.1515C64.1785 47.8008 64.6265 47.562 65.1142 47.4653C65.6019 47.3686 66.1074 47.4185 66.5668 47.6085C67.0261 47.7985 67.4186 48.1201 67.6946 48.5327C67.9705 48.9453 68.1176 49.4302 68.1172 49.9262C68.1161 50.5902 67.8512 51.2266 67.3805 51.6961C66.9098 52.1656 66.2718 52.4299 65.6061 52.431ZM65.6061 47.87C65.1983 47.8695 64.7995 47.9898 64.4603 48.2155C64.121 48.4412 63.8564 48.7622 63.7001 49.1379C63.5437 49.5135 63.5026 49.9271 63.5819 50.3261C63.6612 50.7251 63.8574 51.0917 64.1456 51.3795C64.4338 51.6673 64.8011 51.8633 65.201 51.9428C65.601 52.0223 66.0156 51.9817 66.3924 51.8262C66.7692 51.6706 67.0913 51.407 67.3179 51.0688C67.5445 50.7306 67.6655 50.333 67.6655 49.9262C67.6649 49.3814 67.4478 48.859 67.0618 48.4736C66.6758 48.0881 66.1523 47.8711 65.6061 47.87Z" fill="#12100B"/>
<path d="M68.7662 59.9728C68.7492 59.9728 67.0271 59.9728 62.5076 59.8015C61.068 59.7368 59.674 59.2787 58.4779 58.4772L58.2234 59.1118L57.7992 58.9468L58.0898 58.217C56.9107 57.356 55.9067 56.2791 55.1312 55.0437L55.5214 54.8152C55.5469 54.8597 58.1343 59.2007 62.5203 59.3615C67.0292 59.5265 68.7471 59.5328 68.762 59.5328L68.7662 59.9728ZM67.0695 48.1578L66.6941 47.9102C67.8839 46.1248 69.4258 45.1199 70.9359 45.1601C71.869 45.1897 73.2158 45.6297 74.342 47.5675L73.9517 47.7918C73.1437 46.3998 72.096 45.6467 70.921 45.6107C69.5806 45.5705 68.1639 46.495 67.0653 48.1493" fill="#12100B"/>
<path fill-rule="evenodd" clip-rule="evenodd" d="M46.9171 87.7811C46.9171 87.7811 50.4314 98.0456 51.8799 98.3692L60.936 98.695L61.0823 93.9605C61.0823 93.9605 64.6645 89.6618 64.6645 89.372C64.6645 89.0822 64.3018 86.3722 64.3018 86.3722C64.3018 86.3722 65.0271 85.0712 65.2435 84.2398L66.077 83.9521L66.0409 75.7482L63.7589 74.627L58.4694 77.339L58.4376 84.28C56.1768 86.9201 52.0751 87.8446 46.9171 87.7854" fill="white"/>
<path d="M61.1545 98.9278L51.8227 98.5894C50.3254 98.253 47.2883 89.5879 46.6944 87.8553L46.5905 87.5528H46.9108C52.4738 87.6141 56.1641 86.5141 58.2043 84.1891L58.2404 77.1953L63.7546 74.3711L66.27 75.6065V75.7441L66.3081 84.1087L65.4344 84.4113C65.194 85.1034 64.8946 85.7736 64.5394 86.4146C64.6051 86.9076 64.8935 89.0929 64.8935 89.3763C64.8935 89.4673 64.8935 89.7444 61.305 94.0495L61.1545 98.9278ZM51.9118 98.1451L60.7176 98.4624L60.8597 93.8781L60.9084 93.8168C62.5139 91.8917 64.2764 89.6958 64.4418 89.3425C64.4269 89.0442 64.2297 87.4385 64.0834 86.4019L64.0728 86.3279L64.1088 86.2623C64.1088 86.2496 64.8235 84.9782 65.0293 84.1828L65.0611 84.0664L65.8564 83.7914L65.8204 75.8879L63.7652 74.8788L58.6985 77.4766L58.6625 84.3605L58.6094 84.4218C56.5458 86.8335 52.864 88.0182 47.3689 88.0182H47.2374C48.5926 91.9276 50.9637 97.8743 51.916 98.1536" fill="#12100B"/>
<path d="M63.6359 87.8764H61.0908L58.268 84.4345L58.6179 84.1489L61.3029 87.4279H63.392L64.1194 86.2665L64.5012 86.5035L63.6359 87.8764ZM64.0092 81.7415V81.293H65.9582V81.7415H64.0092ZM64.0261 79.9031V79.4525H65.9752V79.9031H64.0261ZM64.1046 77.9991V77.5316H66.0558V77.9801L64.1046 77.9991ZM63.5383 74.6503L63.1947 47.6882H63.6444L63.9879 74.6503H63.5383Z" fill="#12100B"/>
</g>
<path d="M10.9919 49.7973C11.0513 49.6513 11.1064 49.5308 11.1552 49.425C11.2029 49.3227 11.2575 49.2238 11.3185 49.1288C11.3475 49.0811 11.386 49.0398 11.4316 49.0074C11.4772 48.975 11.5289 48.9523 11.5836 48.9405C11.7073 48.9225 11.8333 48.9283 11.9548 48.9575C12.1393 48.9998 12.345 49.0527 12.5719 49.114L13.3651 49.3256L14.4256 49.6323L15.3651 49.901L16.2559 50.1569C16.5358 50.2394 16.7818 50.3114 16.9897 50.3685C17.1975 50.4256 17.3545 50.4806 17.4563 50.5166C17.5696 50.5557 17.6784 50.6067 17.7808 50.6689C17.8524 50.7121 17.9087 50.7764 17.942 50.8529C17.9721 50.9457 17.9822 51.0437 17.9716 51.1407C17.9694 51.2299 17.9616 51.3189 17.9483 51.4072C17.9356 51.5066 17.9144 51.6188 17.8911 51.7563C17.9175 51.7921 17.9546 51.8188 17.9971 51.8324C18.0544 51.8558 18.1142 51.8728 18.1753 51.8832C18.2178 51.8984 18.2642 51.8984 18.3067 51.8832C18.3492 51.7372 18.3895 51.5764 18.4319 51.4072C18.4743 51.238 18.5273 51.0391 18.5846 50.8106C18.6418 50.5822 18.7203 50.3029 18.8136 49.9644C18.9296 49.5653 19.0342 49.2219 19.1275 48.9342C19.2187 48.6444 19.2993 48.3947 19.3693 48.1768C19.3461 48.14 19.312 48.1112 19.2717 48.0943C19.2183 48.0635 19.1614 48.0394 19.1021 48.0224C19.0595 48.0064 19.0135 48.0013 18.9685 48.0076C18.9091 48.1388 18.8518 48.2657 18.7945 48.3884C18.7493 48.4924 18.6961 48.5928 18.6355 48.6888C18.5888 48.783 18.5149 48.861 18.4234 48.913C18.3443 48.951 18.2562 48.9664 18.1689 48.9575C18.0757 48.9507 17.9834 48.9351 17.8932 48.9109C17.6556 48.8559 17.2866 48.7565 16.7925 48.619C16.2983 48.4815 15.6896 48.308 14.9749 48.1028L13.9399 47.8066L13.0916 47.5549C12.8455 47.4808 12.6483 47.4174 12.5062 47.3687C12.4039 47.3378 12.304 47.2996 12.2072 47.2545C12.1313 47.2228 12.0668 47.1692 12.0218 47.1005C11.9768 47.0319 11.9535 46.9514 11.9548 46.8695C11.9532 46.7675 11.9603 46.6656 11.976 46.5648C11.9908 46.4485 12.0078 46.3215 12.029 46.184C11.9969 46.1541 11.9585 46.1317 11.9166 46.1185C11.8617 46.098 11.8048 46.0831 11.7469 46.074C11.7073 46.0635 11.6656 46.0635 11.626 46.074C11.5985 46.1629 11.5688 46.2856 11.5327 46.4358C11.4967 46.586 11.4436 46.7806 11.3843 47.0154C11.3249 47.2502 11.2443 47.5401 11.1467 47.8807C11.0308 48.277 10.9247 48.6232 10.8286 48.9194C10.731 49.2155 10.6526 49.4609 10.5953 49.6556C10.6224 49.688 10.6586 49.7115 10.6992 49.7233C10.7519 49.7482 10.8075 49.7667 10.8647 49.7783C10.9078 49.7895 10.953 49.7895 10.9961 49.7783M12.3853 44.388C12.4693 44.241 12.5628 44.0997 12.6653 43.9649C12.7516 43.8539 12.849 43.7518 12.9558 43.6602C13.0352 43.5891 13.1316 43.5396 13.2358 43.5164C13.3394 43.4925 13.4464 43.4875 13.5518 43.5016C13.6504 43.5141 13.7468 43.5405 13.8381 43.5798L15.0491 44.1299L16.2135 44.6651C16.5867 44.8407 16.9324 45.0015 17.2506 45.1538C17.5687 45.3061 17.8423 45.4415 18.0777 45.5578C18.3131 45.6742 18.4891 45.7694 18.6122 45.8434C18.7727 45.9295 18.9107 46.052 19.0151 46.201C19.0929 46.3165 19.1247 46.4568 19.1042 46.5944C19.0937 46.7115 19.0738 46.8275 19.0448 46.9414C19.0151 47.057 18.9791 47.184 18.9366 47.3222C18.9668 47.3532 19.0019 47.3789 19.0406 47.3983C19.094 47.4278 19.1493 47.4539 19.206 47.4766C19.2458 47.4948 19.2897 47.5021 19.3332 47.4978C19.4054 47.3264 19.4944 47.1127 19.5983 46.8525C19.7023 46.5923 19.8274 46.2962 19.9737 45.964C20.1074 45.67 20.2367 45.3971 20.3619 45.1432C20.487 44.8893 20.593 44.6672 20.6821 44.4747C20.6587 44.4346 20.6241 44.4022 20.5824 44.3816C20.5295 44.3499 20.4742 44.3223 20.417 44.2991C20.3789 44.2828 20.3376 44.2748 20.2961 44.2758C20.2134 44.4134 20.137 44.5382 20.0671 44.6418C19.9971 44.7455 19.9292 44.8428 19.855 44.9274C19.7934 45.015 19.7139 45.0886 19.6217 45.1432C19.5261 45.1965 19.4172 45.2215 19.3078 45.2151C19.1618 45.2005 19.0188 45.1642 18.8836 45.1072C18.7882 45.0713 18.644 45.0142 18.4594 44.9338L17.7935 44.6524L16.9621 44.297L16.0968 43.9162L15.2485 43.5375L14.5189 43.2012V43.1737C14.5189 43.1589 14.5316 43.1483 14.5549 43.1419L15.3248 42.9537L16.4192 42.685L17.6917 42.374L19.0384 42.0482L20.311 41.7457L21.399 41.4961C21.715 41.4242 21.9631 41.3713 22.1476 41.3332C22.1667 41.2761 22.1943 41.1978 22.2346 41.0962C22.2749 40.9947 22.3194 40.8847 22.3682 40.7747C22.417 40.6647 22.4636 40.5631 22.5082 40.4637C22.5527 40.3643 22.5888 40.2987 22.6163 40.2522C22.4721 40.195 22.3046 40.1252 22.1158 40.0406C21.9271 39.956 21.7319 39.8777 21.5283 39.7889L20.9515 39.5392L19.645 38.9469L18.417 38.3821C18.0268 38.2001 17.6684 38.0288 17.3375 37.8701C17.0067 37.7114 16.7161 37.5634 16.468 37.4322C16.3506 37.3682 16.2417 37.29 16.1435 37.1995C16.0729 37.1311 16.0211 37.0459 15.9929 36.952C15.9688 36.8458 15.9645 36.7361 15.9802 36.6283C15.9898 36.5422 16.0047 36.4567 16.0247 36.3723C16.0438 36.2877 16.065 36.1925 16.0904 36.091C16.0612 36.0595 16.0259 36.0343 15.9865 36.0169C15.9336 35.9876 15.8783 35.9628 15.8211 35.9429C15.7854 35.9261 15.7459 35.9188 15.7066 35.9217C15.6748 35.9958 15.6323 36.1015 15.5751 36.2433C15.5178 36.385 15.4521 36.5458 15.3778 36.7277C15.3036 36.9097 15.223 37.1022 15.1361 37.2989C14.9664 37.6734 14.8137 37.997 14.6843 38.2615C14.5549 38.5259 14.4553 38.7332 14.3853 38.8834C14.3853 38.8961 14.4065 38.9131 14.4383 38.9342C14.4745 38.9581 14.5129 38.9786 14.5528 38.9956C14.5926 39.0174 14.6345 39.0351 14.678 39.0484C14.7046 39.0604 14.7336 39.0662 14.7628 39.0654C14.8497 38.9215 14.9282 38.7925 15.0003 38.6825C15.0724 38.5725 15.1509 38.4709 15.2315 38.3715C15.3001 38.2771 15.3874 38.1979 15.4881 38.1388C15.5752 38.092 15.6735 38.07 15.7723 38.0753C15.8951 38.0843 16.0159 38.1114 16.1307 38.1557C16.3428 38.2276 16.6037 38.3292 16.9112 38.4582C17.2187 38.5873 17.5623 38.7311 17.9335 38.894L19.066 39.4123L20.241 39.937V39.9771C20.0416 40.0385 19.7913 40.1083 19.4881 40.1887L18.4785 40.4616L17.3121 40.7705L16.0968 41.0899C15.6917 41.1936 15.3079 41.3015 14.9388 41.384L13.9463 41.6357C13.7936 41.6759 13.6663 41.7097 13.5624 41.733C13.4744 41.7543 13.3851 41.7698 13.2952 41.7796C13.2246 41.7862 13.1536 41.7862 13.0831 41.7796C13.0555 41.8578 13.0152 41.9657 12.9558 42.1075C12.8964 42.2492 12.8349 42.4015 12.7607 42.5665C12.5995 42.9198 12.4511 43.235 12.3111 43.5164C12.1711 43.7977 12.0608 44.0283 11.9781 44.223C12.0031 44.2553 12.036 44.2808 12.0735 44.297C12.1279 44.3287 12.1847 44.3563 12.2432 44.3795C12.282 44.3993 12.3248 44.4102 12.3683 44.4112M21.7298 37.0535C21.6935 37.0804 21.6667 37.1182 21.6535 37.1614C21.626 37.219 21.6047 37.2792 21.5898 37.3412C21.5765 37.3868 21.5765 37.4353 21.5898 37.4809C21.6704 37.5295 21.7786 37.5909 21.9164 37.6628L22.364 37.8743C22.5273 37.9505 22.6863 38.0224 22.8433 38.0859C23.0002 38.1494 23.1381 38.2065 23.2568 38.2509C23.3373 38.2827 23.4213 38.3047 23.5071 38.3165C23.6567 38.2397 23.7987 38.149 23.9313 38.0457C24.1196 37.9019 24.2975 37.7449 24.4636 37.5761C24.6577 37.379 24.8357 37.1667 24.9959 36.9414C25.2551 36.5815 25.4542 36.1822 25.5855 35.7588C25.6949 35.4052 25.7338 35.0337 25.7001 34.6651C25.6674 34.3362 25.5632 34.0183 25.3947 33.7337C25.2262 33.449 24.9975 33.2045 24.7245 33.0171C24.4932 32.8489 24.2297 32.7301 23.9504 32.6681C23.6858 32.6152 23.4133 32.6152 23.1487 32.6681C22.8441 32.7261 22.5474 32.8191 22.2643 32.9452C22.0776 33.0256 21.8995 33.1039 21.7277 33.1843L21.2123 33.4254C21.0384 33.5058 20.8518 33.5862 20.6524 33.6708C20.4681 33.7423 20.2769 33.7947 20.0819 33.8274C19.9066 33.8576 19.7271 33.8521 19.554 33.8114C19.3809 33.7707 19.2178 33.6955 19.0745 33.5905C18.9049 33.4746 18.7671 33.3182 18.6737 33.1356C18.5823 32.9551 18.5405 32.7536 18.5528 32.5517C18.5728 32.3226 18.6549 32.1033 18.7903 31.9171C18.8938 31.7596 19.0187 31.6172 19.1615 31.494C19.2942 31.3812 19.4476 31.295 19.6132 31.2401C19.736 31.1958 19.8667 31.1771 19.9971 31.1851C20.1574 31.2003 20.315 31.2366 20.4658 31.293C20.676 31.371 20.8814 31.4615 21.0808 31.5638C21.1197 31.5468 21.1534 31.5198 21.1784 31.4855C21.2181 31.4388 21.2522 31.3877 21.2802 31.3332C21.3055 31.2942 21.3188 31.2486 21.3184 31.2021C21.0172 30.9665 20.7464 30.7416 20.5061 30.5272C20.2996 30.3488 20.1021 30.1603 19.9144 29.9624C19.7807 30.1126 19.6386 30.2628 19.4902 30.4109C19.3417 30.5589 19.1869 30.7197 19.0215 30.9016C18.8338 31.1166 18.6576 31.3411 18.4934 31.5744C18.2828 31.8618 18.1182 32.1801 18.0056 32.5179C17.9023 32.8271 17.8577 33.1528 17.8741 33.4783C17.8933 33.7922 17.9824 34.0979 18.135 34.3732C18.3053 34.6714 18.5418 34.9269 18.8264 35.12C19.0668 35.2921 19.3383 35.4163 19.6259 35.4859C19.8895 35.5461 20.1616 35.559 20.4297 35.524C20.7117 35.4857 20.9889 35.4184 21.2569 35.323C21.5411 35.2215 21.8316 35.1115 22.1307 34.9698C22.4297 34.828 22.7309 34.718 22.979 34.6397C23.185 34.5673 23.3984 34.5177 23.6153 34.4917C23.7801 34.4728 23.947 34.485 24.1073 34.5276C24.2599 34.573 24.4035 34.6446 24.5315 34.7392C24.7187 34.8644 24.8659 35.0406 24.9556 35.2469C25.0272 35.4299 25.0463 35.6291 25.0108 35.8223C24.9714 36.0226 24.8897 36.2123 24.7711 36.3787C24.6885 36.496 24.5962 36.6064 24.4954 36.7087C24.393 36.8138 24.28 36.908 24.1582 36.9901C24.0396 37.07 23.9113 37.1347 23.7764 37.1826C23.4889 37.2803 23.1843 37.3184 22.8814 37.2947C22.496 37.2612 22.1158 37.1824 21.7489 37.0599M30.7201 29.021L30.419 29.2664C30.3384 29.3341 30.2642 29.3891 30.2069 29.4377C30.1461 29.482 30.0815 29.5209 30.0139 29.5541C29.9605 29.5858 29.9011 29.6063 29.8395 29.6143C29.7779 29.6223 29.7152 29.6176 29.6555 29.6006C29.5226 29.5529 29.3996 29.4812 29.2928 29.3891C29.1952 29.3066 29.0489 29.1775 28.858 29.0062L28.1857 28.3821L27.3649 27.6269L26.4805 26.8039L25.6152 25.9958L24.8517 25.285C24.8346 25.2684 24.8216 25.2481 24.8135 25.2258V25.175C24.8517 25.1284 24.9132 25.0586 24.9959 24.9634C25.0786 24.8682 25.1698 24.7688 25.2716 24.6588C25.3734 24.5488 25.4837 24.4473 25.5813 24.3309C25.6789 24.2145 25.7764 24.1194 25.8591 24.0517C25.9379 23.976 26.0363 23.924 26.1433 23.9015C26.2643 23.8886 26.3865 23.9106 26.4954 23.9649C26.663 24.0319 26.8242 24.1141 26.9768 24.2103C27.1486 24.3119 27.3289 24.4367 27.5198 24.5763C27.5367 24.5763 27.5622 24.5636 27.594 24.534C27.6334 24.5039 27.6691 24.4691 27.7 24.4303C27.7339 24.3924 27.7651 24.3521 27.7933 24.3097C27.8125 24.2841 27.8255 24.2544 27.8315 24.223C27.6428 24.0242 27.4561 23.8168 27.2716 23.6053C27.0871 23.3937 26.9174 23.1822 26.7647 22.9833C26.6299 22.8129 26.5039 22.6357 26.3872 22.4523C26.364 22.4485 26.3404 22.4485 26.3172 22.4523C26.3051 22.451 26.2928 22.4522 26.2811 22.4559C26.2694 22.4595 26.2586 22.4655 26.2494 22.4735C26.1957 22.5904 26.134 22.7035 26.0648 22.812C25.9829 22.939 25.8937 23.0612 25.7976 23.178C25.6916 23.3091 25.5601 23.4593 25.4074 23.6222L22.1985 27.0557C22.0669 27.1989 21.9252 27.3326 21.7744 27.4555C21.6219 27.5812 21.4545 27.6878 21.2759 27.7728C21.2553 27.7932 21.2425 27.8201 21.2399 27.849C21.2315 27.8729 21.2315 27.8991 21.2399 27.923C21.3396 28.0288 21.452 28.1557 21.5856 28.2996L21.9843 28.7608C22.1201 28.9194 22.2494 29.0717 22.3703 29.2198C22.4912 29.3679 22.5824 29.4991 22.6736 29.6112C22.7069 29.6207 22.7427 29.6169 22.7733 29.6006C22.8199 29.5807 22.8646 29.5567 22.9069 29.5287C22.9479 29.4997 22.9869 29.4679 23.0235 29.4335C23.0475 29.4139 23.0645 29.3872 23.0723 29.3573C22.9557 29.1458 22.8602 28.9342 22.769 28.7438C22.6894 28.5727 22.6186 28.3976 22.5569 28.2192C22.5045 28.0847 22.4855 27.9395 22.5018 27.7961C22.5231 27.6766 22.5783 27.5658 22.6609 27.4767C22.7203 27.4068 22.7945 27.3243 22.873 27.2249L23.1508 26.9266C23.2462 26.823 23.3374 26.7299 23.4159 26.6431C23.4944 26.5564 23.5622 26.4951 23.6068 26.4527C23.6162 26.4488 23.6263 26.4468 23.6365 26.4468C23.6467 26.4468 23.6568 26.4488 23.6662 26.4527C23.6883 26.4567 23.7092 26.4653 23.7277 26.4781C24.0352 26.7637 24.3491 27.0578 24.6757 27.3582L25.6386 28.253L26.559 29.114C26.8517 29.3891 27.1168 29.645 27.3607 29.8799C27.6046 30.1147 27.8146 30.3178 27.997 30.4934C28.1096 30.6023 28.2112 30.7221 28.3002 30.8509C28.3589 30.9348 28.3914 31.0342 28.3936 31.1365C28.3843 31.241 28.3486 31.3415 28.2896 31.4284C28.2274 31.5409 28.1565 31.6484 28.0775 31.75C27.9885 31.8769 27.8888 32.0144 27.7806 32.1583C27.7899 32.1995 27.8113 32.2371 27.8421 32.2661C27.8785 32.3115 27.9205 32.3521 27.9673 32.3867C28.0003 32.4183 28.0427 32.4383 28.0881 32.4438C28.2239 32.2958 28.4063 32.0884 28.6438 31.8092C28.8814 31.53 29.1846 31.2042 29.56 30.8001C29.8584 30.4828 30.1312 30.2007 30.3787 29.9539C30.6247 29.7064 30.8283 29.497 30.9937 29.3193C30.9863 29.2756 30.9673 29.2346 30.9386 29.2008C30.9042 29.152 30.8643 29.1073 30.8198 29.0675C30.7913 29.0371 30.7544 29.0158 30.7138 29.0062M28.3045 21.6019C28.4374 21.5215 28.554 21.451 28.6544 21.3904C28.7543 21.3355 28.8577 21.2875 28.9641 21.2465C29.0152 21.2239 29.0704 21.2123 29.1263 21.2123C29.1822 21.2123 29.2375 21.2239 29.2886 21.2465C29.399 21.3036 29.4977 21.3811 29.5791 21.475C29.7042 21.6188 29.84 21.7817 29.9842 21.9658C30.1284 22.1498 30.3044 22.3635 30.4996 22.6004L31.1825 23.472L31.7827 24.2399L32.3511 24.9698C32.5313 25.2025 32.6862 25.3929 32.8177 25.579C32.9492 25.7652 33.0467 25.8837 33.1061 25.9725C33.1755 26.08 33.2324 26.195 33.2758 26.3152C33.3074 26.3923 33.3148 26.4772 33.297 26.5585C33.2672 26.6516 33.2181 26.7374 33.1528 26.8103C33.0976 26.8842 33.0381 26.9549 32.9746 27.0218C32.9067 27.0937 32.8219 27.1763 32.7243 27.2715C32.7232 27.3164 32.7374 27.3604 32.7646 27.3963C32.7986 27.4474 32.8369 27.4956 32.8792 27.5401C32.9077 27.5744 32.9462 27.5988 32.9895 27.6099C33.1103 27.5168 33.2376 27.4111 33.3712 27.2989L33.8484 26.9055C34.0308 26.7553 34.2577 26.5733 34.525 26.3639C34.8537 26.1079 35.14 25.8921 35.386 25.7123L36.0223 25.2448C36.0262 25.2014 36.0166 25.1578 35.9947 25.12C35.9686 25.0639 35.9366 25.0107 35.8993 24.9613C35.8739 24.9232 35.8388 24.8925 35.7975 24.8725L35.4348 25.084C35.3359 25.1411 35.2331 25.1913 35.1273 25.2342C35.0335 25.2831 34.9267 25.3016 34.8219 25.2871C34.7351 25.2722 34.6543 25.2334 34.5886 25.175C34.5178 25.1146 34.4525 25.048 34.3935 24.9761C34.2323 24.7921 33.9926 24.4959 33.6745 24.0918C33.3564 23.6878 32.9661 23.1949 32.508 22.611L31.8463 21.7648C31.6342 21.4982 31.4582 21.2634 31.3034 21.0582C31.1485 20.853 31.0255 20.6901 30.9386 20.5653C30.8738 20.4811 30.8156 20.392 30.7647 20.2988C30.7251 20.2306 30.7046 20.1532 30.7053 20.0745C30.7094 19.9902 30.7373 19.9088 30.7859 19.8397C30.8455 19.7552 30.9122 19.6759 30.9852 19.6028C31.0658 19.5181 31.1528 19.4251 31.2503 19.3277C31.2434 19.2836 31.2252 19.2421 31.1973 19.2072C31.1652 19.1591 31.1283 19.1144 31.087 19.0739C31.062 19.041 31.0292 19.0149 30.9916 18.9977C30.9174 19.0548 30.8219 19.1352 30.7032 19.2368C30.5844 19.3383 30.4296 19.4652 30.2408 19.6176C30.0521 19.7699 29.8167 19.9603 29.5388 20.1803C29.2122 20.4313 28.9224 20.6485 28.6693 20.8319C28.4169 21.0159 28.209 21.1682 28.0479 21.293C28.0511 21.3347 28.0666 21.3744 28.0924 21.4073C28.1205 21.4584 28.1547 21.506 28.1942 21.549C28.2201 21.5846 28.2553 21.6124 28.296 21.6294M41.3902 21.3777L41.0318 21.5236C40.9342 21.5659 40.8472 21.5977 40.7709 21.6231C40.7021 21.6486 40.6311 21.6677 40.5588 21.6802C40.4984 21.6951 40.4355 21.6974 40.3742 21.6868C40.3129 21.6762 40.2544 21.6531 40.2025 21.6188C40.0898 21.5331 39.9935 21.4277 39.9183 21.3078C39.8483 21.2 39.7486 21.035 39.615 20.8128C39.4814 20.5907 39.3308 20.3347 39.1548 20.0343C38.9788 19.7339 38.7921 19.4166 38.5928 19.0718L37.9883 18.0288C37.7762 17.6755 37.5854 17.3349 37.3966 17.0028C37.2078 16.6707 37.0318 16.3682 36.8749 16.0995C36.863 16.0796 36.8564 16.057 36.8558 16.0339C36.8539 16.016 36.8584 15.998 36.8685 15.9831C36.918 15.9493 36.9965 15.9006 37.1039 15.8372L37.456 15.6256L37.8483 15.4014C37.9777 15.3294 38.0944 15.2681 38.1962 15.2173C38.2934 15.1669 38.4031 15.1456 38.5122 15.156C38.632 15.1778 38.7427 15.2344 38.8303 15.3189C38.9683 15.426 39.0968 15.545 39.2142 15.6743C39.3478 15.8224 39.4856 15.9937 39.6256 16.1841C39.6553 16.1881 39.6854 16.1813 39.7105 16.1651C39.7557 16.1454 39.7997 16.1228 39.842 16.0974C39.8851 16.0708 39.9262 16.0411 39.965 16.0085C39.9911 15.9894 40.0128 15.9649 40.0286 15.9366C39.9056 15.6912 39.7868 15.4394 39.6744 15.1814C39.562 14.9233 39.4623 14.6758 39.3711 14.4409C39.2892 14.2383 39.2184 14.0314 39.159 13.8211C39.1395 13.8085 39.118 13.7992 39.0954 13.7936C39.0721 13.785 39.0466 13.785 39.0233 13.7936C38.9388 13.8904 38.8466 13.9803 38.7476 14.0623C38.633 14.1611 38.5126 14.2529 38.387 14.3373C38.2449 14.4304 38.0774 14.534 37.8823 14.6483L33.8187 16.9943C33.6511 17.0925 33.4768 17.1788 33.297 17.2524C33.1146 17.328 32.9238 17.3812 32.7286 17.4111C32.7024 17.4242 32.6815 17.4459 32.6692 17.4724C32.6544 17.5063 32.648 17.5296 32.6544 17.5444C32.718 17.6776 32.7922 17.83 32.8664 18.0077C32.9407 18.1854 33.0298 18.3694 33.1125 18.5619C33.1952 18.7544 33.2737 18.9385 33.3458 19.1141C33.4179 19.2897 33.4751 19.4462 33.5218 19.5774C33.5515 19.5959 33.587 19.6027 33.6215 19.5964C33.6717 19.5906 33.7213 19.5807 33.7699 19.5668C33.8178 19.5518 33.8646 19.5334 33.9099 19.5118C33.9481 19.4885 33.9714 19.4695 33.9778 19.4504C33.9311 19.2114 33.8951 18.9893 33.8675 18.7777C33.8399 18.5662 33.8251 18.3758 33.8208 18.2129C33.8091 18.068 33.8339 17.9226 33.8929 17.7898C33.9482 17.6813 34.0336 17.591 34.139 17.5296C34.2153 17.4809 34.3108 17.4217 34.4253 17.354L34.7773 17.1424C34.9004 17.0705 35.0149 17.0092 35.1167 16.9499C35.2185 16.8907 35.2991 16.8505 35.3542 16.823C35.3745 16.8211 35.3947 16.8263 35.4115 16.8378C35.4315 16.8487 35.4488 16.8639 35.4624 16.8822C35.6745 17.244 35.8865 17.6163 36.1114 17.9971L36.7688 19.1352C36.9809 19.5139 37.193 19.8778 37.4051 20.2268C37.6172 20.5759 37.7847 20.8974 37.948 21.1936C38.1113 21.4898 38.2534 21.7436 38.3722 21.9637C38.4472 22.0984 38.509 22.2401 38.5567 22.3868C38.5875 22.4838 38.5875 22.588 38.5567 22.685C38.5188 22.7833 38.4551 22.8695 38.3722 22.9347C38.2819 23.0245 38.1847 23.1073 38.0816 23.1822C37.9586 23.2795 37.8229 23.381 37.6787 23.4868C37.675 23.5286 37.6838 23.5706 37.7041 23.6074C37.7266 23.6612 37.755 23.7123 37.789 23.7597C37.8117 23.7993 37.8467 23.8304 37.8886 23.8486C38.0604 23.747 38.298 23.6032 38.6034 23.4255C38.9088 23.2478 39.2969 23.0024 39.7762 22.7274C40.1537 22.5116 40.4966 22.3212 40.8048 22.1562C41.1145 21.9912 41.3711 21.8515 41.5768 21.7331C41.5845 21.6895 41.5793 21.6447 41.562 21.604C41.5422 21.5466 41.5166 21.4913 41.4856 21.439C41.4668 21.4017 41.4372 21.3708 41.4008 21.3502M41.5747 13.1378C41.6532 13.1251 41.7338 13.1124 41.8207 13.1018L42.0646 13.0807C42.1431 13.0807 42.211 13.0807 42.2661 13.0807C42.4009 13.0777 42.5317 13.127 42.6309 13.2182C42.73 13.3263 42.8026 13.4559 42.843 13.5968C42.9151 13.8422 42.9978 14.1194 43.089 14.443L43.3753 15.4289C43.4771 15.7716 43.5768 16.1058 43.6786 16.4337C43.7804 16.7616 43.8758 17.0684 43.967 17.3349C44.0582 17.6015 44.1409 17.8278 44.2152 18.0013C44.3382 18.3021 44.5086 18.5813 44.7199 18.8285C44.9313 19.0732 45.1932 19.2695 45.4877 19.4039C45.8269 19.5566 46.195 19.6352 46.5672 19.6345C47.0544 19.6363 47.5392 19.5649 48.0051 19.4229C48.4144 19.3066 48.8055 19.1343 49.1674 18.911C49.5018 18.7102 49.7907 18.4422 50.0157 18.124C50.2424 17.7851 50.3876 17.3985 50.4399 16.9943C50.505 16.4843 50.4813 15.9669 50.3699 15.4648C50.3296 15.2533 50.2766 14.991 50.213 14.7075C50.1493 14.424 50.0751 14.1278 50.0009 13.8126C49.9266 13.4974 49.8418 13.178 49.7612 12.8691C49.6806 12.5603 49.6043 12.2535 49.53 11.9658C49.4875 11.7993 49.4599 11.6294 49.4473 11.4581C49.4372 11.3491 49.457 11.2394 49.5046 11.1408C49.5559 11.0532 49.6289 10.9804 49.7167 10.9292C49.7902 10.8795 49.8675 10.8357 49.9478 10.798L50.213 10.6648C50.2268 10.6243 50.2268 10.5804 50.213 10.5399C50.2008 10.4813 50.183 10.4239 50.1599 10.3686C50.1467 10.3276 50.1225 10.2911 50.0899 10.2628C50.0051 10.2882 49.9012 10.3221 49.7782 10.3644L49.3222 10.5124C49.1377 10.5717 48.9107 10.6415 48.6393 10.724C48.3233 10.8107 48.0348 10.8869 47.7697 10.9525C47.5046 11.0181 47.2777 11.0752 47.0783 11.1281C47.0699 11.1721 47.0699 11.2173 47.0783 11.2613C47.088 11.3174 47.1022 11.3726 47.1207 11.4263C47.1334 11.4658 47.1536 11.5024 47.1801 11.5342C47.3265 11.5131 47.4622 11.494 47.5873 11.4813C47.6985 11.4673 47.8104 11.4595 47.9224 11.4581C48.043 11.4399 48.1663 11.4523 48.2808 11.494C48.3926 11.5359 48.4863 11.6152 48.546 11.7183C48.6264 11.8468 48.6892 11.9856 48.7326 12.1308C48.7941 12.3043 48.862 12.5095 48.9341 12.7485C49.0062 12.9876 49.0847 13.2351 49.161 13.5038C49.2374 13.7724 49.3137 14.0432 49.3879 14.314C49.4622 14.5848 49.53 14.8471 49.6 15.0946C49.67 15.3421 49.7146 15.5643 49.757 15.7568C49.8418 16.1321 49.8626 16.519 49.8185 16.9013C49.7883 17.1766 49.6923 17.4407 49.5385 17.6713C49.3996 17.8666 49.2193 18.0291 49.0104 18.1473C48.8044 18.2645 48.5842 18.3548 48.3551 18.416C48.0033 18.5243 47.6339 18.5638 47.2671 18.5323C46.9734 18.5047 46.6916 18.4028 46.4484 18.2361C46.2187 18.0702 46.0313 17.8529 45.9012 17.6015C45.8218 17.465 45.7509 17.3237 45.6892 17.1784C45.6213 17.0176 45.5555 16.8484 45.494 16.6728C45.4325 16.4972 45.3753 16.328 45.3223 16.163C45.2692 15.9979 45.2141 15.7906 45.1441 15.5558L44.9172 14.7921C44.8387 14.5171 44.756 14.2421 44.6796 13.9628C44.6033 13.6836 44.5248 13.4149 44.4675 13.1589C44.4173 13.0011 44.4056 12.8335 44.4336 12.6703C44.4519 12.6048 44.4847 12.5443 44.5294 12.493C44.5742 12.4418 44.6299 12.4012 44.6924 12.3741C44.7623 12.3339 44.8451 12.2895 44.9384 12.2429C45.0317 12.1964 45.1314 12.1456 45.2395 12.0948C45.2491 12.0516 45.2491 12.0069 45.2395 11.9637C45.2308 11.9061 45.2144 11.8499 45.1908 11.7966C45.1796 11.7563 45.1567 11.7202 45.125 11.6929C44.9129 11.7585 44.6415 11.841 44.3382 11.9383C44.0349 12.0356 43.7019 12.1498 43.3223 12.2493C43.0847 12.317 42.8493 12.3804 42.6182 12.4397L41.9819 12.6047C41.7847 12.6533 41.6192 12.6978 41.4877 12.7337C41.4776 12.774 41.4776 12.8161 41.4877 12.8564C41.4983 12.9139 41.5132 12.9704 41.5323 13.0257C41.5453 13.0673 41.5662 13.1061 41.5938 13.1399" fill="#12100B"/>
<path d="M58.6264 16.9181C58.4737 16.9054 58.3443 16.897 58.2383 16.8928C58.1322 16.8928 58.041 16.8779 57.9604 16.8674C57.885 16.8593 57.8105 16.8444 57.7377 16.8229C57.6771 16.8094 57.6198 16.7837 57.5695 16.7473C57.5192 16.7109 57.4768 16.6647 57.4451 16.6114C57.3814 16.4858 57.3418 16.3495 57.3284 16.2094C57.3115 16.0804 57.2945 15.8879 57.2712 15.6319C57.2478 15.3759 57.2266 15.0755 57.199 14.7307C57.1715 14.3859 57.146 14.0157 57.1185 13.618C57.0909 13.2202 57.0612 12.8225 57.0336 12.4163C57.006 12.0102 56.9764 11.6167 56.953 11.2359C56.9297 10.8551 56.9021 10.5103 56.8788 10.1972C56.8777 10.173 56.8828 10.149 56.8936 10.1274L56.9255 10.0893L57.2012 10.0597C57.3221 10.047 57.4599 10.0385 57.6105 10.0258L58.0622 9.99622C58.2107 9.99622 58.3422 9.98352 58.4546 9.98141C58.5639 9.97861 58.6716 10.008 58.7642 10.066C58.8614 10.1385 58.9351 10.2378 58.9763 10.3516C59.0531 10.515 59.1148 10.6849 59.1608 10.8593C59.2197 11.0683 59.2678 11.2801 59.3051 11.494C59.3307 11.5089 59.3603 11.5155 59.3899 11.513C59.4392 11.5182 59.489 11.5182 59.5384 11.513C59.5893 11.5096 59.6397 11.5011 59.6889 11.4876C59.7207 11.4838 59.7507 11.4713 59.7759 11.4517C59.7759 11.1767 59.7759 10.8974 59.7907 10.6182C59.8056 10.3389 59.8183 10.0703 59.8438 9.81851C59.8621 9.60565 59.8912 9.39384 59.9307 9.18386C59.9191 9.16317 59.904 9.14457 59.8862 9.12886C59.8684 9.11163 59.8451 9.10115 59.8204 9.09924C59.7015 9.1489 59.5788 9.18921 59.4535 9.21983C59.3077 9.25821 59.1597 9.28788 59.0103 9.30868C58.8427 9.33195 58.6455 9.35099 58.4207 9.36791L53.7251 9.69581C53.5309 9.7096 53.336 9.7096 53.1418 9.69581C52.9446 9.68368 52.7495 9.64817 52.5607 9.59004C52.5319 9.59061 52.5042 9.60107 52.4823 9.61966C52.4526 9.64293 52.4377 9.66197 52.4356 9.67677C52.4356 9.82486 52.4356 9.9941 52.4356 10.1887C52.4356 10.3834 52.4229 10.5864 52.4144 10.7959C52.4059 11.0053 52.3932 11.2042 52.3805 11.3946C52.3677 11.585 52.3508 11.7479 52.3338 11.8875C52.352 11.9169 52.3808 11.9381 52.4144 11.9467C52.4623 11.9649 52.5121 11.9776 52.5629 11.9848C52.6119 11.9929 52.6616 11.9971 52.7113 11.9975C52.743 11.9987 52.7742 11.9898 52.8004 11.9721C52.8619 11.7373 52.9276 11.5215 52.9976 11.3184C53.0676 11.1153 53.1355 10.9397 53.2097 10.7916C53.2634 10.6573 53.3494 10.5382 53.46 10.4447C53.5572 10.3712 53.6735 10.3272 53.7951 10.3178L54.1302 10.286L54.5374 10.2543L54.9255 10.231C55.0421 10.231 55.1376 10.2205 55.1948 10.2205C55.2097 10.2205 55.2245 10.2353 55.2415 10.2585C55.2536 10.2773 55.2622 10.2981 55.2669 10.3199C55.2966 10.743 55.3263 11.1661 55.3581 11.6082C55.39 12.0504 55.4196 12.484 55.4515 12.9177C55.4833 13.3514 55.5087 13.7639 55.5342 14.1722C55.5596 14.5805 55.5808 14.9401 55.5978 15.2786C55.6148 15.6171 55.6296 15.9133 55.636 16.1544C55.6435 16.3106 55.6364 16.4671 55.6148 16.622C55.5995 16.723 55.5544 16.8173 55.4854 16.8928C55.4085 16.9639 55.3141 17.0135 55.2118 17.0366C55.0905 17.0771 54.9665 17.1089 54.8407 17.1318C54.6879 17.1628 54.5225 17.1946 54.3444 17.227C54.3248 17.2642 54.3146 17.3056 54.3147 17.3476C54.3083 17.4052 54.3083 17.4634 54.3147 17.5211C54.3193 17.5667 54.337 17.61 54.3656 17.6459C54.5649 17.6289 54.8428 17.6036 55.1991 17.5676C55.5554 17.5316 56.0092 17.4936 56.5607 17.4534C56.9848 17.4237 57.3857 17.4026 57.7356 17.3899C58.0856 17.3772 58.3719 17.3624 58.6158 17.3476C58.6412 17.3115 58.6559 17.2689 58.6582 17.2249C58.6646 17.1651 58.6646 17.1048 58.6582 17.0451C58.6579 17.0036 58.6453 16.9631 58.6221 16.9287M65.6952 17.6416C66.1373 17.6971 66.5849 17.69 67.025 17.6205C67.4582 17.5511 67.8781 17.4155 68.2699 17.2185C68.6746 17.0125 69.041 16.7392 69.3537 16.4104C69.6734 16.081 69.9287 15.695 70.1066 15.2723C70.2952 14.8209 70.4188 14.3451 70.4735 13.8591C70.5265 13.4374 70.5222 13.0104 70.4608 12.5898C70.4007 12.1843 70.2784 11.7904 70.0981 11.4221C69.9169 11.0565 69.6753 10.7239 69.3834 10.4384C69.0738 10.1387 68.7152 9.89396 68.323 9.71485C67.8692 9.51291 67.3871 9.38163 66.8935 9.3256C66.4552 9.27078 66.0116 9.27434 65.5743 9.33618C65.1676 9.39496 64.7709 9.50884 64.3951 9.67466C64.0461 9.82871 63.7223 10.0341 63.4344 10.2839C63.1568 10.4966 62.9135 10.7506 62.7133 11.037C62.5207 11.3129 62.366 11.6131 62.2531 11.9298C62.1411 12.2507 62.0637 12.5826 62.0219 12.9198C61.9776 13.2778 61.9705 13.6393 62.0007 13.9987C62.0296 14.3655 62.1044 14.7273 62.2234 15.0755C62.3493 15.4365 62.5287 15.7767 62.7557 16.0846C62.9594 16.3601 63.2015 16.6052 63.4747 16.8124C63.7741 17.034 64.1032 17.2127 64.4524 17.3434C64.8531 17.4923 65.2704 17.5924 65.6952 17.6416ZM66.1957 17.1106C65.9299 17.0828 65.6705 17.0113 65.428 16.8991C65.205 16.7903 65.0004 16.6475 64.8214 16.476C64.6012 16.2458 64.42 15.9815 64.2848 15.6933C64.1427 15.3952 64.0366 15.0813 63.9688 14.7582C63.899 14.4275 63.8585 14.0912 63.8479 13.7533C63.8361 13.4277 63.8503 13.1015 63.8904 12.7781C63.936 12.3755 64.0227 11.9785 64.1491 11.5934C64.2574 11.2489 64.4191 10.9233 64.6284 10.6288C64.8167 10.3624 65.0661 10.1448 65.3559 9.9941C65.5183 9.91375 65.6921 9.85881 65.8712 9.83121C66.062 9.80576 66.2553 9.80576 66.446 9.83121C66.9559 9.88477 67.429 10.1208 67.7779 10.4955C67.9795 10.7026 68.1457 10.9413 68.2699 11.2021C68.4024 11.4832 68.5 11.7795 68.5605 12.0842C68.6256 12.4076 68.6625 12.736 68.6708 13.0658C68.6772 13.4029 68.6601 13.7401 68.6199 14.0749C68.5772 14.4493 68.5027 14.8195 68.3972 15.1813C68.3022 15.5151 68.1669 15.8362 67.9942 16.1375C67.8393 16.4091 67.6308 16.6466 67.3813 16.8356C67.2146 16.9518 67.0265 17.0338 66.8278 17.0768C66.6195 17.1265 66.404 17.1386 66.1915 17.1128M77.08 17.6755C77.0472 17.6451 77.0056 17.6259 76.9612 17.6205C76.8997 17.6033 76.8363 17.5933 76.7725 17.5909C76.7254 17.5858 76.6779 17.5931 76.6346 17.612C76.6007 17.7009 76.5582 17.8236 76.5116 17.9653C76.4649 18.107 76.4225 18.2721 76.3737 18.4434C76.325 18.6148 76.2825 18.7861 76.2444 18.9511C76.2062 19.1161 76.1765 19.2621 76.1553 19.3742C76.1366 19.4597 76.1288 19.5471 76.132 19.6344C76.2344 19.7639 76.348 19.8842 76.4713 19.9941C76.646 20.1542 76.8316 20.3019 77.027 20.4362C77.2565 20.5918 77.4976 20.7297 77.7481 20.8487C78.1492 21.0408 78.579 21.1666 79.0206 21.2211C79.3883 21.2667 79.7613 21.2409 80.1192 21.1449C80.4402 21.058 80.7388 20.9037 80.9951 20.6922C81.2452 20.4775 81.4457 20.2111 81.5826 19.9116C81.7086 19.6552 81.7808 19.3759 81.7946 19.0908C81.8013 18.8214 81.7552 18.5534 81.6589 18.3017C81.5483 18.0133 81.406 17.7381 81.2347 17.4809C81.1245 17.3116 81.0227 17.1508 80.906 16.9964L80.5709 16.531C80.4606 16.3745 80.3588 16.2052 80.2337 16.0233C80.1297 15.855 80.0437 15.6763 79.9771 15.4902C79.9209 15.3277 79.895 15.1563 79.9007 14.9846C79.911 14.8025 79.9571 14.6242 80.0365 14.4599C80.1221 14.2733 80.2534 14.1111 80.4182 13.9882C80.5808 13.8688 80.7729 13.7957 80.9739 13.7766C81.2015 13.7564 81.4304 13.7988 81.6356 13.8993C81.8068 13.9741 81.9667 14.0723 82.1107 14.1913C82.2442 14.303 82.3556 14.4386 82.4394 14.5911C82.5054 14.7039 82.5466 14.8293 82.5603 14.9592C82.5729 15.119 82.5643 15.2797 82.5348 15.4373C82.4952 15.6582 82.4421 15.8765 82.3758 16.091C82.3995 16.1252 82.4316 16.1529 82.4691 16.1714C82.5214 16.2033 82.5778 16.2282 82.6366 16.2454C82.679 16.2651 82.7267 16.2703 82.7724 16.2602C82.9526 15.9239 83.1266 15.6256 83.2962 15.3442C83.4659 15.0628 83.625 14.8386 83.7734 14.6482C83.6016 14.5403 83.4298 14.4367 83.258 14.3097C83.0863 14.1828 82.9039 14.058 82.6918 13.9268C82.4483 13.7794 82.1969 13.6452 81.9389 13.5249C81.6175 13.3734 81.275 13.2714 80.923 13.2224C80.5996 13.1752 80.2703 13.1881 79.9516 13.2604C79.6451 13.3331 79.3589 13.4733 79.1139 13.6708C78.7593 13.9596 78.4995 14.3477 78.368 14.7851C78.2365 15.2224 78.2392 15.689 78.3758 16.1248C78.4624 16.3957 78.5776 16.6567 78.7194 16.9033C78.8679 17.1635 79.0333 17.428 79.2199 17.7009C79.4066 17.9738 79.572 18.2467 79.6908 18.4667C79.7974 18.6533 79.8828 18.8513 79.9453 19.0569C79.9925 19.2152 80.0098 19.381 79.9962 19.5456C79.9801 19.7055 79.9348 19.8611 79.8626 20.0047C79.7738 20.2115 79.6263 20.388 79.4384 20.5124C79.2699 20.6148 79.0758 20.6676 78.8785 20.6647C78.6741 20.663 78.4728 20.616 78.2889 20.5272C78.1583 20.468 78.0334 20.3972 77.9156 20.3156C77.7946 20.2335 77.6823 20.1392 77.5805 20.0343C77.4797 19.9317 77.3927 19.8165 77.3218 19.6916C77.176 19.4253 77.0858 19.1325 77.0567 18.8306C77.0228 18.4462 77.0342 18.0593 77.0906 17.6776M85.1817 24.9084C85.5551 25.1508 85.9605 25.3402 86.3863 25.4711C86.8093 25.5975 87.2492 25.6582 87.6906 25.6509C88.145 25.6424 88.5946 25.5573 89.0204 25.3992C89.4516 25.242 89.8499 25.0068 90.1954 24.7053C90.5638 24.3818 90.8844 24.0078 91.1476 23.5947C91.3804 23.2377 91.5644 22.8514 91.6948 22.4459C91.8184 22.0551 91.8813 21.6478 91.8815 21.238C91.8792 20.8305 91.8074 20.4263 91.6694 20.0427C91.5238 19.6358 91.3085 19.2571 91.0331 18.9236C90.7085 18.5423 90.3273 18.2127 89.9027 17.9463C89.5319 17.7061 89.1312 17.5155 88.7108 17.3793C88.3203 17.2534 87.9141 17.1822 87.504 17.1678C87.1222 17.1512 86.7401 17.194 86.3715 17.2947C86.0283 17.3647 85.6978 17.4867 85.3916 17.6564C85.1015 17.8271 84.8355 18.0356 84.6005 18.2763C84.36 18.5152 84.1467 18.7798 83.9643 19.0654C83.7662 19.3666 83.6006 19.6878 83.4701 20.0237C83.3353 20.3635 83.2441 20.7189 83.1987 21.0814C83.1536 21.4598 83.1658 21.8427 83.2347 22.2175C83.296 22.5538 83.406 22.8795 83.5613 23.1843C83.7304 23.514 83.9445 23.8187 84.1976 24.0897C84.4938 24.3998 84.8263 24.6733 85.188 24.9042M85.8709 24.6461C85.4293 24.3717 85.0937 23.9564 84.9187 23.4677C84.8217 23.1642 84.7744 22.847 84.7787 22.5284C84.7838 22.1982 84.8265 21.8696 84.906 21.549C85.1819 20.5117 85.7159 19.5607 86.4584 18.784C86.7061 18.5231 86.9922 18.3012 87.3068 18.1261C87.593 17.9685 87.9131 17.8821 88.2399 17.8743C88.4212 17.8705 88.6019 17.897 88.7744 17.9526C89.2056 18.0927 89.5846 18.3588 89.8624 18.7163C90.0104 18.9163 90.1244 19.1393 90.1996 19.3763C90.288 19.6553 90.3296 19.947 90.3226 20.2395C90.3173 20.5502 90.2745 20.8591 90.1954 21.1597C90.1107 21.477 89.9986 21.7863 89.8603 22.0842C89.7175 22.3905 89.5539 22.6867 89.3704 22.9706C89.166 23.2876 88.9362 23.5876 88.6832 23.8676C88.4513 24.1264 88.1885 24.3559 87.9006 24.5509C87.6448 24.7262 87.3563 24.8485 87.0523 24.9105C86.851 24.941 86.6458 24.9323 86.4478 24.8851C86.2411 24.8392 86.0443 24.7568 85.8667 24.6418M98.6746 29.0125C98.6746 29.0273 98.6746 29.0505 98.7 29.0823C98.7291 29.1212 98.7625 29.1567 98.7997 29.188C98.8382 29.222 98.8786 29.2538 98.9206 29.2832C98.9494 29.302 98.982 29.3143 99.016 29.3192C99.1433 29.2071 99.2811 29.0907 99.4402 28.968C99.5993 28.8453 99.752 28.7184 99.9153 28.5978C100.079 28.4772 100.225 28.3672 100.365 28.2678C100.505 28.1684 100.622 28.0901 100.717 28.0266C100.592 27.8722 100.45 27.6797 100.293 27.4554C100.136 27.2312 99.9513 26.9837 99.752 26.7235C99.5526 26.4633 99.3278 26.2031 99.0966 25.945C98.7606 25.5779 98.3859 25.2481 97.9789 24.9613C97.6375 24.7195 97.2642 24.5259 96.8697 24.3859C96.507 24.2539 96.1269 24.1755 95.7414 24.1532C95.3802 24.133 95.0179 24.1658 94.6661 24.2505C94.3196 24.3352 93.9858 24.4654 93.6736 24.6376C93.3588 24.8139 93.0662 25.0269 92.8019 25.2722C92.1864 25.8118 91.7228 26.5024 91.4573 27.2756C91.2395 27.9703 91.2469 28.7157 91.4785 29.4059C91.7608 30.2157 92.2201 30.9528 92.8231 31.5638C93.0135 31.7655 93.2153 31.9562 93.4276 32.1349C93.6004 32.2773 93.7809 32.4101 93.9684 32.5327C94.1338 32.6384 94.278 32.7273 94.4032 32.795C94.5437 32.817 94.6868 32.817 94.8273 32.795C95.0181 32.7704 95.2072 32.7343 95.3936 32.6871C95.5911 32.6394 95.7858 32.5808 95.9768 32.5115C96.1406 32.458 96.3001 32.3922 96.454 32.3148C96.4678 32.2674 96.4721 32.2178 96.4668 32.1688C96.4615 32.1122 96.4508 32.0562 96.4349 32.0017C96.4255 31.9584 96.409 31.917 96.3862 31.879C96.1889 31.9255 95.9917 31.9615 95.7966 31.9932C95.611 32.0205 95.4241 32.0382 95.2367 32.0461C95.0772 32.0591 94.9169 32.0591 94.7573 32.0461C94.5926 32.0301 94.4315 31.988 94.2802 31.9213C94.1346 31.8578 93.9978 31.776 93.8729 31.678C93.7521 31.587 93.6399 31.485 93.5379 31.3734C93.2637 31.0866 93.0476 30.7497 92.9016 30.3812C92.7728 30.0548 92.7115 29.7058 92.7213 29.3552C92.7342 29.0072 92.8059 28.6639 92.9334 28.3397C93.0607 28.0023 93.2318 27.6829 93.4424 27.3899C93.6579 27.0827 93.9053 26.7991 94.1805 26.5437C94.6536 26.0812 95.2098 25.7116 95.8199 25.4542C96.2829 25.2583 96.7945 25.2067 97.2875 25.3061C97.758 25.4146 98.1828 25.6667 98.5028 26.0275C98.6907 26.2227 98.8597 26.4352 99.0075 26.6621C99.1511 26.8831 99.2592 27.1251 99.3278 27.3793C99.3739 27.5498 99.3804 27.7285 99.3469 27.9018C99.3077 28.0818 99.2358 28.2532 99.1348 28.4074C99.0011 28.6149 98.856 28.8147 98.7 29.0061M101.718 30.0385C101.792 30.1739 101.852 30.2945 101.903 30.3981C101.952 30.5006 101.995 30.6058 102.032 30.7133C102.05 30.766 102.057 30.8217 102.054 30.8773C102.05 30.9328 102.035 30.9871 102.011 31.037C101.947 31.1443 101.864 31.2384 101.765 31.3141C101.614 31.4305 101.444 31.5574 101.254 31.6928L100.583 32.1709L99.6756 32.8055L98.8739 33.364C98.6067 33.5523 98.3522 33.7258 98.1147 33.8929C97.8771 34.06 97.6629 34.2039 97.4784 34.316C97.2939 34.4281 97.1582 34.5276 97.067 34.5826C96.9656 34.6465 96.8575 34.699 96.7446 34.7391C96.6652 34.7643 96.58 34.7643 96.5007 34.7391C96.4084 34.7064 96.3249 34.6528 96.2568 34.5826C96.1887 34.5237 96.1243 34.4608 96.0638 34.3943C95.9938 34.3245 95.9175 34.2356 95.8284 34.132C95.7831 34.1288 95.7381 34.1415 95.7011 34.1679C95.6476 34.1973 95.5971 34.2321 95.5505 34.2716C95.513 34.2973 95.4859 34.3356 95.4742 34.3795C95.5611 34.5043 95.6608 34.6376 95.7648 34.7772C95.8687 34.9168 95.9938 35.0797 96.1338 35.2722C96.2738 35.4647 96.4455 35.6953 96.6407 35.9746C96.8803 36.3152 97.0797 36.6092 97.2472 36.8652C97.4148 37.1212 97.559 37.3391 97.6841 37.5274C97.7277 37.5337 97.7722 37.5263 97.8114 37.5062C97.8681 37.4832 97.9221 37.4541 97.9726 37.4195C98.013 37.3977 98.0462 37.3646 98.068 37.3243C98.0044 37.1973 97.9408 37.0725 97.8814 36.9519C97.8302 36.8505 97.7856 36.7459 97.7478 36.6388C97.7048 36.5419 97.6915 36.4344 97.7096 36.33C97.7298 36.2445 97.773 36.1662 97.8347 36.1036C97.9 36.0364 97.971 35.9748 98.0468 35.9196C98.2398 35.7694 98.5494 35.5451 98.9672 35.249C99.3851 34.9528 99.9025 34.591 100.511 34.1658L101.394 33.5502C101.671 33.3598 101.915 33.1906 102.129 33.0467C102.344 32.9029 102.513 32.7886 102.643 32.7104C102.73 32.6489 102.822 32.5951 102.918 32.5496C102.989 32.514 103.068 32.4973 103.147 32.5009C103.231 32.5122 103.311 32.545 103.379 32.5961C103.46 32.6595 103.535 32.7303 103.603 32.8077C103.684 32.8923 103.773 32.9854 103.866 33.0869C103.911 33.0827 103.953 33.0666 103.989 33.0404C104.039 33.0101 104.086 32.9754 104.129 32.9367C104.163 32.914 104.191 32.8835 104.21 32.8479C104.155 32.7696 104.081 32.6702 103.985 32.5453C103.89 32.4205 103.773 32.2619 103.627 32.0672C103.48 31.8726 103.307 31.6293 103.103 31.3374C102.868 30.9989 102.665 30.6985 102.494 30.4362C102.325 30.176 102.18 29.9602 102.07 29.8015C102.029 29.804 101.988 29.8171 101.953 29.8396C101.9 29.8653 101.85 29.8973 101.805 29.9348C101.768 29.9584 101.738 29.9922 101.72 30.0321M98.2228 37.3158C98.178 37.322 98.1344 37.3348 98.0935 37.3539C98.0393 37.3761 97.9869 37.4023 97.9365 37.4322C97.8989 37.4521 97.8657 37.4795 97.839 37.5125C97.9302 37.686 98.0362 37.8806 98.1571 38.0943C98.278 38.308 98.4031 38.5386 98.5346 38.7882C98.7043 39.1267 98.8457 39.4228 98.9588 39.6767C99.0775 39.9306 99.1709 40.1336 99.2472 40.286C99.2914 40.2857 99.3351 40.2779 99.3766 40.2627C99.4355 40.2445 99.4929 40.2219 99.5484 40.195C99.588 40.1801 99.6235 40.1562 99.6523 40.1252C99.6077 40.0088 99.5717 39.9009 99.542 39.7994C99.5123 39.6979 99.4869 39.5984 99.4656 39.5011C99.4382 39.4099 99.4317 39.3138 99.4466 39.2198C99.4584 39.157 99.4904 39.0998 99.5378 39.0569C99.5848 39.0155 99.6377 38.9813 99.6947 38.9553C99.7862 38.9173 99.8815 38.889 99.9789 38.8707C100.113 38.8432 100.267 38.8178 100.443 38.7924C100.619 38.767 100.804 38.7374 100.995 38.7141L101.548 38.6443C101.582 38.6445 101.615 38.6517 101.646 38.6655C101.675 38.674 101.701 38.6928 101.718 38.7184C101.748 38.7649 101.782 38.8263 101.822 38.9024C101.862 38.9786 101.915 39.0738 101.977 39.1944L102.204 39.6429L102.401 40.0215C102.467 40.1463 102.526 40.2585 102.577 40.3579C102.628 40.4573 102.67 40.5441 102.698 40.6096C102.706 40.6352 102.706 40.6624 102.698 40.6879C102.691 40.7118 102.681 40.7346 102.668 40.7556C102.575 40.8593 102.469 40.9777 102.344 41.111L101.956 41.5341L101.567 41.9297C101.442 42.0545 101.332 42.1561 101.237 42.2386C101.202 42.2732 101.156 42.2955 101.107 42.302C101.04 42.3108 100.973 42.2933 100.918 42.2534C100.841 42.1901 100.77 42.1192 100.706 42.0418C100.63 41.9487 100.552 41.8472 100.473 41.7372C100.429 41.736 100.386 41.747 100.348 41.7689C100.293 41.7943 100.24 41.8239 100.189 41.8535C100.153 41.8771 100.119 41.9033 100.087 41.9318C100.155 42.0524 100.231 42.192 100.316 42.3549C100.401 42.5178 100.501 42.6892 100.613 42.8965C100.725 43.1038 100.851 43.3471 100.991 43.6242C101.186 44.0092 101.347 44.3386 101.474 44.6122C101.601 44.8851 101.703 45.0987 101.777 45.2468C101.821 45.2456 101.864 45.2377 101.905 45.2235C101.964 45.2061 102.021 45.1835 102.076 45.1558C102.116 45.1416 102.152 45.1176 102.18 45.086C102.111 44.9019 102.055 44.7131 102.013 44.5212C101.983 44.3889 101.983 44.2516 102.013 44.1193C102.055 43.9801 102.122 43.8497 102.21 43.7342C102.312 43.5967 102.454 43.4275 102.634 43.2244C102.772 43.0678 102.95 42.8732 103.162 42.6405C103.374 42.4078 103.614 42.154 103.875 41.8768L104.679 41.0306L105.48 40.1844C105.741 39.9136 105.977 39.664 106.189 39.4419C106.401 39.2198 106.579 39.0357 106.713 38.8918C106.797 38.803 106.889 38.712 106.988 38.6168C107.088 38.5216 107.181 38.4349 107.264 38.3609C107.228 38.3059 107.188 38.2403 107.139 38.1493C107.09 38.0583 107.035 37.9653 106.973 37.8426C106.912 37.7199 106.876 37.6479 106.836 37.5549C106.795 37.4618 106.757 37.3793 106.727 37.3073C106.645 37.335 106.56 37.3583 106.475 37.3771C106.373 37.3983 106.263 37.4195 106.155 37.4364C106.047 37.4533 105.943 37.466 105.845 37.4766C105.684 37.4998 105.468 37.5274 105.196 37.5612C104.925 37.595 104.617 37.6331 104.274 37.6754C103.93 37.7177 103.563 37.7579 103.177 37.8024L102.011 37.9293C101.618 37.9695 101.239 38.0055 100.874 38.0393C100.509 38.0732 100.172 38.1007 99.8686 38.1218C99.6755 38.1406 99.4812 38.1442 99.2875 38.1324C99.1499 38.1263 99.015 38.0925 98.8909 38.033C98.7681 37.9688 98.6587 37.8819 98.5685 37.777C98.4407 37.6317 98.3224 37.4784 98.2143 37.3179M105.213 38.1768C105.12 38.2805 105.001 38.4011 104.878 38.5364C104.755 38.6718 104.611 38.8178 104.467 38.9595C104.322 39.1013 104.178 39.2578 104.042 39.4038C103.907 39.5498 103.769 39.683 103.646 39.8036L103.336 40.1104C103.319 40.1141 103.302 40.1141 103.285 40.1104C103.274 40.1143 103.261 40.1143 103.249 40.1104C103.226 40.0744 103.194 40.0152 103.152 39.9369C103.109 39.8586 103.061 39.7719 103.007 39.6682C102.954 39.5646 102.899 39.4567 102.84 39.3361C102.747 39.1563 102.668 38.9997 102.602 38.8686C102.537 38.7374 102.492 38.6422 102.465 38.5724L102.477 38.5343C102.494 38.5206 102.513 38.5112 102.535 38.5068L103.12 38.4201L103.83 38.3164L104.556 38.2128C104.793 38.1789 105.005 38.1493 105.192 38.126L105.213 38.1451V38.1768ZM108.846 42.9494C108.872 43.0784 108.895 43.2032 108.92 43.3281C108.943 43.4318 108.956 43.5372 108.961 43.6433C108.975 43.7339 108.964 43.8265 108.931 43.9119C108.898 43.9831 108.845 44.0433 108.778 44.0854C108.693 44.1379 108.602 44.1812 108.507 44.2145C108.373 44.2737 108.199 44.3435 107.987 44.426C107.775 44.5085 107.506 44.5974 107.186 44.7074L106.021 45.0945C105.676 45.2144 105.342 45.3286 105.018 45.4372C104.694 45.5472 104.399 45.6488 104.125 45.7355C103.852 45.8222 103.625 45.8984 103.434 45.947C103.243 45.9957 103.109 46.0444 103.031 46.0613C102.911 46.1003 102.784 46.1097 102.66 46.0888C102.553 46.056 102.461 45.9853 102.403 45.8899C102.358 45.8273 102.318 45.7616 102.282 45.6932C102.246 45.6318 102.21 45.562 102.172 45.4816C102.134 45.4012 102.087 45.2997 102.03 45.1728C101.989 45.1626 101.946 45.1626 101.905 45.1728C101.845 45.1875 101.787 45.2073 101.731 45.232C101.689 45.2486 101.651 45.2747 101.62 45.3082C101.69 45.5007 101.784 45.7503 101.9 46.0549C102.017 46.3596 102.149 46.7234 102.295 47.1381C102.354 47.3115 102.42 47.5104 102.494 47.7346C102.568 47.9589 102.641 48.1958 102.721 48.4455C102.802 48.6951 102.88 48.9426 102.961 49.1943L103.192 49.92C103.268 50.1505 103.336 50.36 103.404 50.5546C103.445 50.681 103.495 50.8041 103.555 50.9227C103.585 50.9905 103.627 51.0527 103.678 51.1068C103.709 51.136 103.749 51.1533 103.792 51.1554C103.932 51.1826 104.074 51.1989 104.216 51.2041C104.386 51.2041 104.573 51.2168 104.774 51.2146C104.976 51.2125 105.171 51.2146 105.364 51.1998C105.557 51.185 105.733 51.1808 105.885 51.1681C106.038 51.1554 106.157 51.1448 106.235 51.13C106.264 51.0887 106.281 51.0405 106.284 50.9904C106.291 50.92 106.291 50.8492 106.284 50.7789C106.284 50.7301 106.272 50.6821 106.248 50.6392C106.057 50.6244 105.854 50.6012 105.639 50.5715C105.425 50.5419 105.215 50.5081 105.027 50.4679C104.838 50.4277 104.664 50.3875 104.526 50.3452C104.359 50.295 104.204 50.2123 104.07 50.1019C103.973 50.0121 103.9 49.8993 103.858 49.774C103.805 49.6322 103.752 49.4778 103.695 49.3107C103.637 49.1436 103.582 48.9764 103.531 48.8093C103.48 48.6422 103.436 48.4899 103.4 48.3503C103.371 48.2405 103.349 48.1288 103.336 48.016C103.338 47.9477 103.361 47.8815 103.4 47.8256C103.456 47.7466 103.535 47.6868 103.627 47.6543C103.724 47.6119 103.877 47.5527 104.083 47.4766C104.288 47.4004 104.532 47.3115 104.81 47.21C105.088 47.1085 105.393 46.9984 105.718 46.8906C106.042 46.7827 106.375 46.6663 106.713 46.5521C107.124 46.4103 107.493 46.2876 107.82 46.1776C108.146 46.0676 108.422 45.9661 108.645 45.9026L109.126 45.7503C109.209 45.7226 109.295 45.7042 109.383 45.6953C109.452 45.6859 109.522 45.6993 109.582 45.7334C109.655 45.7766 109.717 45.836 109.762 45.9069C109.803 45.964 109.845 46.0359 109.894 46.1184C109.943 46.2009 110.006 46.33 110.083 46.4717C110.126 46.4816 110.171 46.4816 110.214 46.4717C110.271 46.459 110.327 46.4399 110.38 46.4146C110.419 46.4003 110.453 46.3754 110.479 46.3426C110.435 46.2136 110.38 46.0719 110.32 45.9195C110.261 45.7672 110.191 45.5811 110.108 45.3716C110.025 45.1622 109.938 44.9168 109.841 44.6291C109.758 44.3922 109.69 44.187 109.629 44.0135C109.567 43.84 109.525 43.6877 109.482 43.5544C109.44 43.4211 109.406 43.2984 109.37 43.1863C109.334 43.0742 109.3 42.9621 109.26 42.8478C109.221 42.8341 109.179 42.8341 109.141 42.8478C109.082 42.8536 109.024 42.8671 108.969 42.888C108.925 42.9018 108.884 42.9257 108.85 42.9578" fill="#12100B"/>
<path d="M23.8528 87.2163C23.9143 87.3263 23.9588 87.4278 23.9949 87.5019C24.0323 87.5788 24.0648 87.6579 24.0924 87.7388C24.1416 87.8601 24.162 87.9912 24.1518 88.1217C24.1316 88.2779 24.085 88.4295 24.0139 88.5702C23.9312 88.7437 23.8019 88.9616 23.6428 89.2323C23.5155 89.4439 23.3586 89.6935 23.1762 89.9833C22.9938 90.2732 22.7902 90.5841 22.5675 90.9247L21.8655 92.0079C21.6195 92.3887 21.365 92.7737 21.1084 93.1714C20.9189 93.4662 20.7365 93.7419 20.5612 93.9986C20.383 94.2545 20.2112 94.4936 20.0479 94.7136C20.1052 94.7792 20.1709 94.8596 20.2452 94.9569L20.4573 95.2552C20.5163 95.3375 20.5708 95.4229 20.6206 95.5111C20.8136 95.4498 21.066 95.3736 21.3714 95.2827C21.6768 95.1917 22.0522 95.0923 22.4848 94.9823L23.787 94.6628L25.0892 94.3455L26.2621 94.0641L27.1783 93.8526C27.3904 93.8061 27.5876 93.7701 27.7424 93.7468C27.8763 93.7251 28.0125 93.7209 28.1475 93.7341C28.2686 93.7501 28.3853 93.7896 28.4911 93.8505C28.5727 93.8996 28.6501 93.9555 28.7223 94.0176C28.8043 94.0853 28.8955 94.1657 28.9958 94.2588C29.041 94.252 29.0839 94.2346 29.121 94.208C29.1691 94.1774 29.2145 94.1427 29.2567 94.1043C29.2871 94.0828 29.3112 94.0536 29.3267 94.0197C29.2694 93.9414 29.2016 93.8547 29.1146 93.7553C29.0277 93.6559 28.9407 93.5332 28.8283 93.3893C28.7159 93.2454 28.5823 93.072 28.4317 92.8625C28.1744 92.5071 27.9778 92.2251 27.8421 92.0163C27.7064 91.8048 27.6109 91.6567 27.5537 91.5742C27.5121 91.5753 27.4714 91.5861 27.4349 91.6059C27.3806 91.6311 27.3282 91.6601 27.2779 91.6927C27.2395 91.7151 27.2063 91.7454 27.1804 91.7815C27.2537 91.9088 27.3196 92.0401 27.3776 92.175C27.4307 92.2935 27.4752 92.3992 27.5091 92.4923C27.5438 92.5539 27.5608 92.6238 27.5582 92.6943C27.5556 92.7649 27.5335 92.8334 27.4943 92.8922C27.3726 93.0169 27.2171 93.1037 27.0468 93.1418C26.8941 93.1968 26.6905 93.2624 26.4402 93.3385C26.1899 93.4147 25.9079 93.4951 25.5919 93.5797C25.2759 93.6643 24.9683 93.7511 24.6396 93.8378C24.3109 93.9245 24.0033 94.0049 23.6979 94.0832C23.3925 94.1615 23.1253 94.227 22.8878 94.2842C22.6502 94.3413 22.4636 94.3836 22.3279 94.4111L22.3045 94.3878L22.2897 94.3603C22.3427 94.2693 22.4254 94.1361 22.5336 93.9605C22.6418 93.7849 22.7732 93.5776 22.9238 93.3449L23.4031 92.5939L23.944 91.79C24.1179 91.5234 24.2833 91.2675 24.4424 91.0263C24.6014 90.7851 24.7435 90.5651 24.8665 90.3768L25.1698 89.9305C25.2099 89.8637 25.27 89.8112 25.3416 89.7803C25.3701 89.7667 25.4012 89.7597 25.4328 89.7597C25.4644 89.7597 25.4955 89.7667 25.524 89.7803C25.5985 89.8271 25.6694 89.8794 25.7361 89.9368C25.8273 90.0108 25.9333 90.1018 26.0542 90.2139C26.0967 90.2085 26.1374 90.1933 26.173 90.1695C26.2236 90.139 26.2706 90.1028 26.313 90.0616C26.3462 90.0375 26.3696 90.0022 26.3787 89.9622C26.3299 89.8945 26.243 89.7866 26.1284 89.6385L25.7255 89.1139C25.5728 88.915 25.4158 88.7035 25.2546 88.4792C25.1613 88.3523 25.0659 88.2169 24.9683 88.0752C24.8708 87.9334 24.7753 87.7959 24.682 87.6521L24.4212 87.2755C24.3427 87.1592 24.2748 87.0639 24.2091 86.9814C24.19 86.9814 24.1539 86.9814 24.1009 87.0111C24.0466 87.0366 23.9948 87.0671 23.9461 87.102C23.9053 87.1265 23.8705 87.1598 23.8443 87.1993M27.9375 103.239C28.2751 103.513 28.65 103.738 29.051 103.908C29.4495 104.075 29.8717 104.179 30.3023 104.216C30.7444 104.255 31.1899 104.218 31.6193 104.106C32.0548 103.999 32.4662 103.811 32.8325 103.552C33.2239 103.276 33.5739 102.945 33.8717 102.571C34.1366 102.25 34.3558 101.894 34.5228 101.513C34.6829 101.146 34.7859 100.757 34.8282 100.36C34.8684 99.9625 34.8404 99.5611 34.7455 99.1731C34.6424 98.7631 34.4695 98.3739 34.2344 98.0222C33.9634 97.6215 33.6322 97.2647 33.2524 96.9645C32.917 96.6926 32.5468 96.4664 32.1517 96.2918C31.7853 96.1287 31.3975 96.0183 31.0001 95.9639C30.631 95.9077 30.2556 95.9077 29.8866 95.9639C29.5461 95.9963 29.2127 96.0812 28.8983 96.2156C28.5939 96.3478 28.3086 96.5199 28.0499 96.7276C27.79 96.935 27.5538 97.1706 27.3458 97.4299C27.1224 97.7029 26.9283 97.9986 26.7668 98.3121C26.5997 98.6304 26.4743 98.9689 26.3936 99.3191C26.311 99.6824 26.2839 100.056 26.313 100.428C26.335 100.761 26.4064 101.09 26.525 101.403C26.6562 101.741 26.8347 102.058 27.0553 102.346C27.3107 102.678 27.6055 102.978 27.9333 103.239M28.6247 103.057C28.2223 102.747 27.9381 102.309 27.8188 101.815C27.7554 101.511 27.7418 101.198 27.7785 100.889C27.8176 100.568 27.893 100.253 28.0033 99.9495C28.1178 99.6392 28.2597 99.3397 28.4275 99.0546C28.5872 98.7783 28.7687 98.5152 28.9704 98.2676C29.2168 97.9578 29.4947 97.6742 29.7997 97.4214C30.0682 97.1921 30.3708 97.0058 30.6968 96.8693C30.991 96.7444 31.3113 96.6928 31.63 96.7191C31.8071 96.7345 31.9805 96.7788 32.1432 96.8503C32.3158 96.9248 32.4772 97.0231 32.6225 97.1422C32.822 97.2982 32.9915 97.4888 33.123 97.7049C33.247 97.9136 33.3345 98.1418 33.3818 98.3798C33.4398 98.6581 33.4506 98.9441 33.4136 99.226C33.3791 99.5275 33.3079 99.8238 33.2015 100.108C33.0859 100.41 32.9439 100.701 32.7773 100.978C32.6074 101.261 32.4175 101.532 32.2089 101.788C31.9791 102.077 31.7251 102.346 31.4497 102.592C31.1972 102.819 30.9181 103.015 30.6183 103.176C30.3495 103.321 30.0535 103.411 29.7487 103.438C29.5505 103.447 29.3523 103.418 29.1655 103.351C28.9691 103.285 28.786 103.185 28.6247 103.055M35.2969 95.5471C35.1924 95.5411 35.0876 95.5411 34.983 95.5471C34.8346 95.5577 34.6628 95.5725 34.4698 95.5915L33.8823 95.6529L33.3457 95.7185L32.9873 95.7671C32.9641 95.8014 32.9523 95.8421 32.9534 95.8835C32.9481 95.9419 32.9481 96.0007 32.9534 96.0591C32.9517 96.0974 32.9605 96.1354 32.9788 96.1691C33.0412 96.194 33.1058 96.2132 33.1718 96.2262C33.2821 96.2558 33.4242 96.2897 33.596 96.3277L34.1474 96.4441C34.3404 96.4822 34.5313 96.5181 34.7137 96.5499C34.8961 96.5816 35.0551 96.6091 35.1909 96.6281C35.2848 96.6437 35.3798 96.6521 35.4751 96.6535L35.5132 96.6324L35.5535 96.5816C35.5641 96.5675 35.5701 96.5505 35.5705 96.5329C35.5813 96.4628 35.5813 96.3915 35.5705 96.3214C35.5578 96.2262 35.5366 96.1246 35.5111 96.0146C35.4857 95.9158 35.4553 95.8184 35.4199 95.7227C35.3979 95.6559 35.3617 95.5945 35.3139 95.5429M44.5736 104.663L44.809 104.764L45.0359 104.874C45.1059 104.912 45.1674 104.948 45.2162 104.98C45.2883 105.026 45.3516 105.085 45.4028 105.154C45.4421 105.213 45.4641 105.282 45.4664 105.352C45.4681 105.45 45.4589 105.547 45.4389 105.642C45.3752 105.913 45.2819 106.262 45.161 106.7C45.0401 107.138 44.898 107.627 44.7369 108.181C44.6096 108.621 44.4923 109.026 44.3848 109.395C44.2773 109.765 44.1798 110.094 44.0921 110.383C44.0073 110.658 43.9352 110.874 43.88 111.033C43.839 111.173 43.7606 111.301 43.6531 111.401C43.5577 111.473 43.4393 111.507 43.3201 111.498C43.2077 111.498 43.0868 111.481 42.9659 111.466C42.8234 111.449 42.6818 111.424 42.5418 111.392C42.5206 111.392 42.5015 111.43 42.4803 111.483C42.4576 111.539 42.4405 111.597 42.4294 111.657C42.4201 111.703 42.4201 111.752 42.4294 111.798L42.9469 111.946C43.5152 112.118 44.0433 112.279 44.5269 112.431C45.0105 112.583 45.4452 112.712 45.8164 112.82C46.2282 112.942 46.6497 113.028 47.0762 113.078C47.4685 113.126 47.8652 113.126 48.2575 113.078C48.6466 113.03 49.027 112.929 49.3879 112.776C49.7069 112.639 50.0053 112.459 50.2744 112.241C50.5725 111.999 50.832 111.714 51.0443 111.394C51.2887 111.012 51.4746 110.596 51.5957 110.159C51.7018 109.797 51.7582 109.421 51.7633 109.044C51.7685 108.682 51.7214 108.32 51.6233 107.971C51.4028 107.182 50.8945 106.503 50.1981 106.067C49.7607 105.794 49.2855 105.587 48.7877 105.452C48.5353 105.38 48.3105 105.317 48.1133 105.266L47.5618 105.122L47.038 104.991L46.4442 104.834L46.1536 104.747L45.7634 104.627L45.3392 104.491C45.2013 104.451 45.0783 104.411 44.968 104.377L44.7263 104.303C44.6953 104.332 44.6707 104.366 44.6541 104.405C44.6289 104.456 44.6083 104.509 44.5926 104.563C44.5782 104.603 44.5724 104.644 44.5757 104.686M45.5195 111.38C45.5343 111.295 45.564 111.168 45.6085 110.99C45.6531 110.813 45.704 110.618 45.7697 110.383C45.8355 110.148 45.9055 109.899 45.9818 109.626C46.0582 109.353 46.1409 109.076 46.2236 108.78L46.4251 108.079C46.4951 107.836 46.565 107.595 46.6372 107.356C46.7093 107.117 46.7729 106.888 46.8344 106.675C46.8959 106.461 46.951 106.277 46.9998 106.116C47.0486 105.955 47.0868 105.835 47.1122 105.748C47.1304 105.711 47.1556 105.677 47.1865 105.649C47.2113 105.624 47.2419 105.606 47.2755 105.596C47.3464 105.589 47.4178 105.593 47.4876 105.606C47.5858 105.622 47.6829 105.644 47.7782 105.672C48.0996 105.759 48.4094 105.885 48.7007 106.046C48.9709 106.196 49.2111 106.394 49.4091 106.63C49.6401 106.91 49.8124 107.233 49.916 107.58C50.0211 107.94 50.0704 108.314 50.0623 108.689C50.054 109.083 49.9941 109.474 49.8842 109.852C49.7794 110.23 49.6373 110.596 49.46 110.946C49.3213 111.222 49.1481 111.479 48.9446 111.712C48.7668 111.91 48.5644 112.085 48.3423 112.232C48.1604 112.35 47.9626 112.442 47.7548 112.505C47.5724 112.558 47.3828 112.583 47.1928 112.579C47.0103 112.573 46.8292 112.544 46.6541 112.492C46.5284 112.457 46.4057 112.412 46.2872 112.357C46.15 112.299 46.0186 112.228 45.8948 112.145C45.7727 112.072 45.6649 111.978 45.5767 111.866C45.5361 111.788 45.5095 111.704 45.4983 111.616C45.483 111.538 45.483 111.458 45.4983 111.38M54.2701 107.301C54.3486 107.316 54.4249 107.335 54.5077 107.354L54.7367 107.419C54.8109 107.443 54.8724 107.466 54.9233 107.487C55.048 107.531 55.1501 107.622 55.2075 107.741C55.2586 107.876 55.2775 108.021 55.2627 108.164C55.2436 108.414 55.2203 108.695 55.1927 109.01C55.1651 109.325 55.1376 109.662 55.1079 110.009C55.0782 110.356 55.0548 110.698 55.0315 111.035C55.0082 111.371 54.9912 111.669 54.9785 111.955C54.9658 112.241 54.9636 112.467 54.9785 112.651C54.9838 112.968 55.0403 113.283 55.146 113.582C55.254 113.879 55.4238 114.15 55.6444 114.377C55.9026 114.633 56.2109 114.833 56.55 114.965C56.9954 115.135 57.4635 115.239 57.9392 115.272C58.3537 115.314 58.7719 115.298 59.182 115.226C59.5565 115.159 59.9127 115.015 60.2276 114.802C60.5544 114.572 60.8242 114.27 61.0166 113.92C61.2535 113.477 61.4128 112.997 61.4874 112.501C61.5298 112.289 61.5701 112.035 61.6104 111.754C61.6507 111.473 61.691 111.179 61.7292 110.863C61.7674 110.548 61.8055 110.229 61.8416 109.918C61.8776 109.607 61.9137 109.3 61.9476 109.012C61.967 108.846 62.0011 108.682 62.0494 108.521C62.0789 108.418 62.1361 108.324 62.2149 108.251C62.2944 108.189 62.3888 108.15 62.4884 108.136C62.5734 108.116 62.66 108.102 62.7472 108.096L63.0356 108.067C63.0642 108.036 63.082 107.996 63.0865 107.955C63.0918 107.897 63.0918 107.839 63.0865 107.781C63.0896 107.739 63.08 107.697 63.059 107.66C62.972 107.66 62.866 107.648 62.7408 107.644C62.6157 107.639 62.4588 107.629 62.27 107.618C62.0812 107.608 61.8458 107.593 61.5765 107.57C61.2562 107.54 60.9657 107.508 60.7006 107.474C60.4355 107.44 60.2085 107.413 60.0092 107.394C59.985 107.431 59.9691 107.473 59.9625 107.517C59.9527 107.571 59.947 107.626 59.9455 107.682C59.9423 107.722 59.9473 107.762 59.9604 107.8C60.1004 107.832 60.2319 107.861 60.3506 107.895C60.4572 107.92 60.562 107.952 60.6645 107.99C60.781 108.016 60.8895 108.07 60.9805 108.147C61.0573 108.223 61.1085 108.32 61.1269 108.426C61.1564 108.571 61.165 108.719 61.1523 108.866C61.1523 109.048 61.1417 109.26 61.1205 109.501C61.1035 109.742 61.0866 109.998 61.0611 110.271C61.0357 110.544 61.0123 110.817 60.9848 111.09C60.9572 111.363 60.9254 111.625 60.8957 111.872C60.866 112.12 60.8363 112.34 60.8066 112.532C60.7566 112.909 60.6426 113.275 60.4694 113.613C60.3447 113.854 60.1635 114.061 59.9413 114.216C59.7474 114.347 59.5262 114.433 59.2944 114.466C59.065 114.502 58.8318 114.508 58.6009 114.483C58.2413 114.459 57.8898 114.366 57.5659 114.208C57.3095 114.08 57.0904 113.888 56.9297 113.652C56.7761 113.423 56.6801 113.161 56.6497 112.888C56.6247 112.735 56.6099 112.581 56.6052 112.427C56.6052 112.255 56.6052 112.078 56.6052 111.896C56.6052 111.714 56.6179 111.54 56.6285 111.371C56.6391 111.202 56.6582 110.995 56.6773 110.753C56.6964 110.512 56.7176 110.254 56.7388 109.979C56.76 109.704 56.7855 109.421 56.813 109.133C56.8406 108.845 56.8661 108.581 56.8936 108.325C56.9031 108.163 56.9518 108.005 57.0357 107.866C57.0752 107.812 57.1262 107.769 57.1849 107.737C57.2437 107.706 57.3086 107.689 57.3751 107.686C57.4535 107.673 57.5447 107.663 57.6465 107.652C57.7483 107.641 57.8586 107.631 57.9731 107.622C57.9964 107.586 58.0115 107.545 58.0177 107.502C58.0278 107.446 58.0328 107.389 58.0325 107.333C58.0358 107.291 58.027 107.25 58.0071 107.214C57.7823 107.197 57.5129 107.18 57.2011 107.163C56.8894 107.146 56.5458 107.123 56.1662 107.091C55.9265 107.072 55.689 107.047 55.4578 107.019L54.8215 106.948C54.6243 106.922 54.4589 106.905 54.3253 106.893C54.2998 106.925 54.2844 106.964 54.2807 107.005C54.269 107.06 54.2626 107.117 54.2616 107.174C54.2581 107.216 54.2632 107.259 54.2765 107.299M64.2742 107.644C64.3943 107.637 64.5147 107.637 64.6348 107.644C64.7493 107.644 64.8468 107.658 64.9359 107.669C65.0539 107.675 65.1649 107.727 65.2456 107.813C65.3268 107.924 65.376 108.056 65.3877 108.194C65.4322 108.447 65.4831 108.805 65.5425 109.251C65.6019 109.698 65.6676 110.25 65.7546 110.874C65.7715 111.028 65.7949 111.215 65.8182 111.426C65.8415 111.638 65.8712 111.864 65.8967 112.097C65.9221 112.329 65.9497 112.558 65.9751 112.776C66.0006 112.994 66.0176 113.199 66.0345 113.355C66.0515 113.512 66.06 113.645 66.0642 113.721C66.0856 113.879 66.0704 114.04 66.0197 114.191C65.9937 114.246 65.9561 114.294 65.9097 114.333C65.8632 114.372 65.8089 114.401 65.7503 114.417C65.6761 114.445 65.5891 114.472 65.4916 114.5L65.165 114.591C65.1514 114.607 65.1416 114.625 65.1365 114.646C65.1313 114.666 65.1309 114.687 65.1353 114.707C65.1353 114.767 65.1438 114.826 65.1607 114.883C65.1688 114.925 65.1878 114.964 65.2159 114.997C65.3452 114.98 65.5573 114.946 65.8521 114.9C66.1469 114.853 66.5329 114.8 67.0207 114.737C67.5085 114.673 67.8903 114.64 68.1978 114.614L68.8574 114.551C68.8744 114.551 68.8828 114.517 68.8892 114.475C68.8946 114.43 68.8946 114.384 68.8892 114.339C68.8887 114.293 68.8823 114.248 68.8701 114.204C68.8652 114.175 68.8511 114.149 68.8298 114.13C68.7195 114.13 68.6177 114.13 68.5477 114.13C68.4778 114.13 68.3993 114.13 68.3357 114.13L68.1236 114.111C68.0417 114.102 67.9627 114.075 67.8924 114.032C67.8303 113.988 67.7825 113.927 67.7545 113.857C67.7137 113.758 67.6845 113.654 67.6676 113.548C67.6485 113.423 67.6273 113.275 67.604 113.11C67.5806 112.945 67.5552 112.759 67.5297 112.564C67.5043 112.37 67.4767 112.173 67.4491 111.972C67.4216 111.771 67.3982 111.574 67.3749 111.382C67.3754 111.364 67.3805 111.346 67.3898 111.331L67.4173 111.299L67.9263 111.236C67.9991 111.231 68.0719 111.244 68.1384 111.274C68.2089 111.307 68.2696 111.358 68.3144 111.422C68.4438 111.58 68.588 111.756 68.7386 111.955L69.2264 112.56C69.3961 112.772 69.5636 112.966 69.7291 113.154C69.8945 113.343 70.0514 113.501 70.1957 113.637C70.2853 113.727 70.3833 113.808 70.4883 113.88C70.6107 113.965 70.7441 114.033 70.8849 114.081C71.0481 114.131 71.217 114.16 71.3876 114.168C71.6037 114.18 71.8204 114.18 72.0366 114.168C72.2677 114.157 72.4925 114.14 72.7131 114.113C72.9337 114.085 73.1373 114.058 73.3048 114.024C73.3211 113.999 73.3313 113.971 73.3345 113.941C73.3435 113.895 73.3499 113.847 73.3536 113.8C73.3536 113.749 73.3536 113.704 73.3536 113.664C73.3564 113.64 73.3519 113.616 73.3409 113.594C73.1691 113.594 73.0249 113.594 72.9167 113.58C72.813 113.572 72.7105 113.552 72.6113 113.52C72.5138 113.489 72.4211 113.445 72.3356 113.389C72.22 113.316 72.1081 113.237 72.0005 113.152C71.8584 113.042 71.6993 112.901 71.5212 112.729C71.343 112.558 71.1585 112.374 70.9719 112.175C70.7853 111.976 70.5965 111.779 70.4226 111.583C70.2487 111.386 70.0875 111.204 69.9496 111.039C69.8118 110.874 69.7036 110.739 69.6251 110.635C69.6165 110.618 69.6114 110.599 69.6103 110.58C69.6093 110.571 69.6101 110.562 69.6126 110.554C69.6152 110.546 69.6194 110.538 69.6251 110.531C69.8794 110.39 70.1122 110.213 70.3165 110.007C70.5152 109.806 70.6692 109.566 70.7683 109.302C70.8709 109.012 70.9028 108.702 70.8616 108.397C70.8249 108.042 70.6873 107.705 70.465 107.426C70.237 107.146 69.9305 106.942 69.5849 106.838C69.1537 106.71 68.6998 106.678 68.2551 106.744C68.0324 106.772 67.8054 106.802 67.57 106.835L66.8171 106.939C66.552 106.977 66.2593 107.015 65.9433 107.053C65.8274 107.069 65.6895 107.084 65.5298 107.098L65.0441 107.144L64.586 107.187L64.2594 107.22C64.2403 107.233 64.2276 107.269 64.2233 107.326C64.216 107.385 64.216 107.444 64.2233 107.502C64.2285 107.549 64.2468 107.594 64.2763 107.631M67.3792 107.354C67.7044 107.304 68.037 107.343 68.342 107.466C68.6111 107.585 68.8385 107.782 68.9953 108.031C69.169 108.317 69.2763 108.639 69.3091 108.972C69.3449 109.198 69.3449 109.429 69.3091 109.655C69.2786 109.821 69.2151 109.98 69.1225 110.121C69.0426 110.236 68.9411 110.334 68.8235 110.411C68.7215 110.469 68.6114 110.513 68.4968 110.54C68.3315 110.585 68.1637 110.62 67.9942 110.645C67.8012 110.675 67.5955 110.698 67.3749 110.717L67.3198 110.698C67.3027 110.682 67.2915 110.66 67.288 110.637C67.2434 110.273 67.201 109.93 67.1628 109.609C67.1246 109.287 67.0886 108.995 67.0568 108.733C67.025 108.471 67.0016 108.249 66.9826 108.067C66.9635 107.885 66.9529 107.749 66.9486 107.665C66.9464 107.626 66.9521 107.587 66.9656 107.55C66.974 107.518 66.9908 107.488 67.0144 107.464C67.052 107.44 67.0926 107.422 67.1353 107.409C67.1798 107.394 67.2265 107.381 67.271 107.371C67.3155 107.36 67.3558 107.356 67.3876 107.354M72.3271 106.376C72.4522 106.351 72.5562 106.332 72.6431 106.319C72.7273 106.305 72.8123 106.296 72.8976 106.292C73.0276 106.278 73.159 106.295 73.2815 106.34C73.4272 106.402 73.5608 106.488 73.676 106.596C73.8633 106.771 74.041 106.955 74.2083 107.149C74.378 107.33 74.5752 107.548 74.8022 107.804C75.0291 108.06 75.2772 108.34 75.5445 108.651C75.8117 108.962 76.098 109.285 76.3928 109.624L77.3027 110.669C77.5359 110.931 77.7502 111.183 77.9495 111.422C78.1489 111.661 78.3313 111.894 78.4988 112.111C78.5752 112.076 78.6727 112.033 78.7873 111.989C78.9018 111.944 79.0184 111.902 79.1351 111.862C79.2517 111.822 79.3472 111.794 79.4256 111.775C79.4256 111.564 79.415 111.312 79.4129 110.992C79.4108 110.673 79.4129 110.288 79.4299 109.842C79.4468 109.395 79.4638 108.962 79.4808 108.507C79.4977 108.052 79.5147 107.605 79.5359 107.172C79.5571 106.738 79.5698 106.338 79.5868 105.968C79.6038 105.598 79.6229 105.289 79.6377 105.031C79.6547 104.807 79.6717 104.608 79.6907 104.462C79.7075 104.328 79.741 104.196 79.7904 104.07C79.8412 103.958 79.9132 103.857 80.0025 103.772C80.0735 103.708 80.1493 103.649 80.2294 103.597C80.3164 103.537 80.4182 103.472 80.537 103.402C80.5414 103.356 80.5364 103.31 80.5221 103.267C80.5061 103.212 80.4848 103.159 80.4585 103.108C80.4464 103.073 80.4251 103.041 80.397 103.017C80.3058 103.051 80.204 103.093 80.0852 103.142C79.9664 103.19 79.8244 103.248 79.661 103.317C79.4977 103.387 79.2878 103.463 79.046 103.552C78.6324 103.7 78.3058 103.81 78.0619 103.882C77.818 103.954 77.6526 104.005 77.5593 104.037C77.5486 104.077 77.5486 104.119 77.5593 104.159C77.5679 104.219 77.5813 104.278 77.5996 104.335C77.6102 104.378 77.6305 104.417 77.659 104.451C77.8159 104.415 77.9601 104.388 78.0831 104.371C78.2061 104.354 78.3249 104.339 78.4246 104.333C78.4939 104.316 78.5665 104.319 78.6343 104.341C78.7021 104.363 78.7624 104.403 78.8085 104.458C78.8942 104.609 78.9347 104.781 78.9251 104.955C78.9357 105.116 78.9421 105.329 78.9463 105.589C78.9506 105.85 78.9463 106.144 78.9463 106.463C78.9463 106.783 78.9463 107.11 78.9336 107.449C78.9209 107.787 78.9188 108.107 78.9103 108.418C78.9018 108.729 78.8912 109.008 78.8806 109.251C78.87 109.495 78.8594 109.685 78.8488 109.825L78.8191 109.839H78.7873L78.4712 109.495L77.9834 108.951L77.3896 108.289L76.7533 107.574C76.5413 107.333 76.3419 107.104 76.1531 106.884C75.9644 106.664 75.7926 106.461 75.6463 106.296C75.4999 106.131 75.3812 105.983 75.2984 105.873C75.2443 105.814 75.2102 105.74 75.2009 105.661C75.1969 105.63 75.1997 105.599 75.2093 105.57C75.2188 105.54 75.2348 105.513 75.256 105.49C75.3223 105.429 75.3932 105.373 75.4681 105.323C75.5635 105.255 75.6802 105.179 75.8202 105.094C75.8328 105.054 75.8328 105.01 75.8202 104.97C75.8046 104.912 75.7825 104.857 75.7544 104.805C75.7406 104.766 75.7136 104.734 75.6781 104.714L75.2963 104.864L74.6791 105.107C74.4459 105.198 74.202 105.291 73.9432 105.384C73.7948 105.439 73.6399 105.492 73.4766 105.547L72.9952 105.708L72.5604 105.854C72.4268 105.898 72.3123 105.936 72.2211 105.97C72.2084 105.985 72.2084 106.023 72.2211 106.082C72.2314 106.141 72.2463 106.199 72.2656 106.256C72.2796 106.3 72.3019 106.342 72.3314 106.378" fill="#12100B"/>
<path d="M81.1626 102.81C81.2984 102.744 81.4192 102.691 81.5232 102.647C81.6262 102.605 81.7318 102.569 81.8392 102.539C81.8913 102.523 81.9461 102.519 82.0001 102.525C82.0541 102.532 82.1062 102.549 82.1531 102.577C82.2561 102.643 82.3448 102.728 82.4139 102.829C82.5178 102.981 82.626 103.155 82.7575 103.345L83.1817 104.022L83.7564 104.94L84.2633 105.748C84.433 106.019 84.5899 106.275 84.7405 106.516C84.8911 106.757 85.0226 106.971 85.1307 107.151C85.2389 107.331 85.3216 107.47 85.3725 107.563C85.4286 107.666 85.4741 107.773 85.5083 107.885C85.534 107.962 85.534 108.046 85.5083 108.124C85.4705 108.211 85.4141 108.289 85.3428 108.352C85.2824 108.416 85.2179 108.475 85.1498 108.53C85.0756 108.594 84.9844 108.665 84.8784 108.742C84.8751 108.785 84.8854 108.829 84.9081 108.866C84.9342 108.92 84.9662 108.972 85.0035 109.019C85.0267 109.056 85.0618 109.084 85.1032 109.099C85.2304 109.019 85.3662 108.93 85.5083 108.835C85.6504 108.739 85.8179 108.623 86.0109 108.5C86.2039 108.378 86.4351 108.219 86.7235 108.043C87.0713 107.832 87.3704 107.648 87.627 107.498L88.2993 107.106C88.3067 107.065 88.3015 107.022 88.2845 106.984C88.2655 106.927 88.2399 106.872 88.2081 106.821C88.1875 106.78 88.1568 106.746 88.119 106.721C87.9897 106.778 87.8667 106.833 87.7436 106.884C87.6425 106.93 87.5384 106.969 87.4319 107.001C87.3343 107.037 87.2282 107.044 87.1265 107.022C87.0453 106.997 86.9721 106.951 86.9144 106.888C86.8519 106.823 86.7952 106.752 86.7447 106.677C86.609 106.48 86.4054 106.167 86.136 105.744C85.8667 105.321 85.5401 104.8 85.1541 104.185L84.6005 103.303C84.4287 103.023 84.276 102.778 84.1467 102.562C84.0173 102.346 83.9134 102.173 83.8434 102.044C83.7884 101.955 83.7402 101.863 83.6992 101.767C83.6654 101.694 83.654 101.613 83.6665 101.534C83.6789 101.455 83.7147 101.381 83.7691 101.323C83.8346 101.247 83.9055 101.176 83.9812 101.111L84.2676 100.87C84.2658 100.827 84.2526 100.785 84.2294 100.749C84.202 100.699 84.1708 100.651 84.1361 100.605C84.1143 100.572 84.0853 100.544 84.0512 100.523C83.972 100.571 83.8702 100.641 83.7458 100.734C83.6207 100.821 83.4553 100.929 83.258 101.058C83.0608 101.187 82.8126 101.348 82.5178 101.534C82.1743 101.746 81.8696 101.928 81.6038 102.08C81.3408 102.232 81.1223 102.359 80.9526 102.463C80.9517 102.504 80.9628 102.544 80.9845 102.579C81.0069 102.632 81.0354 102.681 81.0693 102.727C81.0898 102.765 81.1217 102.796 81.1605 102.816M85.8815 100.337C86.0171 100.237 86.1588 100.146 86.3057 100.064C86.4278 100 86.5556 99.9476 86.6875 99.9073C86.7868 99.8754 86.8927 99.8696 86.995 99.8903C87.0965 99.91 87.1935 99.948 87.2813 100.002C87.3651 100.053 87.4415 100.115 87.5082 100.187C87.791 100.508 88.078 100.831 88.3693 101.155L89.1964 102.097C89.4594 102.401 89.7054 102.683 89.926 102.943C90.1466 103.203 90.3502 103.434 90.505 103.631C90.6598 103.827 90.7871 103.986 90.8698 104.098C90.9814 104.231 91.0612 104.387 91.1031 104.555C91.1253 104.689 91.0974 104.826 91.0246 104.94C90.9684 105.04 90.9039 105.136 90.8316 105.226C90.7595 105.319 90.6768 105.418 90.5856 105.522C90.5979 105.562 90.6189 105.6 90.6471 105.632C90.6819 105.68 90.7209 105.726 90.7637 105.767C90.7905 105.8 90.8268 105.825 90.8677 105.837C91.0013 105.714 91.1667 105.558 91.3639 105.365C91.5612 105.173 91.7881 104.959 92.0532 104.731C92.3183 104.502 92.5135 104.327 92.7255 104.151C92.9376 103.975 93.1221 103.817 93.2791 103.681C93.2732 103.636 93.2549 103.594 93.2261 103.559C93.1921 103.509 93.1537 103.462 93.1115 103.419C93.0838 103.39 93.0507 103.366 93.014 103.349C92.8846 103.442 92.7658 103.521 92.6619 103.586C92.558 103.652 92.4498 103.711 92.3671 103.76C92.2744 103.817 92.1702 103.854 92.0617 103.867C91.9548 103.876 91.8476 103.855 91.7521 103.806C91.6239 103.735 91.5073 103.644 91.4064 103.537C91.3343 103.468 91.2282 103.36 91.0904 103.214L90.6089 102.685C90.4265 102.486 90.2293 102.275 90.0214 102.05L89.3958 101.361L88.7913 100.688L88.2739 100.1V100.07C88.2739 100.057 88.2951 100.053 88.3184 100.057L89.0819 100.193L90.1657 100.387L91.4382 100.618L92.7701 100.861L94.0299 101.098C94.4286 101.172 94.7849 101.24 95.0903 101.31C95.3957 101.38 95.646 101.42 95.8241 101.46C95.8623 101.418 95.9196 101.359 95.9959 101.284C96.0723 101.21 96.155 101.132 96.244 101.05C96.3331 100.967 96.4158 100.893 96.4943 100.825C96.5509 100.774 96.6104 100.726 96.6725 100.682L96.3098 100.297C96.1719 100.151 96.032 99.9982 95.8856 99.8396L95.4614 99.3869L94.5304 98.3291C94.225 97.9843 93.9365 97.6543 93.6587 97.3369C93.3809 97.0196 93.1306 96.7256 92.8973 96.4527C92.664 96.1798 92.4732 95.9322 92.2971 95.7165C92.2182 95.6126 92.152 95.4996 92.0999 95.3801C92.0633 95.2911 92.0509 95.1941 92.0638 95.0987C92.085 94.9946 92.1245 94.8951 92.1805 94.8047C92.2246 94.7316 92.2728 94.661 92.3247 94.5931C92.3735 94.5254 92.4307 94.4493 92.4944 94.3689C92.481 94.3293 92.4601 94.2927 92.4329 94.261C92.3955 94.2153 92.3559 94.1715 92.3141 94.1298C92.2887 94.1008 92.2567 94.0783 92.2208 94.0643C92.1614 94.1171 92.0808 94.1975 91.9726 94.3012L91.6142 94.646C91.4764 94.7793 91.3279 94.9168 91.171 95.0585C90.8698 95.3251 90.6068 95.5536 90.3841 95.7376C90.1614 95.9217 89.9917 96.0697 89.8687 96.1755C89.8719 96.2001 89.8814 96.2234 89.8963 96.2432C89.9175 96.2728 89.943 96.3088 89.9727 96.3426C90.0004 96.3775 90.0309 96.41 90.0639 96.44C90.0834 96.4611 90.1072 96.4777 90.1338 96.4886C90.2696 96.3934 90.3905 96.3109 90.4986 96.2411C90.6068 96.1713 90.7107 96.1099 90.8274 96.0549C90.9271 95.9974 91.0375 95.9607 91.1519 95.947C91.248 95.9397 91.3443 95.9595 91.4297 96.0042C91.5357 96.0603 91.6329 96.1315 91.7181 96.2157C91.8772 96.3659 92.0702 96.5584 92.295 96.7954C92.5198 97.0323 92.7658 97.2989 93.0352 97.5908L93.8581 98.5068L94.7064 99.4419L94.6958 99.4588L94.6852 99.4757C94.4837 99.4503 94.2335 99.4122 93.9281 99.3678C93.6227 99.3234 93.2918 99.2726 92.9164 99.2134C92.541 99.1541 92.1571 99.0928 91.7521 99.0251L90.5432 98.8262C90.1402 98.7586 89.7585 98.6951 89.3937 98.6295L88.4053 98.4603C88.2526 98.437 88.1254 98.4137 88.0236 98.3947C87.9363 98.3783 87.8499 98.3571 87.7649 98.3312C87.701 98.311 87.6392 98.2848 87.5803 98.2529C87.5252 98.3122 87.4446 98.3926 87.3364 98.4962C87.2283 98.5999 87.1116 98.7078 86.978 98.8284C86.6959 99.0801 86.4351 99.3022 86.1997 99.4969C85.9642 99.6915 85.7755 99.8565 85.6207 99.9982C85.6289 100.037 85.648 100.073 85.6758 100.102C85.7125 100.151 85.7521 100.197 85.7946 100.242C85.8208 100.275 85.8541 100.301 85.8921 100.32M98.8463 98.1324C98.8713 98.1688 98.9013 98.2015 98.9354 98.2297C98.9798 98.2659 99.0266 98.2991 99.0754 98.3291C99.1097 98.3523 99.1477 98.3695 99.1878 98.3799C99.3002 98.2233 99.4232 98.0435 99.5547 97.8447C99.6862 97.6458 99.8325 97.4321 99.9937 97.21C100.206 96.9096 100.407 96.6536 100.577 96.44C100.747 96.2263 100.882 96.0507 100.98 95.9174C100.961 95.8799 100.935 95.8462 100.904 95.818C100.862 95.7739 100.817 95.7336 100.768 95.6974C100.737 95.6704 100.701 95.6503 100.662 95.6382C100.581 95.7292 100.501 95.8074 100.426 95.8793C100.352 95.9513 100.276 96.0147 100.199 96.0782C100.134 96.1414 100.055 96.1892 99.9683 96.2178C99.9085 96.2381 99.8436 96.2381 99.7838 96.2178C99.7271 96.1957 99.6741 96.1651 99.6268 96.1269C99.5519 96.0641 99.4843 95.9932 99.4253 95.9153C99.3426 95.8117 99.2514 95.6868 99.1496 95.5472C99.0478 95.4076 98.9375 95.2574 98.8379 95.1008L98.5303 94.6524C98.5169 94.6222 98.5083 94.59 98.5049 94.5572C98.5001 94.5272 98.5061 94.4964 98.5219 94.4704C98.5487 94.4267 98.5869 94.3696 98.6364 94.2991C98.683 94.2314 98.7445 94.1425 98.8209 94.0367L99.1136 93.6369L99.3575 93.2963L99.5695 92.9959C99.6374 92.9028 99.6904 92.833 99.7371 92.7844C99.7549 92.7649 99.7789 92.7522 99.805 92.7484C99.8289 92.7456 99.8531 92.7456 99.8771 92.7484L100.331 92.8711L100.865 93.0255C101.049 93.0805 101.223 93.1355 101.387 93.1905C101.553 93.2434 101.69 93.2921 101.811 93.3386C101.857 93.3545 101.896 93.3841 101.924 93.4233C101.961 93.4777 101.975 93.5445 101.964 93.6094C101.942 93.7057 101.909 93.7993 101.866 93.8887C101.82 93.9966 101.767 94.1108 101.705 94.2271C101.724 94.2661 101.753 94.2991 101.79 94.3223C101.835 94.3562 101.883 94.39 101.934 94.4218C101.97 94.4432 102.008 94.461 102.047 94.4747L102.308 94.0918C102.405 93.9479 102.52 93.7829 102.649 93.5946C102.778 93.4063 102.937 93.1884 103.116 92.943C103.366 92.6017 103.582 92.3154 103.765 92.0841C103.947 91.8536 104.087 91.661 104.189 91.5362C104.169 91.4992 104.143 91.4656 104.112 91.4368C104.071 91.3928 104.026 91.3531 103.977 91.3183C103.946 91.2895 103.909 91.2691 103.869 91.2591C103.736 91.4001 103.594 91.5322 103.444 91.6547C103.342 91.7402 103.22 91.801 103.09 91.8324C102.95 91.8593 102.806 91.8593 102.666 91.8324C102.503 91.8049 102.288 91.7562 102.03 91.6885L101.285 91.4897L100.295 91.2041L99.1984 90.8825L98.1062 90.561C97.752 90.4531 97.4296 90.36 97.1412 90.2754C96.8527 90.1908 96.6152 90.1167 96.4286 90.0638C96.3162 90.0279 96.1953 89.9898 96.0659 89.9454C95.9365 89.9009 95.8241 89.8586 95.7223 89.8206C95.6905 89.8756 95.6502 89.9411 95.5972 90.0194C95.5442 90.0977 95.4827 90.1908 95.4042 90.3008C95.3257 90.4108 95.2769 90.4721 95.2133 90.5462C95.1497 90.6202 95.0945 90.6921 95.0436 90.7577C95.1066 90.8157 95.1648 90.8787 95.2175 90.946C95.2833 91.0243 95.3469 91.1089 95.4127 91.1978C95.4784 91.2866 95.5336 91.3691 95.5845 91.4474L95.9471 91.9741C96.0977 92.1857 96.2674 92.4459 96.4561 92.7251C96.6449 93.0044 96.8442 93.3069 97.0521 93.6221L97.6883 94.5804C97.9004 94.9041 98.0998 95.2151 98.2907 95.5197C98.4815 95.8244 98.6555 96.1015 98.8103 96.3553C98.911 96.5153 99.0003 96.6821 99.0775 96.8546C99.1324 96.9773 99.1626 97.1095 99.1666 97.2439C99.1645 97.3791 99.1364 97.5127 99.0839 97.6373C99.0154 97.8134 98.9346 97.9845 98.8421 98.1493M96.4773 91.6843C96.6088 91.7182 96.7658 91.7626 96.9418 91.8155L97.4975 91.9805L98.0765 92.1582C98.2652 92.2195 98.4434 92.2724 98.6024 92.3253L99.0075 92.4586L99.0372 92.4988V92.5347C99.016 92.5707 98.98 92.6257 98.9312 92.6955C98.8824 92.7653 98.8251 92.85 98.7594 92.9409L98.5473 93.235C98.4307 93.3958 98.3352 93.5333 98.244 93.6475C98.1528 93.7617 98.0956 93.8442 98.0489 93.8992H98.0065C97.9883 93.8902 97.9723 93.8772 97.9598 93.8612L97.6247 93.3915L97.2175 92.8203C97.0775 92.6215 96.9376 92.4247 96.8061 92.2343C96.6746 92.0439 96.5516 91.8747 96.4455 91.7203V91.6949L96.4773 91.6843Z" fill="#12100B"/>
</svg>
